G04 #@! TF.GenerationSoftware,KiCad,Pcbnew,5.1.5*
G04 #@! TF.CreationDate,2020-03-24T00:38:53+03:00*
G04 #@! TF.ProjectId,nordic-switch,6e6f7264-6963-42d7-9377-697463682e6b,1.0*
G04 #@! TF.SameCoordinates,Original*
G04 #@! TF.FileFunction,Profile,NP*
%FSLAX46Y46*%
G04 Gerber Fmt 4.6, Leading zero omitted, Abs format (unit mm)*
G04 Created by KiCad (PCBNEW 5.1.5) date 2020-03-24 00:38:53*
%MOMM*%
%LPD*%
G04 APERTURE LIST*
%ADD10C,0.200000*%
G04 APERTURE END LIST*
D10*
X132400000Y-99750000D02*
X132400448Y-99543045D01*
X132400448Y-99543045D02*
X132401733Y-99342935D01*
X132401733Y-99342935D02*
X132403991Y-99130428D01*
X132403991Y-99130428D02*
X132407036Y-98924844D01*
X132407036Y-98924844D02*
X132410847Y-98722398D01*
X132410847Y-98722398D02*
X132415562Y-98515326D01*
X132415562Y-98515326D02*
X132420999Y-98311465D01*
X132420999Y-98311465D02*
X132426977Y-98114818D01*
X132426977Y-98114818D02*
X132434116Y-97905724D01*
X132434116Y-97905724D02*
X132441440Y-97711837D01*
X132441440Y-97711837D02*
X132449797Y-97509475D01*
X132449797Y-97509475D02*
X132459083Y-97302574D01*
X132459083Y-97302574D02*
X132468335Y-97111100D01*
X132468335Y-97111100D02*
X132478238Y-96919173D01*
X132478238Y-96919173D02*
X132488786Y-96726817D01*
X132488786Y-96726817D02*
X132499970Y-96534042D01*
X132499970Y-96534042D02*
X132511791Y-96340872D01*
X132511791Y-96340872D02*
X132523976Y-96151359D01*
X132523976Y-96151359D02*
X132537318Y-95953416D01*
X132537318Y-95953416D02*
X132551015Y-95759166D01*
X132551015Y-95759166D02*
X132565328Y-95564592D01*
X132565328Y-95564592D02*
X132580251Y-95369712D01*
X132580251Y-95369712D02*
X132595782Y-95174547D01*
X132595782Y-95174547D02*
X132611570Y-94983185D01*
X132611570Y-94983185D02*
X132627578Y-94795663D01*
X132627578Y-94795663D02*
X132644495Y-94603845D01*
X132644495Y-94603845D02*
X132662355Y-94407730D01*
X132662355Y-94407730D02*
X132679627Y-94223693D01*
X132679627Y-94223693D02*
X132699819Y-94014929D01*
X132699819Y-94014929D02*
X132719413Y-93818279D01*
X132719413Y-93818279D02*
X132739578Y-93621488D01*
X132739578Y-93621488D02*
X132759867Y-93428671D01*
X132759867Y-93428671D02*
X132779796Y-93243968D01*
X132779796Y-93243968D02*
X132800214Y-93059186D01*
X132800214Y-93059186D02*
X132822055Y-92866124D01*
X132822055Y-92866124D02*
X132842978Y-92685339D01*
X132842978Y-92685339D02*
X132866322Y-92488083D01*
X132866322Y-92488083D02*
X132888694Y-92303137D01*
X132888694Y-92303137D02*
X132912560Y-92109970D01*
X132912560Y-92109970D02*
X132935362Y-91929148D01*
X132935362Y-91929148D02*
X132960739Y-91731919D01*
X132960739Y-91731919D02*
X132986635Y-91534741D01*
X132986635Y-91534741D02*
X133013044Y-91337631D01*
X133013044Y-91337631D02*
X133037133Y-91161126D01*
X133037133Y-91161126D02*
X133062205Y-90980605D01*
X133062205Y-90980605D02*
X133087696Y-90800183D01*
X133087696Y-90800183D02*
X133114198Y-90615784D01*
X133114198Y-90615784D02*
X133143548Y-90415147D01*
X133143548Y-90415147D02*
X133172178Y-90222868D01*
X133172178Y-90222868D02*
X133199399Y-90043028D01*
X133199399Y-90043028D02*
X133227022Y-89863364D01*
X133227022Y-89863364D02*
X133254404Y-89687965D01*
X133254404Y-89687965D02*
X133285413Y-89492399D01*
X133285413Y-89492399D02*
X133314907Y-89309293D01*
X133314907Y-89309293D02*
X133346813Y-89114247D01*
X133346813Y-89114247D02*
X133376459Y-88935713D01*
X133376459Y-88935713D02*
X133414051Y-88712915D01*
X133414051Y-88712915D02*
X133444549Y-88534990D01*
X133444549Y-88534990D02*
X133476123Y-88353326D01*
X133476123Y-88353326D02*
X133509508Y-88163929D01*
X133509508Y-88163929D02*
X133541864Y-87982939D01*
X133541864Y-87982939D02*
X133578987Y-87778242D01*
X133578987Y-87778242D02*
X133620302Y-87554026D01*
X133620302Y-87554026D02*
X133653163Y-87378279D01*
X133653163Y-87378279D02*
X133686369Y-87202914D01*
X133686369Y-87202914D02*
X133719919Y-87027949D01*
X133719919Y-87027949D02*
X133753812Y-86853398D01*
X133753812Y-86853398D02*
X133792732Y-86655564D01*
X133792732Y-86655564D02*
X133830499Y-86466184D01*
X133830499Y-86466184D02*
X133867059Y-86285205D01*
X133867059Y-86285205D02*
X133912045Y-86065585D01*
X133912045Y-86065585D02*
X133947757Y-85893584D01*
X133947757Y-85893584D02*
X133987898Y-85702634D01*
X133987898Y-85702634D02*
X134023441Y-85535597D01*
X134023441Y-85535597D02*
X134061794Y-85357473D01*
X134061794Y-85357473D02*
X134098788Y-85187653D01*
X134098788Y-85187653D02*
X134136084Y-85018399D01*
X134136084Y-85018399D02*
X134172823Y-84853552D01*
X134172823Y-84853552D02*
X134211566Y-84681640D01*
X134211566Y-84681640D02*
X134249744Y-84514162D01*
X134249744Y-84514162D02*
X134288210Y-84347306D01*
X134288210Y-84347306D02*
X134326956Y-84181083D01*
X134326956Y-84181083D02*
X134367764Y-84007998D01*
X134367764Y-84007998D02*
X134408873Y-83835638D01*
X134408873Y-83835638D02*
X134452084Y-83656575D01*
X134452084Y-83656575D02*
X134495616Y-83478338D01*
X134495616Y-83478338D02*
X134535794Y-83315690D01*
X134535794Y-83315690D02*
X134576232Y-83153769D01*
X134576232Y-83153769D02*
X134620641Y-82977966D01*
X134620641Y-82977966D02*
X134661612Y-82817601D01*
X134661612Y-82817601D02*
X134702831Y-82658002D01*
X134702831Y-82658002D02*
X134744298Y-82499182D01*
X134744298Y-82499182D02*
X134788857Y-82330411D01*
X134788857Y-82330411D02*
X134834644Y-82159003D01*
X134834644Y-82159003D02*
X134877821Y-81999199D01*
X134877821Y-81999199D02*
X134923176Y-81833229D01*
X134923176Y-81833229D02*
X134966841Y-81675237D01*
X134966841Y-81675237D02*
X135011718Y-81514671D01*
X135011718Y-81514671D02*
X135055849Y-81358530D01*
X135055849Y-81358530D02*
X135102180Y-81196453D01*
X135102180Y-81196453D02*
X135149749Y-81032001D01*
X135149749Y-81032001D02*
X135195565Y-80875437D01*
X135195565Y-80875437D02*
X135242609Y-80716536D01*
X135242609Y-80716536D02*
X135293911Y-80545345D01*
X135293911Y-80545345D02*
X135343447Y-80382103D01*
X135343447Y-80382103D02*
X135393221Y-80220088D01*
X135393221Y-80220088D02*
X135444252Y-80056051D01*
X135444252Y-80056051D02*
X135493461Y-79899815D01*
X135493461Y-79899815D02*
X135542885Y-79744815D01*
X135542885Y-79744815D02*
X135593550Y-79587876D01*
X135593550Y-79587876D02*
X135644431Y-79432263D01*
X135644431Y-79432263D02*
X135697604Y-79271724D01*
X135697604Y-79271724D02*
X135750996Y-79112663D01*
X135750996Y-79112663D02*
X135802497Y-78961252D01*
X135802497Y-78961252D02*
X135858416Y-78799060D01*
X135858416Y-78799060D02*
X135912431Y-78644566D01*
X135912431Y-78644566D02*
X135968769Y-78485668D01*
X135968769Y-78485668D02*
X136022107Y-78337338D01*
X136022107Y-78337338D02*
X136075622Y-78190554D01*
X136075622Y-78190554D02*
X136131460Y-78039561D01*
X136131460Y-78039561D02*
X136189638Y-77884583D01*
X136189638Y-77884583D02*
X136252330Y-77720216D01*
X136252330Y-77720216D02*
X136308715Y-77574725D01*
X136308715Y-77574725D02*
X136365260Y-77431024D01*
X136365260Y-77431024D02*
X136424143Y-77283719D01*
X136424143Y-77283719D02*
X136483188Y-77138398D01*
X136483188Y-77138398D02*
X136544579Y-76989818D01*
X136544579Y-76989818D02*
X136608331Y-76838242D01*
X136608331Y-76838242D02*
X136670034Y-76694149D01*
X136670034Y-76694149D02*
X136731881Y-76552306D01*
X136731881Y-76552306D02*
X136793861Y-76412742D01*
X136793861Y-76412742D02*
X136858191Y-76270626D01*
X136858191Y-76270626D02*
X136924873Y-76126249D01*
X136924873Y-76126249D02*
X136989453Y-75989269D01*
X136989453Y-75989269D02*
X137056377Y-75850273D01*
X137056377Y-75850273D02*
X137123411Y-75714068D01*
X137123411Y-75714068D02*
X137190546Y-75580687D01*
X137190546Y-75580687D02*
X137260012Y-75445863D01*
X137260012Y-75445863D02*
X137329567Y-75314135D01*
X137329567Y-75314135D02*
X137401445Y-75181444D01*
X137401445Y-75181444D02*
X137475644Y-75048150D01*
X137475644Y-75048150D02*
X137549905Y-74918500D01*
X137549905Y-74918500D02*
X137624218Y-74792541D01*
X137624218Y-74792541D02*
X137700823Y-74666677D01*
X137700823Y-74666677D02*
X137779708Y-74541311D01*
X137779708Y-74541311D02*
X137860862Y-74416868D01*
X137860862Y-74416868D02*
X137944269Y-74293792D01*
X137944269Y-74293792D02*
X138027658Y-74175676D01*
X138027658Y-74175676D02*
X138113264Y-74059597D01*
X138113264Y-74059597D02*
X138201063Y-73946051D01*
X138201063Y-73946051D02*
X138293280Y-73832868D01*
X138293280Y-73832868D02*
X138387627Y-73723594D01*
X138387627Y-73723594D02*
X138490799Y-73611774D01*
X138490799Y-73611774D02*
X138591529Y-73510455D01*
X138591529Y-73510455D02*
X138696493Y-73413288D01*
X138696493Y-73413288D02*
X138805622Y-73321545D01*
X138805622Y-73321545D02*
X138900000Y-73250000D01*
X156400000Y-99750000D02*
X156399494Y-99968472D01*
X156399494Y-99968472D02*
X156398162Y-100168628D01*
X156398162Y-100168628D02*
X156395953Y-100373436D01*
X156395953Y-100373436D02*
X156392956Y-100575148D01*
X156392956Y-100575148D02*
X156389228Y-100773695D01*
X156389228Y-100773695D02*
X156384528Y-100980753D01*
X156384528Y-100980753D02*
X156379105Y-101184600D01*
X156379105Y-101184600D02*
X156372886Y-101389112D01*
X156372886Y-101389112D02*
X156365733Y-101598220D01*
X156365733Y-101598220D02*
X156358083Y-101800044D01*
X156358083Y-101800044D02*
X156350025Y-101994492D01*
X156350025Y-101994492D02*
X156341094Y-102193434D01*
X156341094Y-102193434D02*
X156331656Y-102388892D01*
X156331656Y-102388892D02*
X156321755Y-102580816D01*
X156321755Y-102580816D02*
X156311209Y-102773177D01*
X156311209Y-102773177D02*
X156299060Y-102982031D01*
X156299060Y-102982031D02*
X156287187Y-103175235D01*
X156287187Y-103175235D02*
X156274683Y-103368813D01*
X156274683Y-103368813D02*
X156261836Y-103558708D01*
X156261836Y-103558708D02*
X156248101Y-103752978D01*
X156248101Y-103752978D02*
X156233444Y-103951630D01*
X156233444Y-103951630D02*
X156216873Y-104166850D01*
X156216873Y-104166850D02*
X156201895Y-104353931D01*
X156201895Y-104353931D02*
X156185332Y-104553477D01*
X156185332Y-104553477D02*
X156167075Y-104765524D01*
X156167075Y-104765524D02*
X156149977Y-104957411D01*
X156149977Y-104957411D02*
X156133080Y-105141321D01*
X156133080Y-105141321D02*
X156115671Y-105325401D01*
X156115671Y-105325401D02*
X156097350Y-105513730D01*
X156097350Y-105513730D02*
X156078919Y-105698106D01*
X156078919Y-105698106D02*
X156058711Y-105894913D01*
X156058711Y-105894913D02*
X156037934Y-106091837D01*
X156037934Y-106091837D02*
X156018399Y-106272445D01*
X156018399Y-106272445D02*
X155998399Y-106453127D01*
X155998399Y-106453127D02*
X155977935Y-106633867D01*
X155977935Y-106633867D02*
X155957013Y-106814653D01*
X155957013Y-106814653D02*
X155935636Y-106995470D01*
X155935636Y-106995470D02*
X155913807Y-107176306D01*
X155913807Y-107176306D02*
X155891530Y-107357142D01*
X155891530Y-107357142D02*
X155868809Y-107537969D01*
X155868809Y-107537969D02*
X155843520Y-107735207D01*
X155843520Y-107735207D02*
X155819881Y-107915965D01*
X155819881Y-107915965D02*
X155795256Y-108100775D01*
X155795256Y-108100775D02*
X155771307Y-108277304D01*
X155771307Y-108277304D02*
X155746951Y-108453754D01*
X155746951Y-108453754D02*
X155721612Y-108634212D01*
X155721612Y-108634212D02*
X155695264Y-108818657D01*
X155695264Y-108818657D02*
X155669681Y-108994784D01*
X155669681Y-108994784D02*
X155643100Y-109174868D01*
X155643100Y-109174868D02*
X155614871Y-109362976D01*
X155614871Y-109362976D02*
X155587457Y-109542734D01*
X155587457Y-109542734D02*
X155560278Y-109718230D01*
X155560278Y-109718230D02*
X155532723Y-109893541D01*
X155532723Y-109893541D02*
X155498242Y-110109346D01*
X155498242Y-110109346D02*
X155467191Y-110300446D01*
X155467191Y-110300446D02*
X155437726Y-110479101D01*
X155437726Y-110479101D02*
X155407197Y-110661550D01*
X155407197Y-110661550D02*
X155377654Y-110835629D01*
X155377654Y-110835629D02*
X155337947Y-111065966D01*
X155337947Y-111065966D02*
X155301891Y-111271627D01*
X155301891Y-111271627D02*
X155269673Y-111452739D01*
X155269673Y-111452739D02*
X155232699Y-111657581D01*
X155232699Y-111657581D02*
X155199678Y-111837934D01*
X155199678Y-111837934D02*
X155164797Y-112025899D01*
X155164797Y-112025899D02*
X155122712Y-112249291D01*
X155122712Y-112249291D02*
X155081603Y-112464100D01*
X155081603Y-112464100D02*
X155047728Y-112638669D01*
X155047728Y-112638669D02*
X155005693Y-112852328D01*
X155005693Y-112852328D02*
X154970283Y-113029869D01*
X154970283Y-113029869D02*
X154934528Y-113206928D01*
X154934528Y-113206928D02*
X154896821Y-113391329D01*
X154896821Y-113391329D02*
X154862004Y-113559547D01*
X154862004Y-113559547D02*
X154826064Y-113731181D01*
X154826064Y-113731181D02*
X154789809Y-113902302D01*
X154789809Y-113902302D02*
X154752410Y-114076761D01*
X154752410Y-114076761D02*
X154714691Y-114250650D01*
X154714691Y-114250650D02*
X154674957Y-114431645D01*
X154674957Y-114431645D02*
X154638306Y-114596662D01*
X154638306Y-114596662D02*
X154598788Y-114772569D01*
X154598788Y-114772569D02*
X154561557Y-114936410D01*
X154561557Y-114936410D02*
X154523177Y-115103453D01*
X154523177Y-115103453D02*
X154483631Y-115273639D01*
X154483631Y-115273639D02*
X154442902Y-115446910D01*
X154442902Y-115446910D02*
X154402768Y-115615719D01*
X154402768Y-115615719D02*
X154359643Y-115795002D01*
X154359643Y-115795002D02*
X154317106Y-115969756D01*
X154317106Y-115969756D02*
X154275183Y-116140016D01*
X154275183Y-116140016D02*
X154231132Y-116316837D01*
X154231132Y-116316837D02*
X154190481Y-116478157D01*
X154190481Y-116478157D02*
X154149579Y-116638730D01*
X154149579Y-116638730D02*
X154106551Y-116805788D01*
X154106551Y-116805788D02*
X154065140Y-116964784D01*
X154065140Y-116964784D02*
X154022539Y-117126578D01*
X154022539Y-117126578D02*
X153976821Y-117298228D01*
X153976821Y-117298228D02*
X153931785Y-117465356D01*
X153931785Y-117465356D02*
X153884554Y-117638580D01*
X153884554Y-117638580D02*
X153837040Y-117810748D01*
X153837040Y-117810748D02*
X153791209Y-117974880D01*
X153791209Y-117974880D02*
X153747091Y-118131081D01*
X153747091Y-118131081D02*
X153701761Y-118289785D01*
X153701761Y-118289785D02*
X153652229Y-118461161D01*
X153652229Y-118461161D02*
X153605424Y-118621162D01*
X153605424Y-118621162D02*
X153558386Y-118780086D01*
X153558386Y-118780086D02*
X153512131Y-118934572D01*
X153512131Y-118934572D02*
X153456544Y-119117888D01*
X153456544Y-119117888D02*
X153408806Y-119273316D01*
X153408806Y-119273316D02*
X153359832Y-119430866D01*
X153359832Y-119430866D02*
X153310640Y-119587204D01*
X153310640Y-119587204D02*
X153261235Y-119742308D01*
X153261235Y-119742308D02*
X153211622Y-119896162D01*
X153211622Y-119896162D02*
X153160764Y-120051913D01*
X153160764Y-120051913D02*
X153109698Y-120206319D01*
X153109698Y-120206319D02*
X153057383Y-120362476D01*
X153057383Y-120362476D02*
X153005916Y-120514115D01*
X153005916Y-120514115D02*
X152954256Y-120664352D01*
X152954256Y-120664352D02*
X152901347Y-120816193D01*
X152901347Y-120816193D02*
X152848249Y-120966533D01*
X152848249Y-120966533D02*
X152794970Y-121115355D01*
X152794970Y-121115355D02*
X152737227Y-121274352D01*
X152737227Y-121274352D02*
X152681432Y-121425738D01*
X152681432Y-121425738D02*
X152623297Y-121581130D01*
X152623297Y-121581130D02*
X152564975Y-121734650D01*
X152564975Y-121734650D02*
X152508643Y-121880689D01*
X152508643Y-121880689D02*
X152447794Y-122035965D01*
X152447794Y-122035965D02*
X152386764Y-122189141D01*
X152386764Y-122189141D02*
X152325562Y-122340191D01*
X152325562Y-122340191D02*
X152262000Y-122494361D01*
X152262000Y-122494361D02*
X152202666Y-122635789D01*
X152202666Y-122635789D02*
X152140988Y-122780277D01*
X152140988Y-122780277D02*
X152076954Y-122927561D01*
X152076954Y-122927561D02*
X152014991Y-123067452D01*
X152014991Y-123067452D02*
X151950681Y-123209908D01*
X151950681Y-123209908D02*
X151884016Y-123354647D01*
X151884016Y-123354647D02*
X151819452Y-123491979D01*
X151819452Y-123491979D02*
X151752544Y-123631343D01*
X151752544Y-123631343D02*
X151685524Y-123767924D01*
X151685524Y-123767924D02*
X151616165Y-123906095D01*
X151616165Y-123906095D02*
X151546706Y-124041213D01*
X151546706Y-124041213D02*
X151477159Y-124173243D01*
X151477159Y-124173243D02*
X151405286Y-124306248D01*
X151405286Y-124306248D02*
X151333345Y-124435877D01*
X151333345Y-124435877D02*
X151259088Y-124565970D01*
X151259088Y-124565970D02*
X151182530Y-124696152D01*
X151182530Y-124696152D02*
X151105928Y-124822370D01*
X151105928Y-124822370D02*
X151024791Y-124951633D01*
X151024791Y-124951633D02*
X150945891Y-125072929D01*
X150945891Y-125072929D02*
X150864737Y-125193128D01*
X150864737Y-125193128D02*
X150781347Y-125311786D01*
X150781347Y-125311786D02*
X150695735Y-125428427D01*
X150695735Y-125428427D02*
X150607931Y-125542557D01*
X150607931Y-125542557D02*
X150517952Y-125653662D01*
X150517952Y-125653662D02*
X150421342Y-125766283D01*
X150421342Y-125766283D02*
X150324879Y-125871737D01*
X150324879Y-125871737D02*
X150215172Y-125983032D01*
X150215172Y-125983032D02*
X150110191Y-126080769D01*
X150110191Y-126080769D02*
X150001042Y-126173113D01*
X150001042Y-126173113D02*
X149900000Y-126250000D01*
X149900000Y-73250000D02*
X150014389Y-73337657D01*
X150014389Y-73337657D02*
X150123578Y-73431204D01*
X150123578Y-73431204D02*
X150230827Y-73532274D01*
X150230827Y-73532274D02*
X150331605Y-73635378D01*
X150331605Y-73635378D02*
X150430324Y-73743883D01*
X150430324Y-73743883D02*
X150524698Y-73854450D01*
X150524698Y-73854450D02*
X150614682Y-73966011D01*
X150614682Y-73966011D02*
X150702491Y-74080577D01*
X150702491Y-74080577D02*
X150788107Y-74197639D01*
X150788107Y-74197639D02*
X150876007Y-74323276D01*
X150876007Y-74323276D02*
X150957164Y-74444124D01*
X150957164Y-74444124D02*
X151036061Y-74566041D01*
X151036061Y-74566041D02*
X151114942Y-74692263D01*
X151114942Y-74692263D02*
X151193793Y-74822737D01*
X151193793Y-74822737D02*
X151268093Y-74949594D01*
X151268093Y-74949594D02*
X151342340Y-75080131D01*
X151342340Y-75080131D02*
X151414274Y-75210184D01*
X151414274Y-75210184D02*
X151486138Y-75343608D01*
X151486138Y-75343608D02*
X151555674Y-75476039D01*
X151555674Y-75476039D02*
X151625122Y-75611556D01*
X151625122Y-75611556D02*
X151692230Y-75745598D01*
X151692230Y-75745598D02*
X151759240Y-75882458D01*
X151759240Y-75882458D02*
X151828363Y-76026802D01*
X151828363Y-76026802D02*
X151892913Y-76164486D01*
X151892913Y-76164486D02*
X151957339Y-76304701D01*
X151957339Y-76304701D02*
X152021635Y-76447418D01*
X152021635Y-76447418D02*
X152083585Y-76587555D01*
X152083585Y-76587555D02*
X152145398Y-76729961D01*
X152145398Y-76729961D02*
X152207065Y-76874611D01*
X152207065Y-76874611D02*
X152268581Y-77021472D01*
X152268581Y-77021472D02*
X152327751Y-77165159D01*
X152327751Y-77165159D02*
X152386764Y-77310849D01*
X152386764Y-77310849D02*
X152445618Y-77458519D01*
X152445618Y-77458519D02*
X152502132Y-77602565D01*
X152502132Y-77602565D02*
X152558485Y-77748398D01*
X152558485Y-77748398D02*
X152614670Y-77895997D01*
X152614670Y-77895997D02*
X152674980Y-78056897D01*
X152674980Y-78056897D02*
X152730799Y-78208086D01*
X152730799Y-78208086D02*
X152786429Y-78360967D01*
X152786429Y-78360967D02*
X152841866Y-78515518D01*
X152841866Y-78515518D02*
X152900287Y-78680776D01*
X152900287Y-78680776D02*
X152952142Y-78829536D01*
X152952142Y-78829536D02*
X153004863Y-78982796D01*
X153004863Y-78982796D02*
X153057383Y-79137515D01*
X153057383Y-79137515D02*
X153109698Y-79293671D01*
X153109698Y-79293671D02*
X153160764Y-79448079D01*
X153160764Y-79448079D02*
X153211622Y-79603830D01*
X153211622Y-79603830D02*
X153264329Y-79767342D01*
X153264329Y-79767342D02*
X153313721Y-79922524D01*
X153313721Y-79922524D02*
X153362899Y-80078937D01*
X153362899Y-80078937D02*
X153411860Y-80236563D01*
X153411860Y-80236563D02*
X153459583Y-80392063D01*
X153459583Y-80392063D02*
X153508098Y-80552034D01*
X153508098Y-80552034D02*
X153558386Y-80719905D01*
X153558386Y-80719905D02*
X153605424Y-80878830D01*
X153605424Y-80878830D02*
X153652229Y-81038831D01*
X153652229Y-81038831D02*
X153699786Y-81203329D01*
X153699786Y-81203329D02*
X153749057Y-81375833D01*
X153749057Y-81375833D02*
X153799029Y-81552981D01*
X153799029Y-81552981D02*
X153846761Y-81724293D01*
X153846761Y-81724293D02*
X153891319Y-81886093D01*
X153891319Y-81886093D02*
X153937548Y-82055918D01*
X153937548Y-82055918D02*
X153980641Y-82216031D01*
X153980641Y-82216031D02*
X154026335Y-82387762D01*
X154026335Y-82387762D02*
X154072686Y-82564058D01*
X154072686Y-82564058D02*
X154116864Y-82734078D01*
X154116864Y-82734078D02*
X154157967Y-82894044D01*
X154157967Y-82894044D02*
X154199742Y-83058432D01*
X154199742Y-83058432D02*
X154240335Y-83219922D01*
X154240335Y-83219922D02*
X154284323Y-83396927D01*
X154284323Y-83396927D02*
X154327995Y-83574780D01*
X154327995Y-83574780D02*
X154371354Y-83753467D01*
X154371354Y-83753467D02*
X154412605Y-83925475D01*
X154412605Y-83925475D02*
X154453557Y-84098214D01*
X154453557Y-84098214D02*
X154492445Y-84264114D01*
X154492445Y-84264114D02*
X154534545Y-84445827D01*
X154534545Y-84445827D02*
X154572842Y-84613053D01*
X154572842Y-84613053D02*
X154612569Y-84788533D01*
X154612569Y-84788533D02*
X154651124Y-84960831D01*
X154651124Y-84960831D02*
X154687675Y-85126040D01*
X154687675Y-85126040D02*
X154724781Y-85295657D01*
X154724781Y-85295657D02*
X154762415Y-85469699D01*
X154762415Y-85469699D02*
X154801379Y-85652081D01*
X154801379Y-85652081D02*
X154838352Y-85827265D01*
X154838352Y-85827265D02*
X154873373Y-85995160D01*
X154873373Y-85995160D02*
X154908895Y-86167454D01*
X154908895Y-86167454D02*
X154944893Y-86344165D01*
X154944893Y-86344165D02*
X154982124Y-86529250D01*
X154982124Y-86529250D02*
X155017420Y-86706947D01*
X155017420Y-86706947D02*
X155053912Y-86893031D01*
X155053912Y-86893031D02*
X155087726Y-87067677D01*
X155087726Y-87067677D02*
X155130269Y-87290547D01*
X155130269Y-87290547D02*
X155163304Y-87466105D01*
X155163304Y-87466105D02*
X155195985Y-87642041D01*
X155195985Y-87642041D02*
X155239987Y-87882539D01*
X155239987Y-87882539D02*
X155271832Y-88059314D01*
X155271832Y-88059314D02*
X155308999Y-88268656D01*
X155308999Y-88268656D02*
X155342855Y-88462286D01*
X155342855Y-88462286D02*
X155379727Y-88676498D01*
X155379727Y-88676498D02*
X155409244Y-88850595D01*
X155409244Y-88850595D02*
X155439748Y-89033064D01*
X155439748Y-89033064D02*
X155473834Y-89240180D01*
X155473834Y-89240180D02*
X155506098Y-89439479D01*
X155506098Y-89439479D02*
X155534658Y-89618673D01*
X155534658Y-89618673D02*
X155564729Y-89810317D01*
X155564729Y-89810317D02*
X155593097Y-89994011D01*
X155593097Y-89994011D02*
X155620429Y-90173804D01*
X155620429Y-90173804D02*
X155649783Y-90370130D01*
X155649783Y-90370130D02*
X155678053Y-90562537D01*
X155678053Y-90562537D02*
X155706442Y-90759195D01*
X155706442Y-90759195D02*
X155734335Y-90955996D01*
X155734335Y-90955996D02*
X155759462Y-91136503D01*
X155759462Y-91136503D02*
X155784725Y-91321209D01*
X155784725Y-91321209D02*
X155808447Y-91497777D01*
X155808447Y-91497777D02*
X155834437Y-91694943D01*
X155834437Y-91694943D02*
X155858335Y-91879837D01*
X155858335Y-91879837D02*
X155882803Y-92072982D01*
X155882803Y-92072982D02*
X155905757Y-92257928D01*
X155905757Y-92257928D02*
X155927750Y-92438764D01*
X155927750Y-92438764D02*
X155949293Y-92619590D01*
X155949293Y-92619590D02*
X155972275Y-92816823D01*
X155972275Y-92816823D02*
X155992863Y-92997577D01*
X155992863Y-92997577D02*
X156013442Y-93182381D01*
X156013442Y-93182381D02*
X156034417Y-93375323D01*
X156034417Y-93375323D02*
X156053998Y-93559960D01*
X156053998Y-93559960D02*
X156073502Y-93748598D01*
X156073502Y-93748598D02*
X156092077Y-93933010D01*
X156092077Y-93933010D02*
X156111339Y-94129570D01*
X156111339Y-94129570D02*
X156130022Y-94325956D01*
X156130022Y-94325956D02*
X156147754Y-94518069D01*
X156147754Y-94518069D02*
X156164206Y-94701820D01*
X156164206Y-94701820D02*
X156180833Y-94893528D01*
X156180833Y-94893528D02*
X156197561Y-95093146D01*
X156197561Y-95093146D02*
X156213664Y-95292491D01*
X156213664Y-95292491D02*
X156228210Y-95479368D01*
X156228210Y-95479368D02*
X156244276Y-95694344D01*
X156244276Y-95694344D02*
X156258460Y-95892748D01*
X156258460Y-95892748D02*
X156271461Y-96082726D01*
X156271461Y-96082726D02*
X156284120Y-96276397D01*
X156284120Y-96276397D02*
X156296396Y-96473718D01*
X156296396Y-96473718D02*
X156308241Y-96674647D01*
X156308241Y-96674647D02*
X156318962Y-96867119D01*
X156318962Y-96867119D02*
X156329241Y-97063160D01*
X156329241Y-97063160D02*
X156338846Y-97258736D01*
X156338846Y-97258736D02*
X156347945Y-97457802D01*
X156347945Y-97457802D02*
X156356172Y-97652378D01*
X156356172Y-97652378D02*
X156364146Y-97858292D01*
X156364146Y-97858292D02*
X156370945Y-98051763D01*
X156370945Y-98051763D02*
X156377159Y-98248604D01*
X156377159Y-98248604D02*
X156382638Y-98444834D01*
X156382638Y-98444834D02*
X156387466Y-98644342D01*
X156387466Y-98644342D02*
X156391587Y-98847066D01*
X156391587Y-98847066D02*
X156394897Y-99049063D01*
X156394897Y-99049063D02*
X156397430Y-99254174D01*
X156397430Y-99254174D02*
X156399150Y-99466173D01*
X156399150Y-99466173D02*
X156399929Y-99669621D01*
X156399929Y-99669621D02*
X156400000Y-99750000D01*
X149900000Y-126250000D02*
X138900000Y-126250000D01*
X138900000Y-126250000D02*
X138785603Y-126162334D01*
X138785603Y-126162334D02*
X138671951Y-126064762D01*
X138671951Y-126064762D02*
X138564687Y-125963305D01*
X138564687Y-125963305D02*
X138463902Y-125859847D01*
X138463902Y-125859847D02*
X138367422Y-125753555D01*
X138367422Y-125753555D02*
X138270797Y-125640107D01*
X138270797Y-125640107D02*
X138180808Y-125528245D01*
X138180808Y-125528245D02*
X138092993Y-125413384D01*
X138092993Y-125413384D02*
X138007378Y-125296043D01*
X138007378Y-125296043D02*
X137919472Y-125170122D01*
X137919472Y-125170122D02*
X137838317Y-125049018D01*
X137838317Y-125049018D02*
X137759423Y-124926855D01*
X137759423Y-124926855D02*
X137680543Y-124800388D01*
X137680543Y-124800388D02*
X137603947Y-124673466D01*
X137603947Y-124673466D02*
X137527397Y-124542590D01*
X137527397Y-124542590D02*
X137453153Y-124411831D01*
X137453153Y-124411831D02*
X137381221Y-124281566D01*
X137381221Y-124281566D02*
X137307121Y-124143702D01*
X137307121Y-124143702D02*
X137235352Y-124006637D01*
X137235352Y-124006637D02*
X137165920Y-123870728D01*
X137165920Y-123870728D02*
X137098820Y-123736306D01*
X137098820Y-123736306D02*
X137031827Y-123599074D01*
X137031827Y-123599074D02*
X136962717Y-123454350D01*
X136962717Y-123454350D02*
X136898185Y-123316314D01*
X136898185Y-123316314D02*
X136831555Y-123170860D01*
X136831555Y-123170860D02*
X136769497Y-123032694D01*
X136769497Y-123032694D02*
X136705358Y-122887173D01*
X136705358Y-122887173D02*
X136641368Y-122739223D01*
X136641368Y-122739223D02*
X136579731Y-122594096D01*
X136579731Y-122594096D02*
X136520442Y-122452063D01*
X136520442Y-122452063D02*
X136459113Y-122302630D01*
X136459113Y-122302630D02*
X136400135Y-122156496D01*
X136400135Y-122156496D02*
X136341317Y-122008391D01*
X136341317Y-122008391D02*
X136284839Y-121863929D01*
X136284839Y-121863929D02*
X136226361Y-121712025D01*
X136226361Y-121712025D02*
X136163757Y-121546759D01*
X136163757Y-121546759D02*
X136107814Y-121396757D01*
X136107814Y-121396757D02*
X136052056Y-121245046D01*
X136052056Y-121245046D02*
X135996482Y-121091646D01*
X135996482Y-121091646D02*
X135938978Y-120930589D01*
X135938978Y-120930589D02*
X135885928Y-120779886D01*
X135885928Y-120779886D02*
X135830957Y-120621570D01*
X135830957Y-120621570D02*
X135777250Y-120464755D01*
X135777250Y-120464755D02*
X135725844Y-120312662D01*
X135725844Y-120312662D02*
X135668382Y-120140310D01*
X135668382Y-120140310D02*
X135617406Y-119985324D01*
X135617406Y-119985324D02*
X135564573Y-119822598D01*
X135564573Y-119822598D02*
X135515060Y-119668144D01*
X135515060Y-119668144D02*
X135460630Y-119496155D01*
X135460630Y-119496155D02*
X135411565Y-119339107D01*
X135411565Y-119339107D02*
X135363735Y-119184166D01*
X135363735Y-119184166D02*
X135315112Y-119024756D01*
X135315112Y-119024756D02*
X135267723Y-118867535D01*
X135267723Y-118867535D02*
X135221560Y-118712592D01*
X135221560Y-118712592D02*
X135174622Y-118553207D01*
X135174622Y-118553207D02*
X135126926Y-118389329D01*
X135126926Y-118389329D02*
X135078491Y-118220904D01*
X135078491Y-118220904D02*
X135032284Y-118058303D01*
X135032284Y-118058303D02*
X134985348Y-117891193D01*
X134985348Y-117891193D02*
X134937706Y-117719528D01*
X134937706Y-117719528D02*
X134892268Y-117553867D01*
X134892268Y-117553867D02*
X134849009Y-117394352D01*
X134849009Y-117394352D02*
X134804088Y-117226825D01*
X134804088Y-117226825D02*
X134757542Y-117051179D01*
X134757542Y-117051179D02*
X134713175Y-116881769D01*
X134713175Y-116881769D02*
X134671893Y-116722364D01*
X134671893Y-116722364D02*
X134630862Y-116562190D01*
X134630862Y-116562190D02*
X134589153Y-116397591D01*
X134589153Y-116397591D02*
X134545880Y-116224853D01*
X134545880Y-116224853D02*
X134504725Y-116058684D01*
X134504725Y-116058684D02*
X134462033Y-115884338D01*
X134462033Y-115884338D02*
X134418747Y-115705462D01*
X134418747Y-115705462D02*
X134378458Y-115537027D01*
X134378458Y-115537027D02*
X134333147Y-115345294D01*
X134333147Y-115345294D02*
X134294355Y-115179174D01*
X134294355Y-115179174D02*
X134255845Y-115012416D01*
X134255845Y-115012416D02*
X134218486Y-114848846D01*
X134218486Y-114848846D02*
X134177112Y-114665573D01*
X134177112Y-114665573D02*
X134139490Y-114496950D01*
X134139490Y-114496950D02*
X134097100Y-114304630D01*
X134097100Y-114304630D02*
X134060120Y-114134788D01*
X134060120Y-114134788D02*
X134021782Y-113956638D01*
X134021782Y-113956638D02*
X133985429Y-113785686D01*
X133985429Y-113785686D02*
X133949387Y-113614213D01*
X133949387Y-113614213D02*
X133903973Y-113395246D01*
X133903973Y-113395246D02*
X133868657Y-113222643D01*
X133868657Y-113222643D02*
X133833663Y-113049565D01*
X133833663Y-113049565D02*
X133797430Y-112868128D01*
X133797430Y-112868128D02*
X133763889Y-112698085D01*
X133763889Y-112698085D02*
X133730667Y-112527629D01*
X133730667Y-112527629D02*
X133692443Y-112328920D01*
X133692443Y-112328920D02*
X133659176Y-112153631D01*
X133659176Y-112153631D02*
X133626250Y-111977947D01*
X133626250Y-111977947D02*
X133593677Y-111801892D01*
X133593677Y-111801892D02*
X133560002Y-111617452D01*
X133560002Y-111617452D02*
X133528158Y-111440676D01*
X133528158Y-111440676D02*
X133490988Y-111231334D01*
X133490988Y-111231334D02*
X133457131Y-111037705D01*
X133457131Y-111037705D02*
X133420950Y-110827538D01*
X133420950Y-110827538D02*
X133390744Y-110649395D01*
X133390744Y-110649395D02*
X133360241Y-110466927D01*
X133360241Y-110466927D02*
X133331466Y-110292319D01*
X133331466Y-110292319D02*
X133301749Y-110109346D01*
X133301749Y-110109346D02*
X133273729Y-109934282D01*
X133273729Y-109934282D02*
X133242895Y-109738625D01*
X133242895Y-109738625D02*
X133213789Y-109550900D01*
X133213789Y-109550900D02*
X133186975Y-109375237D01*
X133186975Y-109375237D02*
X133160548Y-109199414D01*
X133160548Y-109199414D02*
X133128512Y-108982500D01*
X133128512Y-108982500D02*
X133102956Y-108806365D01*
X133102956Y-108806365D02*
X133076637Y-108621911D01*
X133076637Y-108621911D02*
X133051897Y-108445549D01*
X133051897Y-108445549D02*
X133027001Y-108264991D01*
X133027001Y-108264991D02*
X133002529Y-108084350D01*
X133002529Y-108084350D02*
X132977945Y-107899534D01*
X132977945Y-107899534D02*
X132952222Y-107702336D01*
X132952222Y-107702336D02*
X132929100Y-107521531D01*
X132929100Y-107521531D02*
X132906420Y-107340703D01*
X132906420Y-107340703D02*
X132884181Y-107159866D01*
X132884181Y-107159866D02*
X132862394Y-106979031D01*
X132862394Y-106979031D02*
X132840577Y-106794106D01*
X132840577Y-106794106D02*
X132815027Y-106572244D01*
X132815027Y-106572244D02*
X132794722Y-106391523D01*
X132794722Y-106391523D02*
X132774435Y-106206759D01*
X132774435Y-106206759D02*
X132753333Y-106009771D01*
X132753333Y-106009771D02*
X132732793Y-105812893D01*
X132732793Y-105812893D02*
X132712819Y-105616146D01*
X132712819Y-105616146D02*
X132694610Y-105431830D01*
X132694610Y-105431830D02*
X132676519Y-105243567D01*
X132676519Y-105243567D02*
X132659337Y-105059561D01*
X132659337Y-105059561D02*
X132641212Y-104859400D01*
X132641212Y-104859400D02*
X132624051Y-104663543D01*
X132624051Y-104663543D02*
X132607823Y-104471997D01*
X132607823Y-104471997D02*
X132591842Y-104276627D01*
X132591842Y-104276627D02*
X132576463Y-104081532D01*
X132576463Y-104081532D02*
X132561993Y-103890784D01*
X132561993Y-103890784D02*
X132547821Y-103696282D01*
X132547821Y-103696282D02*
X132533990Y-103498066D01*
X132533990Y-103498066D02*
X132521333Y-103308280D01*
X132521333Y-103308280D02*
X132509026Y-103114817D01*
X132509026Y-103114817D02*
X132496877Y-102913699D01*
X132496877Y-102913699D02*
X132485198Y-102709009D01*
X132485198Y-102709009D02*
X132474866Y-102516793D01*
X132474866Y-102516793D02*
X132465179Y-102325016D01*
X132465179Y-102325016D02*
X132456143Y-102133697D01*
X132456143Y-102133697D02*
X132447094Y-101926972D01*
X132447094Y-101926972D02*
X132439278Y-101732705D01*
X132439278Y-101732705D02*
X132431875Y-101531076D01*
X132431875Y-101531076D02*
X132425108Y-101326116D01*
X132425108Y-101326116D02*
X132419134Y-101121806D01*
X132419134Y-101121806D02*
X132413593Y-100902531D01*
X132413593Y-100902531D02*
X132409285Y-100699645D01*
X132409285Y-100699645D02*
X132405788Y-100497479D01*
X132405788Y-100497479D02*
X132403107Y-100296056D01*
X132403107Y-100296056D02*
X132401141Y-100080000D01*
X132401141Y-100080000D02*
X132400177Y-99880198D01*
X132400177Y-99880198D02*
X132400000Y-99750000D01*
X138900000Y-73250000D02*
X149900000Y-73250000D01*
M02*
