G04 #@! TF.GenerationSoftware,KiCad,Pcbnew,(6.0.2)*
G04 #@! TF.CreationDate,2022-02-18T17:05:13+01:00*
G04 #@! TF.ProjectId,nordic-switch,6e6f7264-6963-42d7-9377-697463682e6b,1.1*
G04 #@! TF.SameCoordinates,Original*
G04 #@! TF.FileFunction,Profile,NP*
%FSLAX46Y46*%
G04 Gerber Fmt 4.6, Leading zero omitted, Abs format (unit mm)*
G04 Created by KiCad (PCBNEW (6.0.2)) date 2022-02-18 17:05:13*
%MOMM*%
%LPD*%
G01*
G04 APERTURE LIST*
%ADD10C,0.200000*%
G04 APERTURE END LIST*
D10*
X138900000Y-126250000D02*
X138615005Y-126012019D01*
X138328118Y-125708245D01*
X138040056Y-125341449D01*
X137751536Y-124914403D01*
X137463277Y-124429880D01*
X137175995Y-123890650D01*
X136890407Y-123299487D01*
X136607232Y-122659162D01*
X136327187Y-121972447D01*
X136050988Y-121242114D01*
X135779354Y-120470936D01*
X135513002Y-119661683D01*
X135252650Y-118817129D01*
X134999014Y-117940045D01*
X134752812Y-117033202D01*
X134514762Y-116099375D01*
X134285581Y-115141333D01*
X134065986Y-114161849D01*
X133856696Y-113163695D01*
X133658426Y-112149644D01*
X133471896Y-111122467D01*
X133297821Y-110084936D01*
X133136920Y-109039822D01*
X132989910Y-107989900D01*
X132857509Y-106937939D01*
X132740434Y-105886712D01*
X132639401Y-104838991D01*
X132555130Y-103797549D01*
X132488336Y-102765156D01*
X132439739Y-101744586D01*
X132410054Y-100738610D01*
X132400000Y-99750000D01*
X156400000Y-99750000D02*
X156389945Y-100738610D01*
X156360260Y-101744586D01*
X156311663Y-102765156D01*
X156244869Y-103797549D01*
X156160598Y-104838991D01*
X156059565Y-105886712D01*
X155942490Y-106937939D01*
X155810089Y-107989900D01*
X155663079Y-109039822D01*
X155502178Y-110084936D01*
X155328103Y-111122467D01*
X155141573Y-112149644D01*
X154943303Y-113163695D01*
X154734013Y-114161849D01*
X154514418Y-115141333D01*
X154285237Y-116099375D01*
X154047187Y-117033202D01*
X153800985Y-117940045D01*
X153547349Y-118817129D01*
X153286997Y-119661683D01*
X153020645Y-120470936D01*
X152749011Y-121242114D01*
X152472812Y-121972447D01*
X152192767Y-122659162D01*
X151909592Y-123299487D01*
X151624004Y-123890650D01*
X151336722Y-124429880D01*
X151048463Y-124914403D01*
X150759943Y-125341449D01*
X150471881Y-125708245D01*
X150184994Y-126012019D01*
X149900000Y-126250000D01*
X149900000Y-126250000D02*
X138900000Y-126250000D01*
X149900000Y-73250000D02*
X150184994Y-73487980D01*
X150471881Y-73791754D01*
X150759943Y-74158550D01*
X151048463Y-74585596D01*
X151336722Y-75070119D01*
X151624004Y-75609349D01*
X151909592Y-76200512D01*
X152192767Y-76840837D01*
X152472812Y-77527552D01*
X152749011Y-78257885D01*
X153020645Y-79029063D01*
X153286997Y-79838316D01*
X153547349Y-80682870D01*
X153800985Y-81559954D01*
X154047187Y-82466797D01*
X154285237Y-83400625D01*
X154514418Y-84358666D01*
X154734013Y-85338150D01*
X154943303Y-86336304D01*
X155141573Y-87350355D01*
X155328103Y-88377532D01*
X155502178Y-89415063D01*
X155663079Y-90460177D01*
X155810089Y-91510100D01*
X155942490Y-92562060D01*
X156059565Y-93613287D01*
X156160598Y-94661008D01*
X156244869Y-95702450D01*
X156311663Y-96734843D01*
X156360260Y-97755413D01*
X156389945Y-98761389D01*
X156400000Y-99750000D01*
X132400000Y-99750000D02*
X132410054Y-98761389D01*
X132439739Y-97755413D01*
X132488336Y-96734843D01*
X132555130Y-95702450D01*
X132639401Y-94661008D01*
X132740434Y-93613287D01*
X132857509Y-92562060D01*
X132989910Y-91510100D01*
X133136920Y-90460177D01*
X133297821Y-89415063D01*
X133471896Y-88377532D01*
X133658426Y-87350355D01*
X133856696Y-86336304D01*
X134065986Y-85338150D01*
X134285581Y-84358666D01*
X134514762Y-83400625D01*
X134752812Y-82466797D01*
X134999014Y-81559954D01*
X135252650Y-80682870D01*
X135513002Y-79838316D01*
X135779354Y-79029063D01*
X136050988Y-78257885D01*
X136327187Y-77527552D01*
X136607232Y-76840837D01*
X136890407Y-76200512D01*
X137175995Y-75609349D01*
X137463277Y-75070119D01*
X137751536Y-74585596D01*
X138040056Y-74158550D01*
X138328118Y-73791754D01*
X138615005Y-73487980D01*
X138900000Y-73250000D01*
X138900000Y-73250000D02*
X149900000Y-73250000D01*
M02*
