G04 #@! TF.GenerationSoftware,KiCad,Pcbnew,5.1.5*
G04 #@! TF.CreationDate,2020-03-24T00:38:53+03:00*
G04 #@! TF.ProjectId,nordic-switch,6e6f7264-6963-42d7-9377-697463682e6b,1.0*
G04 #@! TF.SameCoordinates,Original*
G04 #@! TF.FileFunction,Soldermask,Top*
G04 #@! TF.FilePolarity,Negative*
%FSLAX46Y46*%
G04 Gerber Fmt 4.6, Leading zero omitted, Abs format (unit mm)*
G04 Created by KiCad (PCBNEW 5.1.5) date 2020-03-24 00:38:53*
%MOMM*%
%LPD*%
G04 APERTURE LIST*
%ADD10C,0.100000*%
G04 APERTURE END LIST*
D10*
G36*
X150098326Y-118927578D02*
G01*
X150098329Y-118927579D01*
X150098328Y-118927579D01*
X150471631Y-119082206D01*
X150807596Y-119306690D01*
X151093310Y-119592404D01*
X151317794Y-119928369D01*
X151317795Y-119928371D01*
X151472422Y-120301674D01*
X151551250Y-120697968D01*
X151551250Y-121102032D01*
X151472422Y-121498326D01*
X151472421Y-121498328D01*
X151317794Y-121871631D01*
X151093310Y-122207596D01*
X150807596Y-122493310D01*
X150471631Y-122717794D01*
X150471630Y-122717795D01*
X150471629Y-122717795D01*
X150098326Y-122872422D01*
X149702032Y-122951250D01*
X149297968Y-122951250D01*
X148901674Y-122872422D01*
X148528371Y-122717795D01*
X148528370Y-122717795D01*
X148528369Y-122717794D01*
X148192404Y-122493310D01*
X147906690Y-122207596D01*
X147682206Y-121871631D01*
X147527579Y-121498328D01*
X147527578Y-121498326D01*
X147448750Y-121102032D01*
X147448750Y-120697968D01*
X147527578Y-120301674D01*
X147682205Y-119928371D01*
X147682206Y-119928369D01*
X147906690Y-119592404D01*
X148192404Y-119306690D01*
X148528369Y-119082206D01*
X148901672Y-118927579D01*
X148901671Y-118927579D01*
X148901674Y-118927578D01*
X149297968Y-118848750D01*
X149702032Y-118848750D01*
X150098326Y-118927578D01*
G37*
G36*
X139898326Y-118927578D02*
G01*
X139898329Y-118927579D01*
X139898328Y-118927579D01*
X140271631Y-119082206D01*
X140607596Y-119306690D01*
X140893310Y-119592404D01*
X141117794Y-119928369D01*
X141117795Y-119928371D01*
X141272422Y-120301674D01*
X141351250Y-120697968D01*
X141351250Y-121102032D01*
X141272422Y-121498326D01*
X141272421Y-121498328D01*
X141117794Y-121871631D01*
X140893310Y-122207596D01*
X140607596Y-122493310D01*
X140271631Y-122717794D01*
X140271630Y-122717795D01*
X140271629Y-122717795D01*
X139898326Y-122872422D01*
X139502032Y-122951250D01*
X139097968Y-122951250D01*
X138701674Y-122872422D01*
X138328371Y-122717795D01*
X138328370Y-122717795D01*
X138328369Y-122717794D01*
X137992404Y-122493310D01*
X137706690Y-122207596D01*
X137482206Y-121871631D01*
X137327579Y-121498328D01*
X137327578Y-121498326D01*
X137248750Y-121102032D01*
X137248750Y-120697968D01*
X137327578Y-120301674D01*
X137482205Y-119928371D01*
X137482206Y-119928369D01*
X137706690Y-119592404D01*
X137992404Y-119306690D01*
X138328369Y-119082206D01*
X138701672Y-118927579D01*
X138701671Y-118927579D01*
X138701674Y-118927578D01*
X139097968Y-118848750D01*
X139502032Y-118848750D01*
X139898326Y-118927578D01*
G37*
G36*
X138601000Y-118001000D02*
G01*
X135799000Y-118001000D01*
X135799000Y-116399000D01*
X138601000Y-116399000D01*
X138601000Y-118001000D01*
G37*
G36*
X151616564Y-115369389D02*
G01*
X151720911Y-115412611D01*
X151807835Y-115448616D01*
X151979973Y-115563635D01*
X152126365Y-115710027D01*
X152241385Y-115882167D01*
X152320611Y-116073436D01*
X152361000Y-116276484D01*
X152361000Y-116483516D01*
X152320611Y-116686564D01*
X152309620Y-116713098D01*
X152241384Y-116877835D01*
X152126365Y-117049973D01*
X151979973Y-117196365D01*
X151807835Y-117311384D01*
X151807834Y-117311385D01*
X151807833Y-117311385D01*
X151616564Y-117390611D01*
X151413516Y-117431000D01*
X151206484Y-117431000D01*
X151003436Y-117390611D01*
X150812167Y-117311385D01*
X150812166Y-117311385D01*
X150812165Y-117311384D01*
X150640027Y-117196365D01*
X150493635Y-117049973D01*
X150378616Y-116877835D01*
X150310380Y-116713098D01*
X150299389Y-116686564D01*
X150259000Y-116483516D01*
X150259000Y-116276484D01*
X150299389Y-116073436D01*
X150378615Y-115882167D01*
X150493635Y-115710027D01*
X150640027Y-115563635D01*
X150812165Y-115448616D01*
X150899089Y-115412611D01*
X151003436Y-115369389D01*
X151206484Y-115329000D01*
X151413516Y-115329000D01*
X151616564Y-115369389D01*
G37*
G36*
X144775256Y-113641298D02*
G01*
X144881579Y-113662447D01*
X145182042Y-113786903D01*
X145452451Y-113967585D01*
X145682415Y-114197549D01*
X145863097Y-114467958D01*
X145987553Y-114768421D01*
X146051000Y-115087391D01*
X146051000Y-115412609D01*
X145987553Y-115731579D01*
X145863097Y-116032042D01*
X145682415Y-116302451D01*
X145452451Y-116532415D01*
X145182042Y-116713097D01*
X144881579Y-116837553D01*
X144775256Y-116858702D01*
X144562611Y-116901000D01*
X144237389Y-116901000D01*
X144024744Y-116858702D01*
X143918421Y-116837553D01*
X143617958Y-116713097D01*
X143347549Y-116532415D01*
X143117585Y-116302451D01*
X142936903Y-116032042D01*
X142812447Y-115731579D01*
X142749000Y-115412609D01*
X142749000Y-115087391D01*
X142812447Y-114768421D01*
X142936903Y-114467958D01*
X143117585Y-114197549D01*
X143347549Y-113967585D01*
X143617958Y-113786903D01*
X143918421Y-113662447D01*
X144024744Y-113641298D01*
X144237389Y-113599000D01*
X144562611Y-113599000D01*
X144775256Y-113641298D01*
G37*
G36*
X138601000Y-113201000D02*
G01*
X135799000Y-113201000D01*
X135799000Y-111599000D01*
X138601000Y-111599000D01*
X138601000Y-113201000D01*
G37*
G36*
X151606564Y-110289389D02*
G01*
X151797833Y-110368615D01*
X151797835Y-110368616D01*
X151846301Y-110401000D01*
X151969973Y-110483635D01*
X152116365Y-110630027D01*
X152231385Y-110802167D01*
X152310611Y-110993436D01*
X152351000Y-111196484D01*
X152351000Y-111403516D01*
X152310611Y-111606564D01*
X152231385Y-111797833D01*
X152231384Y-111797835D01*
X152116365Y-111969973D01*
X151969973Y-112116365D01*
X151797835Y-112231384D01*
X151797834Y-112231385D01*
X151797833Y-112231385D01*
X151606564Y-112310611D01*
X151403516Y-112351000D01*
X151196484Y-112351000D01*
X150993436Y-112310611D01*
X150802167Y-112231385D01*
X150802166Y-112231385D01*
X150802165Y-112231384D01*
X150630027Y-112116365D01*
X150483635Y-111969973D01*
X150368616Y-111797835D01*
X150368615Y-111797833D01*
X150289389Y-111606564D01*
X150249000Y-111403516D01*
X150249000Y-111196484D01*
X150289389Y-110993436D01*
X150368615Y-110802167D01*
X150483635Y-110630027D01*
X150630027Y-110483635D01*
X150753699Y-110401000D01*
X150802165Y-110368616D01*
X150802167Y-110368615D01*
X150993436Y-110289389D01*
X151196484Y-110249000D01*
X151403516Y-110249000D01*
X151606564Y-110289389D01*
G37*
G36*
X142001000Y-110401000D02*
G01*
X140399000Y-110401000D01*
X140399000Y-107599000D01*
X142001000Y-107599000D01*
X142001000Y-110401000D01*
G37*
G36*
X137201000Y-110401000D02*
G01*
X135599000Y-110401000D01*
X135599000Y-107599000D01*
X137201000Y-107599000D01*
X137201000Y-110401000D01*
G37*
G36*
X145541132Y-105977810D02*
G01*
X145572423Y-105987302D01*
X145601263Y-106002717D01*
X145626539Y-106023461D01*
X145647283Y-106048737D01*
X145662698Y-106077577D01*
X145672190Y-106108868D01*
X145676000Y-106147551D01*
X145676000Y-108452449D01*
X145672190Y-108491132D01*
X145662698Y-108522423D01*
X145647283Y-108551263D01*
X145626539Y-108576539D01*
X145601263Y-108597283D01*
X145572423Y-108612698D01*
X145541132Y-108622190D01*
X145502449Y-108626000D01*
X143672551Y-108626000D01*
X143633868Y-108622190D01*
X143602577Y-108612698D01*
X143573737Y-108597283D01*
X143548461Y-108576539D01*
X143527717Y-108551263D01*
X143512302Y-108522423D01*
X143502810Y-108491132D01*
X143499000Y-108452449D01*
X143499000Y-106147551D01*
X143502810Y-106108868D01*
X143512302Y-106077577D01*
X143527717Y-106048737D01*
X143548461Y-106023461D01*
X143573737Y-106002717D01*
X143602577Y-105987302D01*
X143633868Y-105977810D01*
X143672551Y-105974000D01*
X145502449Y-105974000D01*
X145541132Y-105977810D01*
G37*
G36*
X151766132Y-105977810D02*
G01*
X151797423Y-105987302D01*
X151826263Y-106002717D01*
X151851539Y-106023461D01*
X151872283Y-106048737D01*
X151887698Y-106077577D01*
X151897190Y-106108868D01*
X151901000Y-106147551D01*
X151901000Y-108452449D01*
X151897190Y-108491132D01*
X151887698Y-108522423D01*
X151872283Y-108551263D01*
X151851539Y-108576539D01*
X151826263Y-108597283D01*
X151797423Y-108612698D01*
X151766132Y-108622190D01*
X151727449Y-108626000D01*
X149897551Y-108626000D01*
X149858868Y-108622190D01*
X149827577Y-108612698D01*
X149798737Y-108597283D01*
X149773461Y-108576539D01*
X149752717Y-108551263D01*
X149737302Y-108522423D01*
X149727810Y-108491132D01*
X149724000Y-108452449D01*
X149724000Y-106147551D01*
X149727810Y-106108868D01*
X149737302Y-106077577D01*
X149752717Y-106048737D01*
X149773461Y-106023461D01*
X149798737Y-106002717D01*
X149827577Y-105987302D01*
X149858868Y-105977810D01*
X149897551Y-105974000D01*
X151727449Y-105974000D01*
X151766132Y-105977810D01*
G37*
G36*
X134557023Y-106010590D02*
G01*
X134657682Y-106041125D01*
X134708013Y-106056392D01*
X134847165Y-106130771D01*
X134969133Y-106230867D01*
X135069229Y-106352835D01*
X135143608Y-106491987D01*
X135143608Y-106491988D01*
X135189410Y-106642977D01*
X135201000Y-106760655D01*
X135201000Y-107839345D01*
X135189410Y-107957023D01*
X135158875Y-108057682D01*
X135143608Y-108108013D01*
X135069230Y-108247164D01*
X135069229Y-108247165D01*
X134969133Y-108369133D01*
X134867611Y-108452449D01*
X134847164Y-108469229D01*
X134708012Y-108543608D01*
X134682776Y-108551263D01*
X134557022Y-108589410D01*
X134400000Y-108604875D01*
X134242977Y-108589410D01*
X134117223Y-108551263D01*
X134091987Y-108543608D01*
X133952835Y-108469229D01*
X133946567Y-108464085D01*
X133830867Y-108369133D01*
X133730771Y-108247164D01*
X133656393Y-108108013D01*
X133656392Y-108108012D01*
X133641125Y-108057681D01*
X133610590Y-107957022D01*
X133599000Y-107839344D01*
X133599001Y-106760655D01*
X133610591Y-106642977D01*
X133656393Y-106491988D01*
X133656393Y-106491987D01*
X133730772Y-106352835D01*
X133830868Y-106230867D01*
X133952836Y-106130771D01*
X134091988Y-106056392D01*
X134142319Y-106041125D01*
X134242978Y-106010590D01*
X134400000Y-105995125D01*
X134557023Y-106010590D01*
G37*
G36*
X154657023Y-106010590D02*
G01*
X154757682Y-106041125D01*
X154808013Y-106056392D01*
X154947165Y-106130771D01*
X155069133Y-106230867D01*
X155169229Y-106352835D01*
X155243608Y-106491987D01*
X155243608Y-106491988D01*
X155289410Y-106642977D01*
X155301000Y-106760655D01*
X155301000Y-107839345D01*
X155289410Y-107957023D01*
X155258875Y-108057682D01*
X155243608Y-108108013D01*
X155169230Y-108247164D01*
X155169229Y-108247165D01*
X155069133Y-108369133D01*
X154967611Y-108452449D01*
X154947164Y-108469229D01*
X154808012Y-108543608D01*
X154782776Y-108551263D01*
X154657022Y-108589410D01*
X154500000Y-108604875D01*
X154342977Y-108589410D01*
X154217223Y-108551263D01*
X154191987Y-108543608D01*
X154052835Y-108469229D01*
X154046567Y-108464085D01*
X153930867Y-108369133D01*
X153830771Y-108247164D01*
X153756393Y-108108013D01*
X153756392Y-108108012D01*
X153741125Y-108057681D01*
X153710590Y-107957022D01*
X153699000Y-107839344D01*
X153699001Y-106760655D01*
X153710591Y-106642977D01*
X153756393Y-106491988D01*
X153756393Y-106491987D01*
X153830772Y-106352835D01*
X153930868Y-106230867D01*
X154052836Y-106130771D01*
X154191988Y-106056392D01*
X154242319Y-106041125D01*
X154342978Y-106010590D01*
X154500000Y-105995125D01*
X154657023Y-106010590D01*
G37*
G36*
X140442091Y-104778085D02*
G01*
X140476069Y-104788393D01*
X140507390Y-104805134D01*
X140534839Y-104827661D01*
X140557366Y-104855110D01*
X140574107Y-104886431D01*
X140584415Y-104920409D01*
X140588500Y-104961890D01*
X140588500Y-105638110D01*
X140584415Y-105679591D01*
X140574107Y-105713569D01*
X140557366Y-105744890D01*
X140534839Y-105772339D01*
X140507390Y-105794866D01*
X140476069Y-105811607D01*
X140442091Y-105821915D01*
X140400610Y-105826000D01*
X139799390Y-105826000D01*
X139757909Y-105821915D01*
X139723931Y-105811607D01*
X139692610Y-105794866D01*
X139665161Y-105772339D01*
X139642634Y-105744890D01*
X139625893Y-105713569D01*
X139615585Y-105679591D01*
X139611500Y-105638110D01*
X139611500Y-104961890D01*
X139615585Y-104920409D01*
X139625893Y-104886431D01*
X139642634Y-104855110D01*
X139665161Y-104827661D01*
X139692610Y-104805134D01*
X139723931Y-104788393D01*
X139757909Y-104778085D01*
X139799390Y-104774000D01*
X140400610Y-104774000D01*
X140442091Y-104778085D01*
G37*
G36*
X138867091Y-104778085D02*
G01*
X138901069Y-104788393D01*
X138932390Y-104805134D01*
X138959839Y-104827661D01*
X138982366Y-104855110D01*
X138999107Y-104886431D01*
X139009415Y-104920409D01*
X139013500Y-104961890D01*
X139013500Y-105638110D01*
X139009415Y-105679591D01*
X138999107Y-105713569D01*
X138982366Y-105744890D01*
X138959839Y-105772339D01*
X138932390Y-105794866D01*
X138901069Y-105811607D01*
X138867091Y-105821915D01*
X138825610Y-105826000D01*
X138224390Y-105826000D01*
X138182909Y-105821915D01*
X138148931Y-105811607D01*
X138117610Y-105794866D01*
X138090161Y-105772339D01*
X138067634Y-105744890D01*
X138050893Y-105713569D01*
X138040585Y-105679591D01*
X138036500Y-105638110D01*
X138036500Y-104961890D01*
X138040585Y-104920409D01*
X138050893Y-104886431D01*
X138067634Y-104855110D01*
X138090161Y-104827661D01*
X138117610Y-104805134D01*
X138148931Y-104788393D01*
X138182909Y-104778085D01*
X138224390Y-104774000D01*
X138825610Y-104774000D01*
X138867091Y-104778085D01*
G37*
G36*
X135471968Y-103553565D02*
G01*
X135510638Y-103565296D01*
X135546277Y-103584346D01*
X135577517Y-103609983D01*
X135603154Y-103641223D01*
X135622204Y-103676862D01*
X135633935Y-103715532D01*
X135638500Y-103761888D01*
X135638500Y-104838112D01*
X135633935Y-104884468D01*
X135622204Y-104923138D01*
X135603154Y-104958777D01*
X135577517Y-104990017D01*
X135546277Y-105015654D01*
X135510638Y-105034704D01*
X135471968Y-105046435D01*
X135425612Y-105051000D01*
X134774388Y-105051000D01*
X134728032Y-105046435D01*
X134689362Y-105034704D01*
X134653723Y-105015654D01*
X134622483Y-104990017D01*
X134596846Y-104958777D01*
X134577796Y-104923138D01*
X134566065Y-104884468D01*
X134561500Y-104838112D01*
X134561500Y-103761888D01*
X134566065Y-103715532D01*
X134577796Y-103676862D01*
X134596846Y-103641223D01*
X134622483Y-103609983D01*
X134653723Y-103584346D01*
X134689362Y-103565296D01*
X134728032Y-103553565D01*
X134774388Y-103549000D01*
X135425612Y-103549000D01*
X135471968Y-103553565D01*
G37*
G36*
X137346968Y-103553565D02*
G01*
X137385638Y-103565296D01*
X137421277Y-103584346D01*
X137452517Y-103609983D01*
X137478154Y-103641223D01*
X137497204Y-103676862D01*
X137508935Y-103715532D01*
X137513500Y-103761888D01*
X137513500Y-104838112D01*
X137508935Y-104884468D01*
X137497204Y-104923138D01*
X137478154Y-104958777D01*
X137452517Y-104990017D01*
X137421277Y-105015654D01*
X137385638Y-105034704D01*
X137346968Y-105046435D01*
X137300612Y-105051000D01*
X136649388Y-105051000D01*
X136603032Y-105046435D01*
X136564362Y-105034704D01*
X136528723Y-105015654D01*
X136497483Y-104990017D01*
X136471846Y-104958777D01*
X136452796Y-104923138D01*
X136441065Y-104884468D01*
X136436500Y-104838112D01*
X136436500Y-103761888D01*
X136441065Y-103715532D01*
X136452796Y-103676862D01*
X136471846Y-103641223D01*
X136497483Y-103609983D01*
X136528723Y-103584346D01*
X136564362Y-103565296D01*
X136603032Y-103553565D01*
X136649388Y-103549000D01*
X137300612Y-103549000D01*
X137346968Y-103553565D01*
G37*
G36*
X149868604Y-103228347D02*
G01*
X149905144Y-103239432D01*
X149938821Y-103257433D01*
X149968341Y-103281659D01*
X149992567Y-103311179D01*
X150010568Y-103344856D01*
X150021653Y-103381396D01*
X150026000Y-103425538D01*
X150026000Y-104374462D01*
X150021653Y-104418604D01*
X150010568Y-104455144D01*
X149992567Y-104488821D01*
X149968341Y-104518341D01*
X149938821Y-104542567D01*
X149905144Y-104560568D01*
X149868604Y-104571653D01*
X149824462Y-104576000D01*
X148375538Y-104576000D01*
X148331396Y-104571653D01*
X148294856Y-104560568D01*
X148261179Y-104542567D01*
X148231659Y-104518341D01*
X148207433Y-104488821D01*
X148189432Y-104455144D01*
X148178347Y-104418604D01*
X148174000Y-104374462D01*
X148174000Y-103425538D01*
X148178347Y-103381396D01*
X148189432Y-103344856D01*
X148207433Y-103311179D01*
X148231659Y-103281659D01*
X148261179Y-103257433D01*
X148294856Y-103239432D01*
X148331396Y-103228347D01*
X148375538Y-103224000D01*
X149824462Y-103224000D01*
X149868604Y-103228347D01*
G37*
G36*
X142851000Y-104556000D02*
G01*
X141449000Y-104556000D01*
X141449000Y-102904000D01*
X142851000Y-102904000D01*
X142851000Y-104556000D01*
G37*
G36*
X147351000Y-104556000D02*
G01*
X145949000Y-104556000D01*
X145949000Y-102904000D01*
X147351000Y-102904000D01*
X147351000Y-104556000D01*
G37*
G36*
X133979591Y-103190585D02*
G01*
X134013569Y-103200893D01*
X134044890Y-103217634D01*
X134072339Y-103240161D01*
X134094866Y-103267610D01*
X134111607Y-103298931D01*
X134121915Y-103332909D01*
X134126000Y-103374390D01*
X134126000Y-103975610D01*
X134121915Y-104017091D01*
X134111607Y-104051069D01*
X134094866Y-104082390D01*
X134072339Y-104109839D01*
X134044890Y-104132366D01*
X134013569Y-104149107D01*
X133979591Y-104159415D01*
X133938110Y-104163500D01*
X133261890Y-104163500D01*
X133220409Y-104159415D01*
X133186431Y-104149107D01*
X133155110Y-104132366D01*
X133127661Y-104109839D01*
X133105134Y-104082390D01*
X133088393Y-104051069D01*
X133078085Y-104017091D01*
X133074000Y-103975610D01*
X133074000Y-103374390D01*
X133078085Y-103332909D01*
X133088393Y-103298931D01*
X133105134Y-103267610D01*
X133127661Y-103240161D01*
X133155110Y-103217634D01*
X133186431Y-103200893D01*
X133220409Y-103190585D01*
X133261890Y-103186500D01*
X133938110Y-103186500D01*
X133979591Y-103190585D01*
G37*
G36*
X138879591Y-103190585D02*
G01*
X138913569Y-103200893D01*
X138944890Y-103217634D01*
X138972339Y-103240161D01*
X138994866Y-103267610D01*
X139011607Y-103298931D01*
X139021915Y-103332909D01*
X139026000Y-103374390D01*
X139026000Y-103975610D01*
X139021915Y-104017091D01*
X139011607Y-104051069D01*
X138994866Y-104082390D01*
X138972339Y-104109839D01*
X138944890Y-104132366D01*
X138913569Y-104149107D01*
X138879591Y-104159415D01*
X138838110Y-104163500D01*
X138161890Y-104163500D01*
X138120409Y-104159415D01*
X138086431Y-104149107D01*
X138055110Y-104132366D01*
X138027661Y-104109839D01*
X138005134Y-104082390D01*
X137988393Y-104051069D01*
X137978085Y-104017091D01*
X137974000Y-103975610D01*
X137974000Y-103374390D01*
X137978085Y-103332909D01*
X137988393Y-103298931D01*
X138005134Y-103267610D01*
X138027661Y-103240161D01*
X138055110Y-103217634D01*
X138086431Y-103200893D01*
X138120409Y-103190585D01*
X138161890Y-103186500D01*
X138838110Y-103186500D01*
X138879591Y-103190585D01*
G37*
G36*
X140479591Y-103190585D02*
G01*
X140513569Y-103200893D01*
X140544890Y-103217634D01*
X140572339Y-103240161D01*
X140594866Y-103267610D01*
X140611607Y-103298931D01*
X140621915Y-103332909D01*
X140626000Y-103374390D01*
X140626000Y-103975610D01*
X140621915Y-104017091D01*
X140611607Y-104051069D01*
X140594866Y-104082390D01*
X140572339Y-104109839D01*
X140544890Y-104132366D01*
X140513569Y-104149107D01*
X140479591Y-104159415D01*
X140438110Y-104163500D01*
X139761890Y-104163500D01*
X139720409Y-104159415D01*
X139686431Y-104149107D01*
X139655110Y-104132366D01*
X139627661Y-104109839D01*
X139605134Y-104082390D01*
X139588393Y-104051069D01*
X139578085Y-104017091D01*
X139574000Y-103975610D01*
X139574000Y-103374390D01*
X139578085Y-103332909D01*
X139588393Y-103298931D01*
X139605134Y-103267610D01*
X139627661Y-103240161D01*
X139655110Y-103217634D01*
X139686431Y-103200893D01*
X139720409Y-103190585D01*
X139761890Y-103186500D01*
X140438110Y-103186500D01*
X140479591Y-103190585D01*
G37*
G36*
X137217091Y-101978085D02*
G01*
X137251069Y-101988393D01*
X137282390Y-102005134D01*
X137309839Y-102027661D01*
X137332366Y-102055110D01*
X137349107Y-102086431D01*
X137359415Y-102120409D01*
X137363500Y-102161890D01*
X137363500Y-102838110D01*
X137359415Y-102879591D01*
X137349107Y-102913569D01*
X137332366Y-102944890D01*
X137309839Y-102972339D01*
X137282390Y-102994866D01*
X137251069Y-103011607D01*
X137217091Y-103021915D01*
X137175610Y-103026000D01*
X136574390Y-103026000D01*
X136532909Y-103021915D01*
X136498931Y-103011607D01*
X136467610Y-102994866D01*
X136440161Y-102972339D01*
X136417634Y-102944890D01*
X136400893Y-102913569D01*
X136390585Y-102879591D01*
X136386500Y-102838110D01*
X136386500Y-102161890D01*
X136390585Y-102120409D01*
X136400893Y-102086431D01*
X136417634Y-102055110D01*
X136440161Y-102027661D01*
X136467610Y-102005134D01*
X136498931Y-101988393D01*
X136532909Y-101978085D01*
X136574390Y-101974000D01*
X137175610Y-101974000D01*
X137217091Y-101978085D01*
G37*
G36*
X135642091Y-101978085D02*
G01*
X135676069Y-101988393D01*
X135707390Y-102005134D01*
X135734839Y-102027661D01*
X135757366Y-102055110D01*
X135774107Y-102086431D01*
X135784415Y-102120409D01*
X135788500Y-102161890D01*
X135788500Y-102838110D01*
X135784415Y-102879591D01*
X135774107Y-102913569D01*
X135757366Y-102944890D01*
X135734839Y-102972339D01*
X135707390Y-102994866D01*
X135676069Y-103011607D01*
X135642091Y-103021915D01*
X135600610Y-103026000D01*
X134999390Y-103026000D01*
X134957909Y-103021915D01*
X134923931Y-103011607D01*
X134892610Y-102994866D01*
X134865161Y-102972339D01*
X134842634Y-102944890D01*
X134825893Y-102913569D01*
X134815585Y-102879591D01*
X134811500Y-102838110D01*
X134811500Y-102161890D01*
X134815585Y-102120409D01*
X134825893Y-102086431D01*
X134842634Y-102055110D01*
X134865161Y-102027661D01*
X134892610Y-102005134D01*
X134923931Y-101988393D01*
X134957909Y-101978085D01*
X134999390Y-101974000D01*
X135600610Y-101974000D01*
X135642091Y-101978085D01*
G37*
G36*
X140479591Y-101615585D02*
G01*
X140513569Y-101625893D01*
X140544890Y-101642634D01*
X140572339Y-101665161D01*
X140594866Y-101692610D01*
X140611607Y-101723931D01*
X140621915Y-101757909D01*
X140626000Y-101799390D01*
X140626000Y-102400610D01*
X140621915Y-102442091D01*
X140611607Y-102476069D01*
X140594866Y-102507390D01*
X140572339Y-102534839D01*
X140544890Y-102557366D01*
X140513569Y-102574107D01*
X140479591Y-102584415D01*
X140438110Y-102588500D01*
X139761890Y-102588500D01*
X139720409Y-102584415D01*
X139686431Y-102574107D01*
X139655110Y-102557366D01*
X139627661Y-102534839D01*
X139605134Y-102507390D01*
X139588393Y-102476069D01*
X139578085Y-102442091D01*
X139574000Y-102400610D01*
X139574000Y-101799390D01*
X139578085Y-101757909D01*
X139588393Y-101723931D01*
X139605134Y-101692610D01*
X139627661Y-101665161D01*
X139655110Y-101642634D01*
X139686431Y-101625893D01*
X139720409Y-101615585D01*
X139761890Y-101611500D01*
X140438110Y-101611500D01*
X140479591Y-101615585D01*
G37*
G36*
X133979591Y-101615585D02*
G01*
X134013569Y-101625893D01*
X134044890Y-101642634D01*
X134072339Y-101665161D01*
X134094866Y-101692610D01*
X134111607Y-101723931D01*
X134121915Y-101757909D01*
X134126000Y-101799390D01*
X134126000Y-102400610D01*
X134121915Y-102442091D01*
X134111607Y-102476069D01*
X134094866Y-102507390D01*
X134072339Y-102534839D01*
X134044890Y-102557366D01*
X134013569Y-102574107D01*
X133979591Y-102584415D01*
X133938110Y-102588500D01*
X133261890Y-102588500D01*
X133220409Y-102584415D01*
X133186431Y-102574107D01*
X133155110Y-102557366D01*
X133127661Y-102534839D01*
X133105134Y-102507390D01*
X133088393Y-102476069D01*
X133078085Y-102442091D01*
X133074000Y-102400610D01*
X133074000Y-101799390D01*
X133078085Y-101757909D01*
X133088393Y-101723931D01*
X133105134Y-101692610D01*
X133127661Y-101665161D01*
X133155110Y-101642634D01*
X133186431Y-101625893D01*
X133220409Y-101615585D01*
X133261890Y-101611500D01*
X133938110Y-101611500D01*
X133979591Y-101615585D01*
G37*
G36*
X138879591Y-101615585D02*
G01*
X138913569Y-101625893D01*
X138944890Y-101642634D01*
X138972339Y-101665161D01*
X138994866Y-101692610D01*
X139011607Y-101723931D01*
X139021915Y-101757909D01*
X139026000Y-101799390D01*
X139026000Y-102400610D01*
X139021915Y-102442091D01*
X139011607Y-102476069D01*
X138994866Y-102507390D01*
X138972339Y-102534839D01*
X138944890Y-102557366D01*
X138913569Y-102574107D01*
X138879591Y-102584415D01*
X138838110Y-102588500D01*
X138161890Y-102588500D01*
X138120409Y-102584415D01*
X138086431Y-102574107D01*
X138055110Y-102557366D01*
X138027661Y-102534839D01*
X138005134Y-102507390D01*
X137988393Y-102476069D01*
X137978085Y-102442091D01*
X137974000Y-102400610D01*
X137974000Y-101799390D01*
X137978085Y-101757909D01*
X137988393Y-101723931D01*
X138005134Y-101692610D01*
X138027661Y-101665161D01*
X138055110Y-101642634D01*
X138086431Y-101625893D01*
X138120409Y-101615585D01*
X138161890Y-101611500D01*
X138838110Y-101611500D01*
X138879591Y-101615585D01*
G37*
G36*
X149868604Y-100428347D02*
G01*
X149905144Y-100439432D01*
X149938821Y-100457433D01*
X149968341Y-100481659D01*
X149992567Y-100511179D01*
X150010568Y-100544856D01*
X150021653Y-100581396D01*
X150026000Y-100625538D01*
X150026000Y-101574462D01*
X150021653Y-101618604D01*
X150010568Y-101655144D01*
X149992567Y-101688821D01*
X149968341Y-101718341D01*
X149938821Y-101742567D01*
X149905144Y-101760568D01*
X149868604Y-101771653D01*
X149824462Y-101776000D01*
X148375538Y-101776000D01*
X148331396Y-101771653D01*
X148294856Y-101760568D01*
X148261179Y-101742567D01*
X148231659Y-101718341D01*
X148207433Y-101688821D01*
X148189432Y-101655144D01*
X148178347Y-101618604D01*
X148174000Y-101574462D01*
X148174000Y-100625538D01*
X148178347Y-100581396D01*
X148189432Y-100544856D01*
X148207433Y-100511179D01*
X148231659Y-100481659D01*
X148261179Y-100457433D01*
X148294856Y-100439432D01*
X148331396Y-100428347D01*
X148375538Y-100424000D01*
X149824462Y-100424000D01*
X149868604Y-100428347D01*
G37*
G36*
X135240416Y-94299843D02*
G01*
X135244556Y-94301099D01*
X135263716Y-94309035D01*
X135287750Y-94313815D01*
X135312254Y-94313815D01*
X135336287Y-94309034D01*
X135355445Y-94301099D01*
X135359584Y-94299843D01*
X135368143Y-94299000D01*
X135631857Y-94299000D01*
X135640416Y-94299843D01*
X135644556Y-94301099D01*
X135663716Y-94309035D01*
X135687750Y-94313815D01*
X135712254Y-94313815D01*
X135736287Y-94309034D01*
X135755445Y-94301099D01*
X135759584Y-94299843D01*
X135768143Y-94299000D01*
X136031857Y-94299000D01*
X136040416Y-94299843D01*
X136044556Y-94301099D01*
X136063716Y-94309035D01*
X136087750Y-94313815D01*
X136112254Y-94313815D01*
X136136287Y-94309034D01*
X136155445Y-94301099D01*
X136159584Y-94299843D01*
X136168143Y-94299000D01*
X136431857Y-94299000D01*
X136440416Y-94299843D01*
X136444556Y-94301099D01*
X136463716Y-94309035D01*
X136487750Y-94313815D01*
X136512254Y-94313815D01*
X136536287Y-94309034D01*
X136555445Y-94301099D01*
X136559584Y-94299843D01*
X136568143Y-94299000D01*
X136831857Y-94299000D01*
X136840416Y-94299843D01*
X136844556Y-94301099D01*
X136863716Y-94309035D01*
X136887750Y-94313815D01*
X136912254Y-94313815D01*
X136936287Y-94309034D01*
X136955445Y-94301099D01*
X136959584Y-94299843D01*
X136968143Y-94299000D01*
X137231857Y-94299000D01*
X137240416Y-94299843D01*
X137244556Y-94301099D01*
X137263716Y-94309035D01*
X137287750Y-94313815D01*
X137312254Y-94313815D01*
X137336287Y-94309034D01*
X137355445Y-94301099D01*
X137359584Y-94299843D01*
X137368143Y-94299000D01*
X137631857Y-94299000D01*
X137640416Y-94299843D01*
X137644556Y-94301099D01*
X137663716Y-94309035D01*
X137687750Y-94313815D01*
X137712254Y-94313815D01*
X137736287Y-94309034D01*
X137755445Y-94301099D01*
X137759584Y-94299843D01*
X137768143Y-94299000D01*
X138031857Y-94299000D01*
X138040416Y-94299843D01*
X138044556Y-94301099D01*
X138063716Y-94309035D01*
X138087750Y-94313815D01*
X138112254Y-94313815D01*
X138136287Y-94309034D01*
X138155445Y-94301099D01*
X138159584Y-94299843D01*
X138168143Y-94299000D01*
X138431857Y-94299000D01*
X138440416Y-94299843D01*
X138444556Y-94301099D01*
X138463716Y-94309035D01*
X138487750Y-94313815D01*
X138512254Y-94313815D01*
X138536287Y-94309034D01*
X138555445Y-94301099D01*
X138559584Y-94299843D01*
X138568143Y-94299000D01*
X138831857Y-94299000D01*
X138840416Y-94299843D01*
X138844556Y-94301099D01*
X138863716Y-94309035D01*
X138887750Y-94313815D01*
X138912254Y-94313815D01*
X138936287Y-94309034D01*
X138955445Y-94301099D01*
X138959584Y-94299843D01*
X138968143Y-94299000D01*
X139231857Y-94299000D01*
X139240416Y-94299843D01*
X139244556Y-94301099D01*
X139263716Y-94309035D01*
X139287750Y-94313815D01*
X139312254Y-94313815D01*
X139336287Y-94309034D01*
X139355445Y-94301099D01*
X139359584Y-94299843D01*
X139368143Y-94299000D01*
X139631857Y-94299000D01*
X139640416Y-94299843D01*
X139642745Y-94300550D01*
X139644887Y-94301695D01*
X139646765Y-94303235D01*
X139648305Y-94305113D01*
X139649450Y-94307255D01*
X139650157Y-94309584D01*
X139651000Y-94318143D01*
X139651000Y-95181857D01*
X139650157Y-95190416D01*
X139648622Y-95195476D01*
X139643842Y-95219509D01*
X139643842Y-95244013D01*
X139648623Y-95268047D01*
X139658000Y-95290685D01*
X139671614Y-95311060D01*
X139688941Y-95328387D01*
X139709315Y-95342000D01*
X139731954Y-95351378D01*
X139755987Y-95356158D01*
X139780491Y-95356158D01*
X139804524Y-95351378D01*
X139809584Y-95349843D01*
X139818143Y-95349000D01*
X140681857Y-95349000D01*
X140690416Y-95349843D01*
X140692745Y-95350550D01*
X140694887Y-95351695D01*
X140696765Y-95353235D01*
X140698305Y-95355113D01*
X140699450Y-95357255D01*
X140700157Y-95359584D01*
X140701000Y-95368143D01*
X140701000Y-95631857D01*
X140700157Y-95640416D01*
X140698901Y-95644556D01*
X140690965Y-95663716D01*
X140686185Y-95687750D01*
X140686185Y-95712254D01*
X140690966Y-95736287D01*
X140698901Y-95755445D01*
X140700157Y-95759584D01*
X140701000Y-95768143D01*
X140701000Y-96031857D01*
X140700157Y-96040416D01*
X140698901Y-96044556D01*
X140690965Y-96063716D01*
X140686185Y-96087750D01*
X140686185Y-96112254D01*
X140690966Y-96136287D01*
X140698901Y-96155445D01*
X140700157Y-96159584D01*
X140701000Y-96168143D01*
X140701000Y-96431857D01*
X140700157Y-96440416D01*
X140698901Y-96444556D01*
X140690965Y-96463716D01*
X140686185Y-96487750D01*
X140686185Y-96512254D01*
X140690966Y-96536287D01*
X140698901Y-96555445D01*
X140700157Y-96559584D01*
X140701000Y-96568143D01*
X140701000Y-96831857D01*
X140700157Y-96840416D01*
X140698901Y-96844556D01*
X140690965Y-96863716D01*
X140686185Y-96887750D01*
X140686185Y-96912254D01*
X140690966Y-96936287D01*
X140698901Y-96955445D01*
X140700157Y-96959584D01*
X140701000Y-96968143D01*
X140701000Y-97231857D01*
X140700157Y-97240416D01*
X140698901Y-97244556D01*
X140690965Y-97263716D01*
X140686185Y-97287750D01*
X140686185Y-97312254D01*
X140690966Y-97336287D01*
X140698901Y-97355445D01*
X140700157Y-97359584D01*
X140701000Y-97368143D01*
X140701000Y-97631857D01*
X140700157Y-97640416D01*
X140698901Y-97644556D01*
X140690965Y-97663716D01*
X140686185Y-97687750D01*
X140686185Y-97712254D01*
X140690966Y-97736287D01*
X140698901Y-97755445D01*
X140700157Y-97759584D01*
X140701000Y-97768143D01*
X140701000Y-98031857D01*
X140700157Y-98040416D01*
X140698901Y-98044556D01*
X140690965Y-98063716D01*
X140686185Y-98087750D01*
X140686185Y-98112254D01*
X140690966Y-98136287D01*
X140698901Y-98155445D01*
X140700157Y-98159584D01*
X140701000Y-98168143D01*
X140701000Y-98431857D01*
X140700157Y-98440416D01*
X140698901Y-98444556D01*
X140690965Y-98463716D01*
X140686185Y-98487750D01*
X140686185Y-98512254D01*
X140690966Y-98536287D01*
X140698901Y-98555445D01*
X140700157Y-98559584D01*
X140701000Y-98568143D01*
X140701000Y-98831857D01*
X140700157Y-98840416D01*
X140698901Y-98844556D01*
X140690965Y-98863716D01*
X140686185Y-98887750D01*
X140686185Y-98912254D01*
X140690966Y-98936287D01*
X140698901Y-98955445D01*
X140700157Y-98959584D01*
X140701000Y-98968143D01*
X140701000Y-99231857D01*
X140700157Y-99240416D01*
X140698901Y-99244556D01*
X140690965Y-99263716D01*
X140686185Y-99287750D01*
X140686185Y-99312254D01*
X140690966Y-99336287D01*
X140698901Y-99355445D01*
X140700157Y-99359584D01*
X140701000Y-99368143D01*
X140701000Y-99631857D01*
X140700157Y-99640416D01*
X140698901Y-99644556D01*
X140690965Y-99663716D01*
X140686185Y-99687750D01*
X140686185Y-99712254D01*
X140690966Y-99736287D01*
X140698901Y-99755445D01*
X140700157Y-99759584D01*
X140701000Y-99768143D01*
X140701000Y-100031857D01*
X140700157Y-100040416D01*
X140699450Y-100042745D01*
X140698305Y-100044887D01*
X140696765Y-100046765D01*
X140694887Y-100048305D01*
X140692745Y-100049450D01*
X140690416Y-100050157D01*
X140681857Y-100051000D01*
X139818143Y-100051000D01*
X139809584Y-100050157D01*
X139804524Y-100048622D01*
X139780491Y-100043842D01*
X139755987Y-100043842D01*
X139731953Y-100048623D01*
X139709315Y-100058000D01*
X139688940Y-100071614D01*
X139671613Y-100088941D01*
X139658000Y-100109315D01*
X139648622Y-100131954D01*
X139643842Y-100155987D01*
X139643842Y-100180491D01*
X139648622Y-100204524D01*
X139650157Y-100209584D01*
X139651000Y-100218143D01*
X139651000Y-101081857D01*
X139650157Y-101090416D01*
X139649450Y-101092745D01*
X139648305Y-101094887D01*
X139646765Y-101096765D01*
X139644887Y-101098305D01*
X139642745Y-101099450D01*
X139640416Y-101100157D01*
X139631857Y-101101000D01*
X139368143Y-101101000D01*
X139359584Y-101100157D01*
X139355444Y-101098901D01*
X139336284Y-101090965D01*
X139312250Y-101086185D01*
X139287746Y-101086185D01*
X139263713Y-101090966D01*
X139244555Y-101098901D01*
X139240416Y-101100157D01*
X139231857Y-101101000D01*
X138968143Y-101101000D01*
X138959584Y-101100157D01*
X138955444Y-101098901D01*
X138936284Y-101090965D01*
X138912250Y-101086185D01*
X138887746Y-101086185D01*
X138863713Y-101090966D01*
X138844555Y-101098901D01*
X138840416Y-101100157D01*
X138831857Y-101101000D01*
X138568143Y-101101000D01*
X138559584Y-101100157D01*
X138555444Y-101098901D01*
X138536284Y-101090965D01*
X138512250Y-101086185D01*
X138487746Y-101086185D01*
X138463713Y-101090966D01*
X138444555Y-101098901D01*
X138440416Y-101100157D01*
X138431857Y-101101000D01*
X138168143Y-101101000D01*
X138159584Y-101100157D01*
X138155444Y-101098901D01*
X138136284Y-101090965D01*
X138112250Y-101086185D01*
X138087746Y-101086185D01*
X138063713Y-101090966D01*
X138044555Y-101098901D01*
X138040416Y-101100157D01*
X138031857Y-101101000D01*
X137768143Y-101101000D01*
X137759584Y-101100157D01*
X137755444Y-101098901D01*
X137736284Y-101090965D01*
X137712250Y-101086185D01*
X137687746Y-101086185D01*
X137663713Y-101090966D01*
X137644555Y-101098901D01*
X137640416Y-101100157D01*
X137631857Y-101101000D01*
X137368143Y-101101000D01*
X137359584Y-101100157D01*
X137355444Y-101098901D01*
X137336284Y-101090965D01*
X137312250Y-101086185D01*
X137287746Y-101086185D01*
X137263713Y-101090966D01*
X137244555Y-101098901D01*
X137240416Y-101100157D01*
X137231857Y-101101000D01*
X136968143Y-101101000D01*
X136959584Y-101100157D01*
X136955444Y-101098901D01*
X136936284Y-101090965D01*
X136912250Y-101086185D01*
X136887746Y-101086185D01*
X136863713Y-101090966D01*
X136844555Y-101098901D01*
X136840416Y-101100157D01*
X136831857Y-101101000D01*
X136568143Y-101101000D01*
X136559584Y-101100157D01*
X136555444Y-101098901D01*
X136536284Y-101090965D01*
X136512250Y-101086185D01*
X136487746Y-101086185D01*
X136463713Y-101090966D01*
X136444555Y-101098901D01*
X136440416Y-101100157D01*
X136431857Y-101101000D01*
X136168143Y-101101000D01*
X136159584Y-101100157D01*
X136155444Y-101098901D01*
X136136284Y-101090965D01*
X136112250Y-101086185D01*
X136087746Y-101086185D01*
X136063713Y-101090966D01*
X136044555Y-101098901D01*
X136040416Y-101100157D01*
X136031857Y-101101000D01*
X135768143Y-101101000D01*
X135759584Y-101100157D01*
X135755444Y-101098901D01*
X135736284Y-101090965D01*
X135712250Y-101086185D01*
X135687746Y-101086185D01*
X135663713Y-101090966D01*
X135644555Y-101098901D01*
X135640416Y-101100157D01*
X135631857Y-101101000D01*
X135368143Y-101101000D01*
X135359584Y-101100157D01*
X135355444Y-101098901D01*
X135336284Y-101090965D01*
X135312250Y-101086185D01*
X135287746Y-101086185D01*
X135263713Y-101090966D01*
X135244555Y-101098901D01*
X135240416Y-101100157D01*
X135231857Y-101101000D01*
X134968143Y-101101000D01*
X134959584Y-101100157D01*
X134957255Y-101099450D01*
X134955113Y-101098305D01*
X134953235Y-101096765D01*
X134951695Y-101094887D01*
X134950550Y-101092745D01*
X134949843Y-101090416D01*
X134949000Y-101081857D01*
X134949000Y-100218143D01*
X134949843Y-100209584D01*
X134951378Y-100204524D01*
X134956158Y-100180491D01*
X134956158Y-100155987D01*
X134951377Y-100131953D01*
X134942000Y-100109315D01*
X134928386Y-100088940D01*
X134911059Y-100071613D01*
X134890685Y-100058000D01*
X134868046Y-100048622D01*
X134844013Y-100043842D01*
X134819509Y-100043842D01*
X134795476Y-100048622D01*
X134790416Y-100050157D01*
X134781857Y-100051000D01*
X133918143Y-100051000D01*
X133909584Y-100050157D01*
X133907255Y-100049450D01*
X133905113Y-100048305D01*
X133903235Y-100046765D01*
X133901695Y-100044887D01*
X133900550Y-100042745D01*
X133899843Y-100040416D01*
X133899000Y-100031857D01*
X133899000Y-99768143D01*
X133899843Y-99759584D01*
X133901099Y-99755444D01*
X133909035Y-99736284D01*
X133913815Y-99712250D01*
X133913815Y-99687746D01*
X133909034Y-99663713D01*
X133901099Y-99644555D01*
X133899843Y-99640416D01*
X133899000Y-99631857D01*
X133899000Y-99368143D01*
X133899843Y-99359584D01*
X133901099Y-99355444D01*
X133909035Y-99336284D01*
X133913815Y-99312250D01*
X133913815Y-99287746D01*
X133909034Y-99263713D01*
X133901099Y-99244555D01*
X133899843Y-99240416D01*
X133899000Y-99231857D01*
X133899000Y-98968143D01*
X133899843Y-98959584D01*
X133901099Y-98955444D01*
X133909035Y-98936284D01*
X133913815Y-98912250D01*
X133913815Y-98887746D01*
X133909034Y-98863713D01*
X133901099Y-98844555D01*
X133899843Y-98840416D01*
X133899000Y-98831857D01*
X133899000Y-98568143D01*
X133899843Y-98559584D01*
X133901099Y-98555444D01*
X133909035Y-98536284D01*
X133913815Y-98512250D01*
X133913815Y-98487746D01*
X133909034Y-98463713D01*
X133901099Y-98444555D01*
X133899843Y-98440416D01*
X133899000Y-98431857D01*
X133899000Y-98168143D01*
X133899843Y-98159584D01*
X133901099Y-98155444D01*
X133909035Y-98136284D01*
X133913815Y-98112250D01*
X133913815Y-98087746D01*
X133909034Y-98063713D01*
X133901099Y-98044555D01*
X133899843Y-98040416D01*
X133899000Y-98031857D01*
X133899000Y-97768143D01*
X133899843Y-97759584D01*
X133901099Y-97755444D01*
X133909035Y-97736284D01*
X133913815Y-97712250D01*
X133913815Y-97687746D01*
X133909034Y-97663713D01*
X133901099Y-97644555D01*
X133899843Y-97640416D01*
X133899000Y-97631857D01*
X133899000Y-97368143D01*
X133899843Y-97359584D01*
X133901099Y-97355444D01*
X133909035Y-97336284D01*
X133913815Y-97312250D01*
X133913815Y-97287746D01*
X133909034Y-97263713D01*
X133901099Y-97244555D01*
X133899843Y-97240416D01*
X133899000Y-97231857D01*
X133899000Y-96968143D01*
X133899843Y-96959584D01*
X133901099Y-96955444D01*
X133909035Y-96936284D01*
X133913815Y-96912250D01*
X133913815Y-96887746D01*
X133909034Y-96863713D01*
X133901099Y-96844555D01*
X133899843Y-96840416D01*
X133899000Y-96831857D01*
X133899000Y-96568143D01*
X133899843Y-96559584D01*
X133901099Y-96555444D01*
X133909035Y-96536284D01*
X133913815Y-96512250D01*
X133913815Y-96487746D01*
X133909034Y-96463713D01*
X133901099Y-96444555D01*
X133899843Y-96440416D01*
X133899000Y-96431857D01*
X133899000Y-96168143D01*
X133899843Y-96159584D01*
X133901099Y-96155444D01*
X133909035Y-96136284D01*
X133913815Y-96112250D01*
X133913815Y-96087746D01*
X133909034Y-96063713D01*
X133901099Y-96044555D01*
X133899843Y-96040416D01*
X133899000Y-96031857D01*
X133899000Y-95768143D01*
X133899843Y-95759584D01*
X133901099Y-95755444D01*
X133909035Y-95736284D01*
X133913815Y-95712250D01*
X133913815Y-95687746D01*
X133909034Y-95663713D01*
X133901099Y-95644555D01*
X133899843Y-95640416D01*
X133899000Y-95631857D01*
X133899000Y-95368143D01*
X133899843Y-95359584D01*
X133900550Y-95357255D01*
X133901695Y-95355113D01*
X133903235Y-95353235D01*
X133905113Y-95351695D01*
X133907255Y-95350550D01*
X133909584Y-95349843D01*
X133918143Y-95349000D01*
X134781857Y-95349000D01*
X134790416Y-95349843D01*
X134795476Y-95351378D01*
X134819509Y-95356158D01*
X134844013Y-95356158D01*
X134868047Y-95351377D01*
X134890685Y-95342000D01*
X134911060Y-95328386D01*
X134928387Y-95311059D01*
X134942000Y-95290685D01*
X134951378Y-95268046D01*
X134956158Y-95244013D01*
X134956158Y-95219509D01*
X134951378Y-95195476D01*
X134949843Y-95190416D01*
X134949000Y-95181857D01*
X134949000Y-94318143D01*
X134949843Y-94309584D01*
X134950550Y-94307255D01*
X134951695Y-94305113D01*
X134953235Y-94303235D01*
X134955113Y-94301695D01*
X134957255Y-94300550D01*
X134959584Y-94299843D01*
X134968143Y-94299000D01*
X135231857Y-94299000D01*
X135240416Y-94299843D01*
G37*
G36*
X150001000Y-99951000D02*
G01*
X148199000Y-99951000D01*
X148199000Y-98549000D01*
X150001000Y-98549000D01*
X150001000Y-99951000D01*
G37*
G36*
X147351000Y-96596000D02*
G01*
X145949000Y-96596000D01*
X145949000Y-94944000D01*
X147351000Y-94944000D01*
X147351000Y-96596000D01*
G37*
G36*
X142851000Y-96596000D02*
G01*
X141449000Y-96596000D01*
X141449000Y-94944000D01*
X142851000Y-94944000D01*
X142851000Y-96596000D01*
G37*
G36*
X150001000Y-96451000D02*
G01*
X148199000Y-96451000D01*
X148199000Y-95049000D01*
X150001000Y-95049000D01*
X150001000Y-96451000D01*
G37*
G36*
X151401000Y-94541000D02*
G01*
X149799000Y-94541000D01*
X149799000Y-92939000D01*
X151401000Y-92939000D01*
X151401000Y-94541000D01*
G37*
G36*
X145676000Y-94251000D02*
G01*
X143374000Y-94251000D01*
X143374000Y-93099000D01*
X145676000Y-93099000D01*
X145676000Y-94251000D01*
G37*
G36*
X138442091Y-92578085D02*
G01*
X138476069Y-92588393D01*
X138507390Y-92605134D01*
X138534839Y-92627661D01*
X138557366Y-92655110D01*
X138574107Y-92686431D01*
X138584415Y-92720409D01*
X138588500Y-92761890D01*
X138588500Y-93438110D01*
X138584415Y-93479591D01*
X138574107Y-93513569D01*
X138557366Y-93544890D01*
X138534839Y-93572339D01*
X138507390Y-93594866D01*
X138476069Y-93611607D01*
X138442091Y-93621915D01*
X138400610Y-93626000D01*
X137799390Y-93626000D01*
X137757909Y-93621915D01*
X137723931Y-93611607D01*
X137692610Y-93594866D01*
X137665161Y-93572339D01*
X137642634Y-93544890D01*
X137625893Y-93513569D01*
X137615585Y-93479591D01*
X137611500Y-93438110D01*
X137611500Y-92761890D01*
X137615585Y-92720409D01*
X137625893Y-92686431D01*
X137642634Y-92655110D01*
X137665161Y-92627661D01*
X137692610Y-92605134D01*
X137723931Y-92588393D01*
X137757909Y-92578085D01*
X137799390Y-92574000D01*
X138400610Y-92574000D01*
X138442091Y-92578085D01*
G37*
G36*
X140017091Y-92578085D02*
G01*
X140051069Y-92588393D01*
X140082390Y-92605134D01*
X140109839Y-92627661D01*
X140132366Y-92655110D01*
X140149107Y-92686431D01*
X140159415Y-92720409D01*
X140163500Y-92761890D01*
X140163500Y-93438110D01*
X140159415Y-93479591D01*
X140149107Y-93513569D01*
X140132366Y-93544890D01*
X140109839Y-93572339D01*
X140082390Y-93594866D01*
X140051069Y-93611607D01*
X140017091Y-93621915D01*
X139975610Y-93626000D01*
X139374390Y-93626000D01*
X139332909Y-93621915D01*
X139298931Y-93611607D01*
X139267610Y-93594866D01*
X139240161Y-93572339D01*
X139217634Y-93544890D01*
X139200893Y-93513569D01*
X139190585Y-93479591D01*
X139186500Y-93438110D01*
X139186500Y-92761890D01*
X139190585Y-92720409D01*
X139200893Y-92686431D01*
X139217634Y-92655110D01*
X139240161Y-92627661D01*
X139267610Y-92605134D01*
X139298931Y-92588393D01*
X139332909Y-92578085D01*
X139374390Y-92574000D01*
X139975610Y-92574000D01*
X140017091Y-92578085D01*
G37*
G36*
X141579591Y-92615585D02*
G01*
X141613569Y-92625893D01*
X141644890Y-92642634D01*
X141672339Y-92665161D01*
X141694866Y-92692610D01*
X141711607Y-92723931D01*
X141721915Y-92757909D01*
X141726000Y-92799390D01*
X141726000Y-93400610D01*
X141721915Y-93442091D01*
X141711607Y-93476069D01*
X141694866Y-93507390D01*
X141672339Y-93534839D01*
X141644890Y-93557366D01*
X141613569Y-93574107D01*
X141579591Y-93584415D01*
X141538110Y-93588500D01*
X140861890Y-93588500D01*
X140820409Y-93584415D01*
X140786431Y-93574107D01*
X140755110Y-93557366D01*
X140727661Y-93534839D01*
X140705134Y-93507390D01*
X140688393Y-93476069D01*
X140678085Y-93442091D01*
X140674000Y-93400610D01*
X140674000Y-92799390D01*
X140678085Y-92757909D01*
X140688393Y-92723931D01*
X140705134Y-92692610D01*
X140727661Y-92665161D01*
X140755110Y-92642634D01*
X140786431Y-92625893D01*
X140820409Y-92615585D01*
X140861890Y-92611500D01*
X141538110Y-92611500D01*
X141579591Y-92615585D01*
G37*
G36*
X147479591Y-92503085D02*
G01*
X147513569Y-92513393D01*
X147544890Y-92530134D01*
X147572339Y-92552661D01*
X147594866Y-92580110D01*
X147611607Y-92611431D01*
X147621915Y-92645409D01*
X147626000Y-92686890D01*
X147626000Y-93288110D01*
X147621915Y-93329591D01*
X147611607Y-93363569D01*
X147594866Y-93394890D01*
X147572339Y-93422339D01*
X147544890Y-93444866D01*
X147513569Y-93461607D01*
X147479591Y-93471915D01*
X147438110Y-93476000D01*
X146761890Y-93476000D01*
X146720409Y-93471915D01*
X146686431Y-93461607D01*
X146655110Y-93444866D01*
X146627661Y-93422339D01*
X146605134Y-93394890D01*
X146588393Y-93363569D01*
X146578085Y-93329591D01*
X146574000Y-93288110D01*
X146574000Y-92686890D01*
X146578085Y-92645409D01*
X146588393Y-92611431D01*
X146605134Y-92580110D01*
X146627661Y-92552661D01*
X146655110Y-92530134D01*
X146686431Y-92513393D01*
X146720409Y-92503085D01*
X146761890Y-92499000D01*
X147438110Y-92499000D01*
X147479591Y-92503085D01*
G37*
G36*
X135442091Y-92178085D02*
G01*
X135476069Y-92188393D01*
X135507390Y-92205134D01*
X135534839Y-92227661D01*
X135557366Y-92255110D01*
X135574107Y-92286431D01*
X135584415Y-92320409D01*
X135588500Y-92361890D01*
X135588500Y-93038110D01*
X135584415Y-93079591D01*
X135574107Y-93113569D01*
X135557366Y-93144890D01*
X135534839Y-93172339D01*
X135507390Y-93194866D01*
X135476069Y-93211607D01*
X135442091Y-93221915D01*
X135400610Y-93226000D01*
X134799390Y-93226000D01*
X134757909Y-93221915D01*
X134723931Y-93211607D01*
X134692610Y-93194866D01*
X134665161Y-93172339D01*
X134642634Y-93144890D01*
X134625893Y-93113569D01*
X134615585Y-93079591D01*
X134611500Y-93038110D01*
X134611500Y-92361890D01*
X134615585Y-92320409D01*
X134625893Y-92286431D01*
X134642634Y-92255110D01*
X134665161Y-92227661D01*
X134692610Y-92205134D01*
X134723931Y-92188393D01*
X134757909Y-92178085D01*
X134799390Y-92174000D01*
X135400610Y-92174000D01*
X135442091Y-92178085D01*
G37*
G36*
X137017091Y-92178085D02*
G01*
X137051069Y-92188393D01*
X137082390Y-92205134D01*
X137109839Y-92227661D01*
X137132366Y-92255110D01*
X137149107Y-92286431D01*
X137159415Y-92320409D01*
X137163500Y-92361890D01*
X137163500Y-93038110D01*
X137159415Y-93079591D01*
X137149107Y-93113569D01*
X137132366Y-93144890D01*
X137109839Y-93172339D01*
X137082390Y-93194866D01*
X137051069Y-93211607D01*
X137017091Y-93221915D01*
X136975610Y-93226000D01*
X136374390Y-93226000D01*
X136332909Y-93221915D01*
X136298931Y-93211607D01*
X136267610Y-93194866D01*
X136240161Y-93172339D01*
X136217634Y-93144890D01*
X136200893Y-93113569D01*
X136190585Y-93079591D01*
X136186500Y-93038110D01*
X136186500Y-92361890D01*
X136190585Y-92320409D01*
X136200893Y-92286431D01*
X136217634Y-92255110D01*
X136240161Y-92227661D01*
X136267610Y-92205134D01*
X136298931Y-92188393D01*
X136332909Y-92178085D01*
X136374390Y-92174000D01*
X136975610Y-92174000D01*
X137017091Y-92178085D01*
G37*
G36*
X143576000Y-92751000D02*
G01*
X142424000Y-92751000D01*
X142424000Y-91649000D01*
X143576000Y-91649000D01*
X143576000Y-92751000D01*
G37*
G36*
X141579591Y-91040585D02*
G01*
X141613569Y-91050893D01*
X141644890Y-91067634D01*
X141672339Y-91090161D01*
X141694866Y-91117610D01*
X141711607Y-91148931D01*
X141721915Y-91182909D01*
X141726000Y-91224390D01*
X141726000Y-91825610D01*
X141721915Y-91867091D01*
X141711607Y-91901069D01*
X141694866Y-91932390D01*
X141672339Y-91959839D01*
X141644890Y-91982366D01*
X141613569Y-91999107D01*
X141579591Y-92009415D01*
X141538110Y-92013500D01*
X140861890Y-92013500D01*
X140820409Y-92009415D01*
X140786431Y-91999107D01*
X140755110Y-91982366D01*
X140727661Y-91959839D01*
X140705134Y-91932390D01*
X140688393Y-91901069D01*
X140678085Y-91867091D01*
X140674000Y-91825610D01*
X140674000Y-91224390D01*
X140678085Y-91182909D01*
X140688393Y-91148931D01*
X140705134Y-91117610D01*
X140727661Y-91090161D01*
X140755110Y-91067634D01*
X140786431Y-91050893D01*
X140820409Y-91040585D01*
X140861890Y-91036500D01*
X141538110Y-91036500D01*
X141579591Y-91040585D01*
G37*
G36*
X150833642Y-90429781D02*
G01*
X150941337Y-90474390D01*
X150979416Y-90490163D01*
X151110608Y-90577822D01*
X151222178Y-90689392D01*
X151309837Y-90820584D01*
X151309838Y-90820586D01*
X151370219Y-90966358D01*
X151401000Y-91121107D01*
X151401000Y-91278893D01*
X151370219Y-91433642D01*
X151309838Y-91579414D01*
X151309837Y-91579416D01*
X151222178Y-91710608D01*
X151110608Y-91822178D01*
X150979416Y-91909837D01*
X150979415Y-91909838D01*
X150979414Y-91909838D01*
X150833642Y-91970219D01*
X150678893Y-92001000D01*
X150521107Y-92001000D01*
X150366358Y-91970219D01*
X150220586Y-91909838D01*
X150220585Y-91909838D01*
X150220584Y-91909837D01*
X150089392Y-91822178D01*
X149977822Y-91710608D01*
X149890163Y-91579416D01*
X149890162Y-91579414D01*
X149829781Y-91433642D01*
X149799000Y-91278893D01*
X149799000Y-91121107D01*
X149829781Y-90966358D01*
X149890162Y-90820586D01*
X149890163Y-90820584D01*
X149977822Y-90689392D01*
X150089392Y-90577822D01*
X150220584Y-90490163D01*
X150258663Y-90474390D01*
X150366358Y-90429781D01*
X150521107Y-90399000D01*
X150678893Y-90399000D01*
X150833642Y-90429781D01*
G37*
G36*
X147479591Y-90928085D02*
G01*
X147513569Y-90938393D01*
X147544890Y-90955134D01*
X147572339Y-90977661D01*
X147594866Y-91005110D01*
X147611607Y-91036431D01*
X147621915Y-91070409D01*
X147626000Y-91111890D01*
X147626000Y-91713110D01*
X147621915Y-91754591D01*
X147611607Y-91788569D01*
X147594866Y-91819890D01*
X147572339Y-91847339D01*
X147544890Y-91869866D01*
X147513569Y-91886607D01*
X147479591Y-91896915D01*
X147438110Y-91901000D01*
X146761890Y-91901000D01*
X146720409Y-91896915D01*
X146686431Y-91886607D01*
X146655110Y-91869866D01*
X146627661Y-91847339D01*
X146605134Y-91819890D01*
X146588393Y-91788569D01*
X146578085Y-91754591D01*
X146574000Y-91713110D01*
X146574000Y-91111890D01*
X146578085Y-91070409D01*
X146588393Y-91036431D01*
X146605134Y-91005110D01*
X146627661Y-90977661D01*
X146655110Y-90955134D01*
X146686431Y-90938393D01*
X146720409Y-90928085D01*
X146761890Y-90924000D01*
X147438110Y-90924000D01*
X147479591Y-90928085D01*
G37*
G36*
X135551000Y-91476000D02*
G01*
X134449000Y-91476000D01*
X134449000Y-90224000D01*
X135551000Y-90224000D01*
X135551000Y-91476000D01*
G37*
G36*
X136951000Y-91476000D02*
G01*
X135849000Y-91476000D01*
X135849000Y-90224000D01*
X136951000Y-90224000D01*
X136951000Y-91476000D01*
G37*
G36*
X145676000Y-91301000D02*
G01*
X143374000Y-91301000D01*
X143374000Y-90149000D01*
X145676000Y-90149000D01*
X145676000Y-91301000D01*
G37*
G36*
X138479591Y-90290585D02*
G01*
X138513569Y-90300893D01*
X138544890Y-90317634D01*
X138572339Y-90340161D01*
X138594866Y-90367610D01*
X138611607Y-90398931D01*
X138621915Y-90432909D01*
X138626000Y-90474390D01*
X138626000Y-91075610D01*
X138621915Y-91117091D01*
X138611607Y-91151069D01*
X138594866Y-91182390D01*
X138572339Y-91209839D01*
X138544890Y-91232366D01*
X138513569Y-91249107D01*
X138479591Y-91259415D01*
X138438110Y-91263500D01*
X137761890Y-91263500D01*
X137720409Y-91259415D01*
X137686431Y-91249107D01*
X137655110Y-91232366D01*
X137627661Y-91209839D01*
X137605134Y-91182390D01*
X137588393Y-91151069D01*
X137578085Y-91117091D01*
X137574000Y-91075610D01*
X137574000Y-90474390D01*
X137578085Y-90432909D01*
X137588393Y-90398931D01*
X137605134Y-90367610D01*
X137627661Y-90340161D01*
X137655110Y-90317634D01*
X137686431Y-90300893D01*
X137720409Y-90290585D01*
X137761890Y-90286500D01*
X138438110Y-90286500D01*
X138479591Y-90290585D01*
G37*
G36*
X136951000Y-89726000D02*
G01*
X135849000Y-89726000D01*
X135849000Y-88474000D01*
X136951000Y-88474000D01*
X136951000Y-89726000D01*
G37*
G36*
X135551000Y-89726000D02*
G01*
X134449000Y-89726000D01*
X134449000Y-88474000D01*
X135551000Y-88474000D01*
X135551000Y-89726000D01*
G37*
G36*
X138479591Y-88715585D02*
G01*
X138513569Y-88725893D01*
X138544890Y-88742634D01*
X138572339Y-88765161D01*
X138594866Y-88792610D01*
X138611607Y-88823931D01*
X138621915Y-88857909D01*
X138626000Y-88899390D01*
X138626000Y-89500610D01*
X138621915Y-89542091D01*
X138611607Y-89576069D01*
X138594866Y-89607390D01*
X138572339Y-89634839D01*
X138544890Y-89657366D01*
X138513569Y-89674107D01*
X138479591Y-89684415D01*
X138438110Y-89688500D01*
X137761890Y-89688500D01*
X137720409Y-89684415D01*
X137686431Y-89674107D01*
X137655110Y-89657366D01*
X137627661Y-89634839D01*
X137605134Y-89607390D01*
X137588393Y-89576069D01*
X137578085Y-89542091D01*
X137574000Y-89500610D01*
X137574000Y-88899390D01*
X137578085Y-88857909D01*
X137588393Y-88823931D01*
X137605134Y-88792610D01*
X137627661Y-88765161D01*
X137655110Y-88742634D01*
X137686431Y-88725893D01*
X137720409Y-88715585D01*
X137761890Y-88711500D01*
X138438110Y-88711500D01*
X138479591Y-88715585D01*
G37*
G36*
X150833642Y-87889781D02*
G01*
X150979414Y-87950162D01*
X150979416Y-87950163D01*
X151110608Y-88037822D01*
X151222178Y-88149392D01*
X151309837Y-88280584D01*
X151309838Y-88280586D01*
X151370219Y-88426358D01*
X151401000Y-88581107D01*
X151401000Y-88738893D01*
X151370219Y-88893642D01*
X151344493Y-88955750D01*
X151309837Y-89039416D01*
X151222178Y-89170608D01*
X151110608Y-89282178D01*
X150979416Y-89369837D01*
X150979415Y-89369838D01*
X150979414Y-89369838D01*
X150833642Y-89430219D01*
X150678893Y-89461000D01*
X150521107Y-89461000D01*
X150366358Y-89430219D01*
X150220586Y-89369838D01*
X150220585Y-89369838D01*
X150220584Y-89369837D01*
X150089392Y-89282178D01*
X149977822Y-89170608D01*
X149890163Y-89039416D01*
X149855507Y-88955750D01*
X149829781Y-88893642D01*
X149799000Y-88738893D01*
X149799000Y-88581107D01*
X149829781Y-88426358D01*
X149890162Y-88280586D01*
X149890163Y-88280584D01*
X149977822Y-88149392D01*
X150089392Y-88037822D01*
X150220584Y-87950163D01*
X150220586Y-87950162D01*
X150366358Y-87889781D01*
X150521107Y-87859000D01*
X150678893Y-87859000D01*
X150833642Y-87889781D01*
G37*
G36*
X135342091Y-86878085D02*
G01*
X135376069Y-86888393D01*
X135407390Y-86905134D01*
X135434839Y-86927661D01*
X135457366Y-86955110D01*
X135474107Y-86986431D01*
X135484415Y-87020409D01*
X135488500Y-87061890D01*
X135488500Y-87738110D01*
X135484415Y-87779591D01*
X135474107Y-87813569D01*
X135457366Y-87844890D01*
X135434839Y-87872339D01*
X135407390Y-87894866D01*
X135376069Y-87911607D01*
X135342091Y-87921915D01*
X135300610Y-87926000D01*
X134699390Y-87926000D01*
X134657909Y-87921915D01*
X134623931Y-87911607D01*
X134592610Y-87894866D01*
X134565161Y-87872339D01*
X134542634Y-87844890D01*
X134525893Y-87813569D01*
X134515585Y-87779591D01*
X134511500Y-87738110D01*
X134511500Y-87061890D01*
X134515585Y-87020409D01*
X134525893Y-86986431D01*
X134542634Y-86955110D01*
X134565161Y-86927661D01*
X134592610Y-86905134D01*
X134623931Y-86888393D01*
X134657909Y-86878085D01*
X134699390Y-86874000D01*
X135300610Y-86874000D01*
X135342091Y-86878085D01*
G37*
G36*
X136917091Y-86878085D02*
G01*
X136951069Y-86888393D01*
X136982390Y-86905134D01*
X137009839Y-86927661D01*
X137032366Y-86955110D01*
X137049107Y-86986431D01*
X137059415Y-87020409D01*
X137063500Y-87061890D01*
X137063500Y-87738110D01*
X137059415Y-87779591D01*
X137049107Y-87813569D01*
X137032366Y-87844890D01*
X137009839Y-87872339D01*
X136982390Y-87894866D01*
X136951069Y-87911607D01*
X136917091Y-87921915D01*
X136875610Y-87926000D01*
X136274390Y-87926000D01*
X136232909Y-87921915D01*
X136198931Y-87911607D01*
X136167610Y-87894866D01*
X136140161Y-87872339D01*
X136117634Y-87844890D01*
X136100893Y-87813569D01*
X136090585Y-87779591D01*
X136086500Y-87738110D01*
X136086500Y-87061890D01*
X136090585Y-87020409D01*
X136100893Y-86986431D01*
X136117634Y-86955110D01*
X136140161Y-86927661D01*
X136167610Y-86905134D01*
X136198931Y-86888393D01*
X136232909Y-86878085D01*
X136274390Y-86874000D01*
X136875610Y-86874000D01*
X136917091Y-86878085D01*
G37*
G36*
X144775256Y-82641298D02*
G01*
X144881579Y-82662447D01*
X145182042Y-82786903D01*
X145452451Y-82967585D01*
X145682415Y-83197549D01*
X145863097Y-83467958D01*
X145987553Y-83768421D01*
X146051000Y-84087391D01*
X146051000Y-84412609D01*
X145987553Y-84731579D01*
X145863097Y-85032042D01*
X145682415Y-85302451D01*
X145452451Y-85532415D01*
X145182042Y-85713097D01*
X144881579Y-85837553D01*
X144775256Y-85858702D01*
X144562611Y-85901000D01*
X144237389Y-85901000D01*
X144024744Y-85858702D01*
X143918421Y-85837553D01*
X143617958Y-85713097D01*
X143347549Y-85532415D01*
X143117585Y-85302451D01*
X142936903Y-85032042D01*
X142812447Y-84731579D01*
X142749000Y-84412609D01*
X142749000Y-84087391D01*
X142812447Y-83768421D01*
X142936903Y-83467958D01*
X143117585Y-83197549D01*
X143347549Y-82967585D01*
X143617958Y-82786903D01*
X143918421Y-82662447D01*
X144024744Y-82641298D01*
X144237389Y-82599000D01*
X144562611Y-82599000D01*
X144775256Y-82641298D01*
G37*
G36*
X150098326Y-76527578D02*
G01*
X150098329Y-76527579D01*
X150098328Y-76527579D01*
X150471631Y-76682206D01*
X150807596Y-76906690D01*
X151093310Y-77192404D01*
X151317794Y-77528369D01*
X151317795Y-77528371D01*
X151472422Y-77901674D01*
X151551250Y-78297968D01*
X151551250Y-78702032D01*
X151472422Y-79098326D01*
X151472421Y-79098328D01*
X151317794Y-79471631D01*
X151093310Y-79807596D01*
X150807596Y-80093310D01*
X150471631Y-80317794D01*
X150471630Y-80317795D01*
X150471629Y-80317795D01*
X150098326Y-80472422D01*
X149702032Y-80551250D01*
X149297968Y-80551250D01*
X148901674Y-80472422D01*
X148528371Y-80317795D01*
X148528370Y-80317795D01*
X148528369Y-80317794D01*
X148192404Y-80093310D01*
X147906690Y-79807596D01*
X147682206Y-79471631D01*
X147527579Y-79098328D01*
X147527578Y-79098326D01*
X147448750Y-78702032D01*
X147448750Y-78297968D01*
X147527578Y-77901674D01*
X147682205Y-77528371D01*
X147682206Y-77528369D01*
X147906690Y-77192404D01*
X148192404Y-76906690D01*
X148528369Y-76682206D01*
X148901672Y-76527579D01*
X148901671Y-76527579D01*
X148901674Y-76527578D01*
X149297968Y-76448750D01*
X149702032Y-76448750D01*
X150098326Y-76527578D01*
G37*
G36*
X139898326Y-76527578D02*
G01*
X139898329Y-76527579D01*
X139898328Y-76527579D01*
X140271631Y-76682206D01*
X140607596Y-76906690D01*
X140893310Y-77192404D01*
X141117794Y-77528369D01*
X141117795Y-77528371D01*
X141272422Y-77901674D01*
X141351250Y-78297968D01*
X141351250Y-78702032D01*
X141272422Y-79098326D01*
X141272421Y-79098328D01*
X141117794Y-79471631D01*
X140893310Y-79807596D01*
X140607596Y-80093310D01*
X140271631Y-80317794D01*
X140271630Y-80317795D01*
X140271629Y-80317795D01*
X139898326Y-80472422D01*
X139502032Y-80551250D01*
X139097968Y-80551250D01*
X138701674Y-80472422D01*
X138328371Y-80317795D01*
X138328370Y-80317795D01*
X138328369Y-80317794D01*
X137992404Y-80093310D01*
X137706690Y-79807596D01*
X137482206Y-79471631D01*
X137327579Y-79098328D01*
X137327578Y-79098326D01*
X137248750Y-78702032D01*
X137248750Y-78297968D01*
X137327578Y-77901674D01*
X137482205Y-77528371D01*
X137482206Y-77528369D01*
X137706690Y-77192404D01*
X137992404Y-76906690D01*
X138328369Y-76682206D01*
X138701672Y-76527579D01*
X138701671Y-76527579D01*
X138701674Y-76527578D01*
X139097968Y-76448750D01*
X139502032Y-76448750D01*
X139898326Y-76527578D01*
G37*
M02*
