M48
; DRILL file {KiCad (6.0.2)} date Fri 18 Feb 2022 05:05:09 PM CET
; FORMAT={-:-/ absolute / inch / decimal}
; #@! TF.CreationDate,2022-02-18T17:05:09+01:00
; #@! TF.GenerationSoftware,Kicad,Pcbnew,(6.0.2)
; #@! TF.FileFunction,Plated,1,2,PTH
FMAT,2
INCH
; #@! TA.AperFunction,Plated,PTH,ViaDrill
T1C0.0079
; #@! TA.AperFunction,Plated,PTH,ComponentDrill
T2C0.0315
; #@! TA.AperFunction,Plated,PTH,ComponentDrill
T3C0.0394
; #@! TA.AperFunction,Plated,PTH,ComponentDrill
T4C0.0689
%
G90
G05
T1
X5.2415Y-3.8233
X5.2441Y-3.7761
X5.248Y-3.7289
X5.2559Y-4.126
X5.2572Y-4.0753
X5.269Y-3.6895
X5.2848Y-3.9178
X5.2913Y-3.5433
X5.311Y-3.3583
X5.3189Y-4.126
X5.3425Y-3.748
X5.3425Y-3.8071
X5.3425Y-3.8661
X5.3465Y-3.4291
X5.374Y-3.3583
X5.374Y-3.5827
X5.3819Y-4.126
X5.4016Y-3.4961
X5.4016Y-3.748
X5.4016Y-3.8071
X5.4016Y-3.8661
X5.4108Y-3.5792
X5.4252Y-4.1142
X5.426Y-4.0276
X5.4331Y-3.3898
X5.4331Y-3.4331
X5.4462Y-3.5792
X5.4606Y-3.748
X5.4606Y-3.8071
X5.4606Y-3.8661
X5.4843Y-3.3898
X5.4843Y-3.4331
X5.4843Y-3.4843
X5.4843Y-3.5197
X5.4878Y-4.0673
X5.5472Y-3.4848
X5.5472Y-3.5197
X5.5472Y-3.6068
X5.5472Y-3.6417
X5.5472Y-3.9803
X5.5551Y-4.1339
X5.5591Y-3.7244
X5.563Y-3.8268
X5.563Y-3.9402
X5.563Y-4.0193
X5.5945Y-4.1339
X5.6063Y-3.8268
X5.6063Y-3.9402
X5.6063Y-4.0193
X5.6102Y-3.6417
X5.6116Y-3.4848
X5.6116Y-3.5202
X5.6116Y-3.6063
X5.6496Y-4.1063
X5.6588Y-3.4651
X5.6588Y-3.6619
X5.6709Y-3.6945
X5.6746Y-3.5438
X5.6746Y-3.5832
X5.6811Y-4.0866
X5.6811Y-4.1339
X5.71Y-3.4651
X5.71Y-3.6619
X5.7122Y-4.0634
X5.7142Y-3.8866
X5.7142Y-3.9504
X5.7165Y-3.7654
X5.7165Y-3.8268
X5.7179Y-3.5438
X5.7179Y-3.5832
X5.726Y-3.6937
X5.739Y-4.0894
X5.7612Y-3.4651
X5.7612Y-3.5044
X5.7612Y-3.5438
X5.7612Y-3.5832
X5.7612Y-3.6226
X5.7612Y-3.6619
X5.7717Y-3.8268
X5.7717Y-3.9154
X5.7717Y-4.0063
X5.8071Y-4.1732
X5.8189Y-3.8228
T2
X5.2913Y-4.2244
X5.8843Y-3.4591
X5.8843Y-3.5591
X5.8843Y-3.6591
X6.0827Y-4.2244
T3
X5.9556Y-4.5942
X6.0002Y-4.3992
T4
X5.4843Y-3.0866
X5.4843Y-4.7638
X5.8858Y-3.0866
X5.8858Y-4.7638
T0
M30
