G04 #@! TF.GenerationSoftware,KiCad,Pcbnew,5.1.5*
G04 #@! TF.CreationDate,2020-03-24T00:38:53+03:00*
G04 #@! TF.ProjectId,nordic-switch,6e6f7264-6963-42d7-9377-697463682e6b,1.0*
G04 #@! TF.SameCoordinates,Original*
G04 #@! TF.FileFunction,Paste,Top*
G04 #@! TF.FilePolarity,Positive*
%FSLAX46Y46*%
G04 Gerber Fmt 4.6, Leading zero omitted, Abs format (unit mm)*
G04 Created by KiCad (PCBNEW 5.1.5) date 2020-03-24 00:38:53*
%MOMM*%
%LPD*%
G04 APERTURE LIST*
%ADD10C,0.100000*%
%ADD11R,2.200000X1.050000*%
%ADD12R,1.050000X1.000000*%
%ADD13R,1.700000X1.300000*%
%ADD14R,1.500000X2.700000*%
%ADD15R,2.700000X1.500000*%
%ADD16R,1.000000X1.150000*%
%ADD17R,1.300000X1.550000*%
G04 APERTURE END LIST*
D10*
G36*
X135367642Y-103601174D02*
G01*
X135391303Y-103604684D01*
X135414507Y-103610496D01*
X135437029Y-103618554D01*
X135458653Y-103628782D01*
X135479170Y-103641079D01*
X135498383Y-103655329D01*
X135516107Y-103671393D01*
X135532171Y-103689117D01*
X135546421Y-103708330D01*
X135558718Y-103728847D01*
X135568946Y-103750471D01*
X135577004Y-103772993D01*
X135582816Y-103796197D01*
X135586326Y-103819858D01*
X135587500Y-103843750D01*
X135587500Y-104756250D01*
X135586326Y-104780142D01*
X135582816Y-104803803D01*
X135577004Y-104827007D01*
X135568946Y-104849529D01*
X135558718Y-104871153D01*
X135546421Y-104891670D01*
X135532171Y-104910883D01*
X135516107Y-104928607D01*
X135498383Y-104944671D01*
X135479170Y-104958921D01*
X135458653Y-104971218D01*
X135437029Y-104981446D01*
X135414507Y-104989504D01*
X135391303Y-104995316D01*
X135367642Y-104998826D01*
X135343750Y-105000000D01*
X134856250Y-105000000D01*
X134832358Y-104998826D01*
X134808697Y-104995316D01*
X134785493Y-104989504D01*
X134762971Y-104981446D01*
X134741347Y-104971218D01*
X134720830Y-104958921D01*
X134701617Y-104944671D01*
X134683893Y-104928607D01*
X134667829Y-104910883D01*
X134653579Y-104891670D01*
X134641282Y-104871153D01*
X134631054Y-104849529D01*
X134622996Y-104827007D01*
X134617184Y-104803803D01*
X134613674Y-104780142D01*
X134612500Y-104756250D01*
X134612500Y-103843750D01*
X134613674Y-103819858D01*
X134617184Y-103796197D01*
X134622996Y-103772993D01*
X134631054Y-103750471D01*
X134641282Y-103728847D01*
X134653579Y-103708330D01*
X134667829Y-103689117D01*
X134683893Y-103671393D01*
X134701617Y-103655329D01*
X134720830Y-103641079D01*
X134741347Y-103628782D01*
X134762971Y-103618554D01*
X134785493Y-103610496D01*
X134808697Y-103604684D01*
X134832358Y-103601174D01*
X134856250Y-103600000D01*
X135343750Y-103600000D01*
X135367642Y-103601174D01*
G37*
G36*
X137242642Y-103601174D02*
G01*
X137266303Y-103604684D01*
X137289507Y-103610496D01*
X137312029Y-103618554D01*
X137333653Y-103628782D01*
X137354170Y-103641079D01*
X137373383Y-103655329D01*
X137391107Y-103671393D01*
X137407171Y-103689117D01*
X137421421Y-103708330D01*
X137433718Y-103728847D01*
X137443946Y-103750471D01*
X137452004Y-103772993D01*
X137457816Y-103796197D01*
X137461326Y-103819858D01*
X137462500Y-103843750D01*
X137462500Y-104756250D01*
X137461326Y-104780142D01*
X137457816Y-104803803D01*
X137452004Y-104827007D01*
X137443946Y-104849529D01*
X137433718Y-104871153D01*
X137421421Y-104891670D01*
X137407171Y-104910883D01*
X137391107Y-104928607D01*
X137373383Y-104944671D01*
X137354170Y-104958921D01*
X137333653Y-104971218D01*
X137312029Y-104981446D01*
X137289507Y-104989504D01*
X137266303Y-104995316D01*
X137242642Y-104998826D01*
X137218750Y-105000000D01*
X136731250Y-105000000D01*
X136707358Y-104998826D01*
X136683697Y-104995316D01*
X136660493Y-104989504D01*
X136637971Y-104981446D01*
X136616347Y-104971218D01*
X136595830Y-104958921D01*
X136576617Y-104944671D01*
X136558893Y-104928607D01*
X136542829Y-104910883D01*
X136528579Y-104891670D01*
X136516282Y-104871153D01*
X136506054Y-104849529D01*
X136497996Y-104827007D01*
X136492184Y-104803803D01*
X136488674Y-104780142D01*
X136487500Y-104756250D01*
X136487500Y-103843750D01*
X136488674Y-103819858D01*
X136492184Y-103796197D01*
X136497996Y-103772993D01*
X136506054Y-103750471D01*
X136516282Y-103728847D01*
X136528579Y-103708330D01*
X136542829Y-103689117D01*
X136558893Y-103671393D01*
X136576617Y-103655329D01*
X136595830Y-103641079D01*
X136616347Y-103628782D01*
X136637971Y-103618554D01*
X136660493Y-103610496D01*
X136683697Y-103604684D01*
X136707358Y-103601174D01*
X136731250Y-103600000D01*
X137218750Y-103600000D01*
X137242642Y-103601174D01*
G37*
D11*
X144525000Y-93675000D03*
D12*
X143000000Y-92200000D03*
D11*
X144525000Y-90725000D03*
D13*
X149100000Y-95750000D03*
X149100000Y-99250000D03*
D10*
G36*
X149749504Y-100476204D02*
G01*
X149773773Y-100479804D01*
X149797571Y-100485765D01*
X149820671Y-100494030D01*
X149842849Y-100504520D01*
X149863893Y-100517133D01*
X149883598Y-100531747D01*
X149901777Y-100548223D01*
X149918253Y-100566402D01*
X149932867Y-100586107D01*
X149945480Y-100607151D01*
X149955970Y-100629329D01*
X149964235Y-100652429D01*
X149970196Y-100676227D01*
X149973796Y-100700496D01*
X149975000Y-100725000D01*
X149975000Y-101475000D01*
X149973796Y-101499504D01*
X149970196Y-101523773D01*
X149964235Y-101547571D01*
X149955970Y-101570671D01*
X149945480Y-101592849D01*
X149932867Y-101613893D01*
X149918253Y-101633598D01*
X149901777Y-101651777D01*
X149883598Y-101668253D01*
X149863893Y-101682867D01*
X149842849Y-101695480D01*
X149820671Y-101705970D01*
X149797571Y-101714235D01*
X149773773Y-101720196D01*
X149749504Y-101723796D01*
X149725000Y-101725000D01*
X148475000Y-101725000D01*
X148450496Y-101723796D01*
X148426227Y-101720196D01*
X148402429Y-101714235D01*
X148379329Y-101705970D01*
X148357151Y-101695480D01*
X148336107Y-101682867D01*
X148316402Y-101668253D01*
X148298223Y-101651777D01*
X148281747Y-101633598D01*
X148267133Y-101613893D01*
X148254520Y-101592849D01*
X148244030Y-101570671D01*
X148235765Y-101547571D01*
X148229804Y-101523773D01*
X148226204Y-101499504D01*
X148225000Y-101475000D01*
X148225000Y-100725000D01*
X148226204Y-100700496D01*
X148229804Y-100676227D01*
X148235765Y-100652429D01*
X148244030Y-100629329D01*
X148254520Y-100607151D01*
X148267133Y-100586107D01*
X148281747Y-100566402D01*
X148298223Y-100548223D01*
X148316402Y-100531747D01*
X148336107Y-100517133D01*
X148357151Y-100504520D01*
X148379329Y-100494030D01*
X148402429Y-100485765D01*
X148426227Y-100479804D01*
X148450496Y-100476204D01*
X148475000Y-100475000D01*
X149725000Y-100475000D01*
X149749504Y-100476204D01*
G37*
G36*
X149749504Y-103276204D02*
G01*
X149773773Y-103279804D01*
X149797571Y-103285765D01*
X149820671Y-103294030D01*
X149842849Y-103304520D01*
X149863893Y-103317133D01*
X149883598Y-103331747D01*
X149901777Y-103348223D01*
X149918253Y-103366402D01*
X149932867Y-103386107D01*
X149945480Y-103407151D01*
X149955970Y-103429329D01*
X149964235Y-103452429D01*
X149970196Y-103476227D01*
X149973796Y-103500496D01*
X149975000Y-103525000D01*
X149975000Y-104275000D01*
X149973796Y-104299504D01*
X149970196Y-104323773D01*
X149964235Y-104347571D01*
X149955970Y-104370671D01*
X149945480Y-104392849D01*
X149932867Y-104413893D01*
X149918253Y-104433598D01*
X149901777Y-104451777D01*
X149883598Y-104468253D01*
X149863893Y-104482867D01*
X149842849Y-104495480D01*
X149820671Y-104505970D01*
X149797571Y-104514235D01*
X149773773Y-104520196D01*
X149749504Y-104523796D01*
X149725000Y-104525000D01*
X148475000Y-104525000D01*
X148450496Y-104523796D01*
X148426227Y-104520196D01*
X148402429Y-104514235D01*
X148379329Y-104505970D01*
X148357151Y-104495480D01*
X148336107Y-104482867D01*
X148316402Y-104468253D01*
X148298223Y-104451777D01*
X148281747Y-104433598D01*
X148267133Y-104413893D01*
X148254520Y-104392849D01*
X148244030Y-104370671D01*
X148235765Y-104347571D01*
X148229804Y-104323773D01*
X148226204Y-104299504D01*
X148225000Y-104275000D01*
X148225000Y-103525000D01*
X148226204Y-103500496D01*
X148229804Y-103476227D01*
X148235765Y-103452429D01*
X148244030Y-103429329D01*
X148254520Y-103407151D01*
X148267133Y-103386107D01*
X148281747Y-103366402D01*
X148298223Y-103348223D01*
X148316402Y-103331747D01*
X148336107Y-103317133D01*
X148357151Y-103304520D01*
X148379329Y-103294030D01*
X148402429Y-103285765D01*
X148426227Y-103279804D01*
X148450496Y-103276204D01*
X148475000Y-103275000D01*
X149725000Y-103275000D01*
X149749504Y-103276204D01*
G37*
G36*
X141477691Y-92663553D02*
G01*
X141498926Y-92666703D01*
X141519750Y-92671919D01*
X141539962Y-92679151D01*
X141559368Y-92688330D01*
X141577781Y-92699366D01*
X141595024Y-92712154D01*
X141610930Y-92726570D01*
X141625346Y-92742476D01*
X141638134Y-92759719D01*
X141649170Y-92778132D01*
X141658349Y-92797538D01*
X141665581Y-92817750D01*
X141670797Y-92838574D01*
X141673947Y-92859809D01*
X141675000Y-92881250D01*
X141675000Y-93318750D01*
X141673947Y-93340191D01*
X141670797Y-93361426D01*
X141665581Y-93382250D01*
X141658349Y-93402462D01*
X141649170Y-93421868D01*
X141638134Y-93440281D01*
X141625346Y-93457524D01*
X141610930Y-93473430D01*
X141595024Y-93487846D01*
X141577781Y-93500634D01*
X141559368Y-93511670D01*
X141539962Y-93520849D01*
X141519750Y-93528081D01*
X141498926Y-93533297D01*
X141477691Y-93536447D01*
X141456250Y-93537500D01*
X140943750Y-93537500D01*
X140922309Y-93536447D01*
X140901074Y-93533297D01*
X140880250Y-93528081D01*
X140860038Y-93520849D01*
X140840632Y-93511670D01*
X140822219Y-93500634D01*
X140804976Y-93487846D01*
X140789070Y-93473430D01*
X140774654Y-93457524D01*
X140761866Y-93440281D01*
X140750830Y-93421868D01*
X140741651Y-93402462D01*
X140734419Y-93382250D01*
X140729203Y-93361426D01*
X140726053Y-93340191D01*
X140725000Y-93318750D01*
X140725000Y-92881250D01*
X140726053Y-92859809D01*
X140729203Y-92838574D01*
X140734419Y-92817750D01*
X140741651Y-92797538D01*
X140750830Y-92778132D01*
X140761866Y-92759719D01*
X140774654Y-92742476D01*
X140789070Y-92726570D01*
X140804976Y-92712154D01*
X140822219Y-92699366D01*
X140840632Y-92688330D01*
X140860038Y-92679151D01*
X140880250Y-92671919D01*
X140901074Y-92666703D01*
X140922309Y-92663553D01*
X140943750Y-92662500D01*
X141456250Y-92662500D01*
X141477691Y-92663553D01*
G37*
G36*
X141477691Y-91088553D02*
G01*
X141498926Y-91091703D01*
X141519750Y-91096919D01*
X141539962Y-91104151D01*
X141559368Y-91113330D01*
X141577781Y-91124366D01*
X141595024Y-91137154D01*
X141610930Y-91151570D01*
X141625346Y-91167476D01*
X141638134Y-91184719D01*
X141649170Y-91203132D01*
X141658349Y-91222538D01*
X141665581Y-91242750D01*
X141670797Y-91263574D01*
X141673947Y-91284809D01*
X141675000Y-91306250D01*
X141675000Y-91743750D01*
X141673947Y-91765191D01*
X141670797Y-91786426D01*
X141665581Y-91807250D01*
X141658349Y-91827462D01*
X141649170Y-91846868D01*
X141638134Y-91865281D01*
X141625346Y-91882524D01*
X141610930Y-91898430D01*
X141595024Y-91912846D01*
X141577781Y-91925634D01*
X141559368Y-91936670D01*
X141539962Y-91945849D01*
X141519750Y-91953081D01*
X141498926Y-91958297D01*
X141477691Y-91961447D01*
X141456250Y-91962500D01*
X140943750Y-91962500D01*
X140922309Y-91961447D01*
X140901074Y-91958297D01*
X140880250Y-91953081D01*
X140860038Y-91945849D01*
X140840632Y-91936670D01*
X140822219Y-91925634D01*
X140804976Y-91912846D01*
X140789070Y-91898430D01*
X140774654Y-91882524D01*
X140761866Y-91865281D01*
X140750830Y-91846868D01*
X140741651Y-91827462D01*
X140734419Y-91807250D01*
X140729203Y-91786426D01*
X140726053Y-91765191D01*
X140725000Y-91743750D01*
X140725000Y-91306250D01*
X140726053Y-91284809D01*
X140729203Y-91263574D01*
X140734419Y-91242750D01*
X140741651Y-91222538D01*
X140750830Y-91203132D01*
X140761866Y-91184719D01*
X140774654Y-91167476D01*
X140789070Y-91151570D01*
X140804976Y-91137154D01*
X140822219Y-91124366D01*
X140840632Y-91113330D01*
X140860038Y-91104151D01*
X140880250Y-91096919D01*
X140901074Y-91091703D01*
X140922309Y-91088553D01*
X140943750Y-91087500D01*
X141456250Y-91087500D01*
X141477691Y-91088553D01*
G37*
G36*
X139915191Y-92626053D02*
G01*
X139936426Y-92629203D01*
X139957250Y-92634419D01*
X139977462Y-92641651D01*
X139996868Y-92650830D01*
X140015281Y-92661866D01*
X140032524Y-92674654D01*
X140048430Y-92689070D01*
X140062846Y-92704976D01*
X140075634Y-92722219D01*
X140086670Y-92740632D01*
X140095849Y-92760038D01*
X140103081Y-92780250D01*
X140108297Y-92801074D01*
X140111447Y-92822309D01*
X140112500Y-92843750D01*
X140112500Y-93356250D01*
X140111447Y-93377691D01*
X140108297Y-93398926D01*
X140103081Y-93419750D01*
X140095849Y-93439962D01*
X140086670Y-93459368D01*
X140075634Y-93477781D01*
X140062846Y-93495024D01*
X140048430Y-93510930D01*
X140032524Y-93525346D01*
X140015281Y-93538134D01*
X139996868Y-93549170D01*
X139977462Y-93558349D01*
X139957250Y-93565581D01*
X139936426Y-93570797D01*
X139915191Y-93573947D01*
X139893750Y-93575000D01*
X139456250Y-93575000D01*
X139434809Y-93573947D01*
X139413574Y-93570797D01*
X139392750Y-93565581D01*
X139372538Y-93558349D01*
X139353132Y-93549170D01*
X139334719Y-93538134D01*
X139317476Y-93525346D01*
X139301570Y-93510930D01*
X139287154Y-93495024D01*
X139274366Y-93477781D01*
X139263330Y-93459368D01*
X139254151Y-93439962D01*
X139246919Y-93419750D01*
X139241703Y-93398926D01*
X139238553Y-93377691D01*
X139237500Y-93356250D01*
X139237500Y-92843750D01*
X139238553Y-92822309D01*
X139241703Y-92801074D01*
X139246919Y-92780250D01*
X139254151Y-92760038D01*
X139263330Y-92740632D01*
X139274366Y-92722219D01*
X139287154Y-92704976D01*
X139301570Y-92689070D01*
X139317476Y-92674654D01*
X139334719Y-92661866D01*
X139353132Y-92650830D01*
X139372538Y-92641651D01*
X139392750Y-92634419D01*
X139413574Y-92629203D01*
X139434809Y-92626053D01*
X139456250Y-92625000D01*
X139893750Y-92625000D01*
X139915191Y-92626053D01*
G37*
G36*
X138340191Y-92626053D02*
G01*
X138361426Y-92629203D01*
X138382250Y-92634419D01*
X138402462Y-92641651D01*
X138421868Y-92650830D01*
X138440281Y-92661866D01*
X138457524Y-92674654D01*
X138473430Y-92689070D01*
X138487846Y-92704976D01*
X138500634Y-92722219D01*
X138511670Y-92740632D01*
X138520849Y-92760038D01*
X138528081Y-92780250D01*
X138533297Y-92801074D01*
X138536447Y-92822309D01*
X138537500Y-92843750D01*
X138537500Y-93356250D01*
X138536447Y-93377691D01*
X138533297Y-93398926D01*
X138528081Y-93419750D01*
X138520849Y-93439962D01*
X138511670Y-93459368D01*
X138500634Y-93477781D01*
X138487846Y-93495024D01*
X138473430Y-93510930D01*
X138457524Y-93525346D01*
X138440281Y-93538134D01*
X138421868Y-93549170D01*
X138402462Y-93558349D01*
X138382250Y-93565581D01*
X138361426Y-93570797D01*
X138340191Y-93573947D01*
X138318750Y-93575000D01*
X137881250Y-93575000D01*
X137859809Y-93573947D01*
X137838574Y-93570797D01*
X137817750Y-93565581D01*
X137797538Y-93558349D01*
X137778132Y-93549170D01*
X137759719Y-93538134D01*
X137742476Y-93525346D01*
X137726570Y-93510930D01*
X137712154Y-93495024D01*
X137699366Y-93477781D01*
X137688330Y-93459368D01*
X137679151Y-93439962D01*
X137671919Y-93419750D01*
X137666703Y-93398926D01*
X137663553Y-93377691D01*
X137662500Y-93356250D01*
X137662500Y-92843750D01*
X137663553Y-92822309D01*
X137666703Y-92801074D01*
X137671919Y-92780250D01*
X137679151Y-92760038D01*
X137688330Y-92740632D01*
X137699366Y-92722219D01*
X137712154Y-92704976D01*
X137726570Y-92689070D01*
X137742476Y-92674654D01*
X137759719Y-92661866D01*
X137778132Y-92650830D01*
X137797538Y-92641651D01*
X137817750Y-92634419D01*
X137838574Y-92629203D01*
X137859809Y-92626053D01*
X137881250Y-92625000D01*
X138318750Y-92625000D01*
X138340191Y-92626053D01*
G37*
G36*
X140340191Y-104826053D02*
G01*
X140361426Y-104829203D01*
X140382250Y-104834419D01*
X140402462Y-104841651D01*
X140421868Y-104850830D01*
X140440281Y-104861866D01*
X140457524Y-104874654D01*
X140473430Y-104889070D01*
X140487846Y-104904976D01*
X140500634Y-104922219D01*
X140511670Y-104940632D01*
X140520849Y-104960038D01*
X140528081Y-104980250D01*
X140533297Y-105001074D01*
X140536447Y-105022309D01*
X140537500Y-105043750D01*
X140537500Y-105556250D01*
X140536447Y-105577691D01*
X140533297Y-105598926D01*
X140528081Y-105619750D01*
X140520849Y-105639962D01*
X140511670Y-105659368D01*
X140500634Y-105677781D01*
X140487846Y-105695024D01*
X140473430Y-105710930D01*
X140457524Y-105725346D01*
X140440281Y-105738134D01*
X140421868Y-105749170D01*
X140402462Y-105758349D01*
X140382250Y-105765581D01*
X140361426Y-105770797D01*
X140340191Y-105773947D01*
X140318750Y-105775000D01*
X139881250Y-105775000D01*
X139859809Y-105773947D01*
X139838574Y-105770797D01*
X139817750Y-105765581D01*
X139797538Y-105758349D01*
X139778132Y-105749170D01*
X139759719Y-105738134D01*
X139742476Y-105725346D01*
X139726570Y-105710930D01*
X139712154Y-105695024D01*
X139699366Y-105677781D01*
X139688330Y-105659368D01*
X139679151Y-105639962D01*
X139671919Y-105619750D01*
X139666703Y-105598926D01*
X139663553Y-105577691D01*
X139662500Y-105556250D01*
X139662500Y-105043750D01*
X139663553Y-105022309D01*
X139666703Y-105001074D01*
X139671919Y-104980250D01*
X139679151Y-104960038D01*
X139688330Y-104940632D01*
X139699366Y-104922219D01*
X139712154Y-104904976D01*
X139726570Y-104889070D01*
X139742476Y-104874654D01*
X139759719Y-104861866D01*
X139778132Y-104850830D01*
X139797538Y-104841651D01*
X139817750Y-104834419D01*
X139838574Y-104829203D01*
X139859809Y-104826053D01*
X139881250Y-104825000D01*
X140318750Y-104825000D01*
X140340191Y-104826053D01*
G37*
G36*
X138765191Y-104826053D02*
G01*
X138786426Y-104829203D01*
X138807250Y-104834419D01*
X138827462Y-104841651D01*
X138846868Y-104850830D01*
X138865281Y-104861866D01*
X138882524Y-104874654D01*
X138898430Y-104889070D01*
X138912846Y-104904976D01*
X138925634Y-104922219D01*
X138936670Y-104940632D01*
X138945849Y-104960038D01*
X138953081Y-104980250D01*
X138958297Y-105001074D01*
X138961447Y-105022309D01*
X138962500Y-105043750D01*
X138962500Y-105556250D01*
X138961447Y-105577691D01*
X138958297Y-105598926D01*
X138953081Y-105619750D01*
X138945849Y-105639962D01*
X138936670Y-105659368D01*
X138925634Y-105677781D01*
X138912846Y-105695024D01*
X138898430Y-105710930D01*
X138882524Y-105725346D01*
X138865281Y-105738134D01*
X138846868Y-105749170D01*
X138827462Y-105758349D01*
X138807250Y-105765581D01*
X138786426Y-105770797D01*
X138765191Y-105773947D01*
X138743750Y-105775000D01*
X138306250Y-105775000D01*
X138284809Y-105773947D01*
X138263574Y-105770797D01*
X138242750Y-105765581D01*
X138222538Y-105758349D01*
X138203132Y-105749170D01*
X138184719Y-105738134D01*
X138167476Y-105725346D01*
X138151570Y-105710930D01*
X138137154Y-105695024D01*
X138124366Y-105677781D01*
X138113330Y-105659368D01*
X138104151Y-105639962D01*
X138096919Y-105619750D01*
X138091703Y-105598926D01*
X138088553Y-105577691D01*
X138087500Y-105556250D01*
X138087500Y-105043750D01*
X138088553Y-105022309D01*
X138091703Y-105001074D01*
X138096919Y-104980250D01*
X138104151Y-104960038D01*
X138113330Y-104940632D01*
X138124366Y-104922219D01*
X138137154Y-104904976D01*
X138151570Y-104889070D01*
X138167476Y-104874654D01*
X138184719Y-104861866D01*
X138203132Y-104850830D01*
X138222538Y-104841651D01*
X138242750Y-104834419D01*
X138263574Y-104829203D01*
X138284809Y-104826053D01*
X138306250Y-104825000D01*
X138743750Y-104825000D01*
X138765191Y-104826053D01*
G37*
G36*
X147377691Y-90976053D02*
G01*
X147398926Y-90979203D01*
X147419750Y-90984419D01*
X147439962Y-90991651D01*
X147459368Y-91000830D01*
X147477781Y-91011866D01*
X147495024Y-91024654D01*
X147510930Y-91039070D01*
X147525346Y-91054976D01*
X147538134Y-91072219D01*
X147549170Y-91090632D01*
X147558349Y-91110038D01*
X147565581Y-91130250D01*
X147570797Y-91151074D01*
X147573947Y-91172309D01*
X147575000Y-91193750D01*
X147575000Y-91631250D01*
X147573947Y-91652691D01*
X147570797Y-91673926D01*
X147565581Y-91694750D01*
X147558349Y-91714962D01*
X147549170Y-91734368D01*
X147538134Y-91752781D01*
X147525346Y-91770024D01*
X147510930Y-91785930D01*
X147495024Y-91800346D01*
X147477781Y-91813134D01*
X147459368Y-91824170D01*
X147439962Y-91833349D01*
X147419750Y-91840581D01*
X147398926Y-91845797D01*
X147377691Y-91848947D01*
X147356250Y-91850000D01*
X146843750Y-91850000D01*
X146822309Y-91848947D01*
X146801074Y-91845797D01*
X146780250Y-91840581D01*
X146760038Y-91833349D01*
X146740632Y-91824170D01*
X146722219Y-91813134D01*
X146704976Y-91800346D01*
X146689070Y-91785930D01*
X146674654Y-91770024D01*
X146661866Y-91752781D01*
X146650830Y-91734368D01*
X146641651Y-91714962D01*
X146634419Y-91694750D01*
X146629203Y-91673926D01*
X146626053Y-91652691D01*
X146625000Y-91631250D01*
X146625000Y-91193750D01*
X146626053Y-91172309D01*
X146629203Y-91151074D01*
X146634419Y-91130250D01*
X146641651Y-91110038D01*
X146650830Y-91090632D01*
X146661866Y-91072219D01*
X146674654Y-91054976D01*
X146689070Y-91039070D01*
X146704976Y-91024654D01*
X146722219Y-91011866D01*
X146740632Y-91000830D01*
X146760038Y-90991651D01*
X146780250Y-90984419D01*
X146801074Y-90979203D01*
X146822309Y-90976053D01*
X146843750Y-90975000D01*
X147356250Y-90975000D01*
X147377691Y-90976053D01*
G37*
G36*
X147377691Y-92551053D02*
G01*
X147398926Y-92554203D01*
X147419750Y-92559419D01*
X147439962Y-92566651D01*
X147459368Y-92575830D01*
X147477781Y-92586866D01*
X147495024Y-92599654D01*
X147510930Y-92614070D01*
X147525346Y-92629976D01*
X147538134Y-92647219D01*
X147549170Y-92665632D01*
X147558349Y-92685038D01*
X147565581Y-92705250D01*
X147570797Y-92726074D01*
X147573947Y-92747309D01*
X147575000Y-92768750D01*
X147575000Y-93206250D01*
X147573947Y-93227691D01*
X147570797Y-93248926D01*
X147565581Y-93269750D01*
X147558349Y-93289962D01*
X147549170Y-93309368D01*
X147538134Y-93327781D01*
X147525346Y-93345024D01*
X147510930Y-93360930D01*
X147495024Y-93375346D01*
X147477781Y-93388134D01*
X147459368Y-93399170D01*
X147439962Y-93408349D01*
X147419750Y-93415581D01*
X147398926Y-93420797D01*
X147377691Y-93423947D01*
X147356250Y-93425000D01*
X146843750Y-93425000D01*
X146822309Y-93423947D01*
X146801074Y-93420797D01*
X146780250Y-93415581D01*
X146760038Y-93408349D01*
X146740632Y-93399170D01*
X146722219Y-93388134D01*
X146704976Y-93375346D01*
X146689070Y-93360930D01*
X146674654Y-93345024D01*
X146661866Y-93327781D01*
X146650830Y-93309368D01*
X146641651Y-93289962D01*
X146634419Y-93269750D01*
X146629203Y-93248926D01*
X146626053Y-93227691D01*
X146625000Y-93206250D01*
X146625000Y-92768750D01*
X146626053Y-92747309D01*
X146629203Y-92726074D01*
X146634419Y-92705250D01*
X146641651Y-92685038D01*
X146650830Y-92665632D01*
X146661866Y-92647219D01*
X146674654Y-92629976D01*
X146689070Y-92614070D01*
X146704976Y-92599654D01*
X146722219Y-92586866D01*
X146740632Y-92575830D01*
X146760038Y-92566651D01*
X146780250Y-92559419D01*
X146801074Y-92554203D01*
X146822309Y-92551053D01*
X146843750Y-92550000D01*
X147356250Y-92550000D01*
X147377691Y-92551053D01*
G37*
D14*
X136400000Y-109000000D03*
X141200000Y-109000000D03*
D15*
X137200000Y-117200000D03*
X137200000Y-112400000D03*
D10*
G36*
X151624504Y-106026204D02*
G01*
X151648773Y-106029804D01*
X151672571Y-106035765D01*
X151695671Y-106044030D01*
X151717849Y-106054520D01*
X151738893Y-106067133D01*
X151758598Y-106081747D01*
X151776777Y-106098223D01*
X151793253Y-106116402D01*
X151807867Y-106136107D01*
X151820480Y-106157151D01*
X151830970Y-106179329D01*
X151839235Y-106202429D01*
X151845196Y-106226227D01*
X151848796Y-106250496D01*
X151850000Y-106275000D01*
X151850000Y-108325000D01*
X151848796Y-108349504D01*
X151845196Y-108373773D01*
X151839235Y-108397571D01*
X151830970Y-108420671D01*
X151820480Y-108442849D01*
X151807867Y-108463893D01*
X151793253Y-108483598D01*
X151776777Y-108501777D01*
X151758598Y-108518253D01*
X151738893Y-108532867D01*
X151717849Y-108545480D01*
X151695671Y-108555970D01*
X151672571Y-108564235D01*
X151648773Y-108570196D01*
X151624504Y-108573796D01*
X151600000Y-108575000D01*
X150025000Y-108575000D01*
X150000496Y-108573796D01*
X149976227Y-108570196D01*
X149952429Y-108564235D01*
X149929329Y-108555970D01*
X149907151Y-108545480D01*
X149886107Y-108532867D01*
X149866402Y-108518253D01*
X149848223Y-108501777D01*
X149831747Y-108483598D01*
X149817133Y-108463893D01*
X149804520Y-108442849D01*
X149794030Y-108420671D01*
X149785765Y-108397571D01*
X149779804Y-108373773D01*
X149776204Y-108349504D01*
X149775000Y-108325000D01*
X149775000Y-106275000D01*
X149776204Y-106250496D01*
X149779804Y-106226227D01*
X149785765Y-106202429D01*
X149794030Y-106179329D01*
X149804520Y-106157151D01*
X149817133Y-106136107D01*
X149831747Y-106116402D01*
X149848223Y-106098223D01*
X149866402Y-106081747D01*
X149886107Y-106067133D01*
X149907151Y-106054520D01*
X149929329Y-106044030D01*
X149952429Y-106035765D01*
X149976227Y-106029804D01*
X150000496Y-106026204D01*
X150025000Y-106025000D01*
X151600000Y-106025000D01*
X151624504Y-106026204D01*
G37*
G36*
X145399504Y-106026204D02*
G01*
X145423773Y-106029804D01*
X145447571Y-106035765D01*
X145470671Y-106044030D01*
X145492849Y-106054520D01*
X145513893Y-106067133D01*
X145533598Y-106081747D01*
X145551777Y-106098223D01*
X145568253Y-106116402D01*
X145582867Y-106136107D01*
X145595480Y-106157151D01*
X145605970Y-106179329D01*
X145614235Y-106202429D01*
X145620196Y-106226227D01*
X145623796Y-106250496D01*
X145625000Y-106275000D01*
X145625000Y-108325000D01*
X145623796Y-108349504D01*
X145620196Y-108373773D01*
X145614235Y-108397571D01*
X145605970Y-108420671D01*
X145595480Y-108442849D01*
X145582867Y-108463893D01*
X145568253Y-108483598D01*
X145551777Y-108501777D01*
X145533598Y-108518253D01*
X145513893Y-108532867D01*
X145492849Y-108545480D01*
X145470671Y-108555970D01*
X145447571Y-108564235D01*
X145423773Y-108570196D01*
X145399504Y-108573796D01*
X145375000Y-108575000D01*
X143800000Y-108575000D01*
X143775496Y-108573796D01*
X143751227Y-108570196D01*
X143727429Y-108564235D01*
X143704329Y-108555970D01*
X143682151Y-108545480D01*
X143661107Y-108532867D01*
X143641402Y-108518253D01*
X143623223Y-108501777D01*
X143606747Y-108483598D01*
X143592133Y-108463893D01*
X143579520Y-108442849D01*
X143569030Y-108420671D01*
X143560765Y-108397571D01*
X143554804Y-108373773D01*
X143551204Y-108349504D01*
X143550000Y-108325000D01*
X143550000Y-106275000D01*
X143551204Y-106250496D01*
X143554804Y-106226227D01*
X143560765Y-106202429D01*
X143569030Y-106179329D01*
X143579520Y-106157151D01*
X143592133Y-106136107D01*
X143606747Y-106116402D01*
X143623223Y-106098223D01*
X143641402Y-106081747D01*
X143661107Y-106067133D01*
X143682151Y-106054520D01*
X143704329Y-106044030D01*
X143727429Y-106035765D01*
X143751227Y-106029804D01*
X143775496Y-106026204D01*
X143800000Y-106025000D01*
X145375000Y-106025000D01*
X145399504Y-106026204D01*
G37*
D16*
X136400000Y-90850000D03*
X136400000Y-89100000D03*
X135000000Y-89100000D03*
X135000000Y-90850000D03*
D10*
G36*
X136164504Y-98611204D02*
G01*
X136188773Y-98614804D01*
X136212571Y-98620765D01*
X136235671Y-98629030D01*
X136257849Y-98639520D01*
X136278893Y-98652133D01*
X136298598Y-98666747D01*
X136316777Y-98683223D01*
X136333253Y-98701402D01*
X136347867Y-98721107D01*
X136360480Y-98742151D01*
X136370970Y-98764329D01*
X136379235Y-98787429D01*
X136385196Y-98811227D01*
X136388796Y-98835496D01*
X136390000Y-98860000D01*
X136390000Y-99600000D01*
X136388796Y-99624504D01*
X136385196Y-99648773D01*
X136379235Y-99672571D01*
X136370970Y-99695671D01*
X136360480Y-99717849D01*
X136347867Y-99738893D01*
X136333253Y-99758598D01*
X136316777Y-99776777D01*
X136298598Y-99793253D01*
X136278893Y-99807867D01*
X136257849Y-99820480D01*
X136235671Y-99830970D01*
X136212571Y-99839235D01*
X136188773Y-99845196D01*
X136164504Y-99848796D01*
X136140000Y-99850000D01*
X135400000Y-99850000D01*
X135375496Y-99848796D01*
X135351227Y-99845196D01*
X135327429Y-99839235D01*
X135304329Y-99830970D01*
X135282151Y-99820480D01*
X135261107Y-99807867D01*
X135241402Y-99793253D01*
X135223223Y-99776777D01*
X135206747Y-99758598D01*
X135192133Y-99738893D01*
X135179520Y-99717849D01*
X135169030Y-99695671D01*
X135160765Y-99672571D01*
X135154804Y-99648773D01*
X135151204Y-99624504D01*
X135150000Y-99600000D01*
X135150000Y-98860000D01*
X135151204Y-98835496D01*
X135154804Y-98811227D01*
X135160765Y-98787429D01*
X135169030Y-98764329D01*
X135179520Y-98742151D01*
X135192133Y-98721107D01*
X135206747Y-98701402D01*
X135223223Y-98683223D01*
X135241402Y-98666747D01*
X135261107Y-98652133D01*
X135282151Y-98639520D01*
X135304329Y-98629030D01*
X135327429Y-98620765D01*
X135351227Y-98614804D01*
X135375496Y-98611204D01*
X135400000Y-98610000D01*
X136140000Y-98610000D01*
X136164504Y-98611204D01*
G37*
G36*
X137694504Y-98611204D02*
G01*
X137718773Y-98614804D01*
X137742571Y-98620765D01*
X137765671Y-98629030D01*
X137787849Y-98639520D01*
X137808893Y-98652133D01*
X137828598Y-98666747D01*
X137846777Y-98683223D01*
X137863253Y-98701402D01*
X137877867Y-98721107D01*
X137890480Y-98742151D01*
X137900970Y-98764329D01*
X137909235Y-98787429D01*
X137915196Y-98811227D01*
X137918796Y-98835496D01*
X137920000Y-98860000D01*
X137920000Y-99600000D01*
X137918796Y-99624504D01*
X137915196Y-99648773D01*
X137909235Y-99672571D01*
X137900970Y-99695671D01*
X137890480Y-99717849D01*
X137877867Y-99738893D01*
X137863253Y-99758598D01*
X137846777Y-99776777D01*
X137828598Y-99793253D01*
X137808893Y-99807867D01*
X137787849Y-99820480D01*
X137765671Y-99830970D01*
X137742571Y-99839235D01*
X137718773Y-99845196D01*
X137694504Y-99848796D01*
X137670000Y-99850000D01*
X136930000Y-99850000D01*
X136905496Y-99848796D01*
X136881227Y-99845196D01*
X136857429Y-99839235D01*
X136834329Y-99830970D01*
X136812151Y-99820480D01*
X136791107Y-99807867D01*
X136771402Y-99793253D01*
X136753223Y-99776777D01*
X136736747Y-99758598D01*
X136722133Y-99738893D01*
X136709520Y-99717849D01*
X136699030Y-99695671D01*
X136690765Y-99672571D01*
X136684804Y-99648773D01*
X136681204Y-99624504D01*
X136680000Y-99600000D01*
X136680000Y-98860000D01*
X136681204Y-98835496D01*
X136684804Y-98811227D01*
X136690765Y-98787429D01*
X136699030Y-98764329D01*
X136709520Y-98742151D01*
X136722133Y-98721107D01*
X136736747Y-98701402D01*
X136753223Y-98683223D01*
X136771402Y-98666747D01*
X136791107Y-98652133D01*
X136812151Y-98639520D01*
X136834329Y-98629030D01*
X136857429Y-98620765D01*
X136881227Y-98614804D01*
X136905496Y-98611204D01*
X136930000Y-98610000D01*
X137670000Y-98610000D01*
X137694504Y-98611204D01*
G37*
G36*
X139224504Y-98611204D02*
G01*
X139248773Y-98614804D01*
X139272571Y-98620765D01*
X139295671Y-98629030D01*
X139317849Y-98639520D01*
X139338893Y-98652133D01*
X139358598Y-98666747D01*
X139376777Y-98683223D01*
X139393253Y-98701402D01*
X139407867Y-98721107D01*
X139420480Y-98742151D01*
X139430970Y-98764329D01*
X139439235Y-98787429D01*
X139445196Y-98811227D01*
X139448796Y-98835496D01*
X139450000Y-98860000D01*
X139450000Y-99600000D01*
X139448796Y-99624504D01*
X139445196Y-99648773D01*
X139439235Y-99672571D01*
X139430970Y-99695671D01*
X139420480Y-99717849D01*
X139407867Y-99738893D01*
X139393253Y-99758598D01*
X139376777Y-99776777D01*
X139358598Y-99793253D01*
X139338893Y-99807867D01*
X139317849Y-99820480D01*
X139295671Y-99830970D01*
X139272571Y-99839235D01*
X139248773Y-99845196D01*
X139224504Y-99848796D01*
X139200000Y-99850000D01*
X138460000Y-99850000D01*
X138435496Y-99848796D01*
X138411227Y-99845196D01*
X138387429Y-99839235D01*
X138364329Y-99830970D01*
X138342151Y-99820480D01*
X138321107Y-99807867D01*
X138301402Y-99793253D01*
X138283223Y-99776777D01*
X138266747Y-99758598D01*
X138252133Y-99738893D01*
X138239520Y-99717849D01*
X138229030Y-99695671D01*
X138220765Y-99672571D01*
X138214804Y-99648773D01*
X138211204Y-99624504D01*
X138210000Y-99600000D01*
X138210000Y-98860000D01*
X138211204Y-98835496D01*
X138214804Y-98811227D01*
X138220765Y-98787429D01*
X138229030Y-98764329D01*
X138239520Y-98742151D01*
X138252133Y-98721107D01*
X138266747Y-98701402D01*
X138283223Y-98683223D01*
X138301402Y-98666747D01*
X138321107Y-98652133D01*
X138342151Y-98639520D01*
X138364329Y-98629030D01*
X138387429Y-98620765D01*
X138411227Y-98614804D01*
X138435496Y-98611204D01*
X138460000Y-98610000D01*
X139200000Y-98610000D01*
X139224504Y-98611204D01*
G37*
G36*
X136164504Y-97081204D02*
G01*
X136188773Y-97084804D01*
X136212571Y-97090765D01*
X136235671Y-97099030D01*
X136257849Y-97109520D01*
X136278893Y-97122133D01*
X136298598Y-97136747D01*
X136316777Y-97153223D01*
X136333253Y-97171402D01*
X136347867Y-97191107D01*
X136360480Y-97212151D01*
X136370970Y-97234329D01*
X136379235Y-97257429D01*
X136385196Y-97281227D01*
X136388796Y-97305496D01*
X136390000Y-97330000D01*
X136390000Y-98070000D01*
X136388796Y-98094504D01*
X136385196Y-98118773D01*
X136379235Y-98142571D01*
X136370970Y-98165671D01*
X136360480Y-98187849D01*
X136347867Y-98208893D01*
X136333253Y-98228598D01*
X136316777Y-98246777D01*
X136298598Y-98263253D01*
X136278893Y-98277867D01*
X136257849Y-98290480D01*
X136235671Y-98300970D01*
X136212571Y-98309235D01*
X136188773Y-98315196D01*
X136164504Y-98318796D01*
X136140000Y-98320000D01*
X135400000Y-98320000D01*
X135375496Y-98318796D01*
X135351227Y-98315196D01*
X135327429Y-98309235D01*
X135304329Y-98300970D01*
X135282151Y-98290480D01*
X135261107Y-98277867D01*
X135241402Y-98263253D01*
X135223223Y-98246777D01*
X135206747Y-98228598D01*
X135192133Y-98208893D01*
X135179520Y-98187849D01*
X135169030Y-98165671D01*
X135160765Y-98142571D01*
X135154804Y-98118773D01*
X135151204Y-98094504D01*
X135150000Y-98070000D01*
X135150000Y-97330000D01*
X135151204Y-97305496D01*
X135154804Y-97281227D01*
X135160765Y-97257429D01*
X135169030Y-97234329D01*
X135179520Y-97212151D01*
X135192133Y-97191107D01*
X135206747Y-97171402D01*
X135223223Y-97153223D01*
X135241402Y-97136747D01*
X135261107Y-97122133D01*
X135282151Y-97109520D01*
X135304329Y-97099030D01*
X135327429Y-97090765D01*
X135351227Y-97084804D01*
X135375496Y-97081204D01*
X135400000Y-97080000D01*
X136140000Y-97080000D01*
X136164504Y-97081204D01*
G37*
G36*
X137694504Y-97081204D02*
G01*
X137718773Y-97084804D01*
X137742571Y-97090765D01*
X137765671Y-97099030D01*
X137787849Y-97109520D01*
X137808893Y-97122133D01*
X137828598Y-97136747D01*
X137846777Y-97153223D01*
X137863253Y-97171402D01*
X137877867Y-97191107D01*
X137890480Y-97212151D01*
X137900970Y-97234329D01*
X137909235Y-97257429D01*
X137915196Y-97281227D01*
X137918796Y-97305496D01*
X137920000Y-97330000D01*
X137920000Y-98070000D01*
X137918796Y-98094504D01*
X137915196Y-98118773D01*
X137909235Y-98142571D01*
X137900970Y-98165671D01*
X137890480Y-98187849D01*
X137877867Y-98208893D01*
X137863253Y-98228598D01*
X137846777Y-98246777D01*
X137828598Y-98263253D01*
X137808893Y-98277867D01*
X137787849Y-98290480D01*
X137765671Y-98300970D01*
X137742571Y-98309235D01*
X137718773Y-98315196D01*
X137694504Y-98318796D01*
X137670000Y-98320000D01*
X136930000Y-98320000D01*
X136905496Y-98318796D01*
X136881227Y-98315196D01*
X136857429Y-98309235D01*
X136834329Y-98300970D01*
X136812151Y-98290480D01*
X136791107Y-98277867D01*
X136771402Y-98263253D01*
X136753223Y-98246777D01*
X136736747Y-98228598D01*
X136722133Y-98208893D01*
X136709520Y-98187849D01*
X136699030Y-98165671D01*
X136690765Y-98142571D01*
X136684804Y-98118773D01*
X136681204Y-98094504D01*
X136680000Y-98070000D01*
X136680000Y-97330000D01*
X136681204Y-97305496D01*
X136684804Y-97281227D01*
X136690765Y-97257429D01*
X136699030Y-97234329D01*
X136709520Y-97212151D01*
X136722133Y-97191107D01*
X136736747Y-97171402D01*
X136753223Y-97153223D01*
X136771402Y-97136747D01*
X136791107Y-97122133D01*
X136812151Y-97109520D01*
X136834329Y-97099030D01*
X136857429Y-97090765D01*
X136881227Y-97084804D01*
X136905496Y-97081204D01*
X136930000Y-97080000D01*
X137670000Y-97080000D01*
X137694504Y-97081204D01*
G37*
G36*
X139224504Y-97081204D02*
G01*
X139248773Y-97084804D01*
X139272571Y-97090765D01*
X139295671Y-97099030D01*
X139317849Y-97109520D01*
X139338893Y-97122133D01*
X139358598Y-97136747D01*
X139376777Y-97153223D01*
X139393253Y-97171402D01*
X139407867Y-97191107D01*
X139420480Y-97212151D01*
X139430970Y-97234329D01*
X139439235Y-97257429D01*
X139445196Y-97281227D01*
X139448796Y-97305496D01*
X139450000Y-97330000D01*
X139450000Y-98070000D01*
X139448796Y-98094504D01*
X139445196Y-98118773D01*
X139439235Y-98142571D01*
X139430970Y-98165671D01*
X139420480Y-98187849D01*
X139407867Y-98208893D01*
X139393253Y-98228598D01*
X139376777Y-98246777D01*
X139358598Y-98263253D01*
X139338893Y-98277867D01*
X139317849Y-98290480D01*
X139295671Y-98300970D01*
X139272571Y-98309235D01*
X139248773Y-98315196D01*
X139224504Y-98318796D01*
X139200000Y-98320000D01*
X138460000Y-98320000D01*
X138435496Y-98318796D01*
X138411227Y-98315196D01*
X138387429Y-98309235D01*
X138364329Y-98300970D01*
X138342151Y-98290480D01*
X138321107Y-98277867D01*
X138301402Y-98263253D01*
X138283223Y-98246777D01*
X138266747Y-98228598D01*
X138252133Y-98208893D01*
X138239520Y-98187849D01*
X138229030Y-98165671D01*
X138220765Y-98142571D01*
X138214804Y-98118773D01*
X138211204Y-98094504D01*
X138210000Y-98070000D01*
X138210000Y-97330000D01*
X138211204Y-97305496D01*
X138214804Y-97281227D01*
X138220765Y-97257429D01*
X138229030Y-97234329D01*
X138239520Y-97212151D01*
X138252133Y-97191107D01*
X138266747Y-97171402D01*
X138283223Y-97153223D01*
X138301402Y-97136747D01*
X138321107Y-97122133D01*
X138342151Y-97109520D01*
X138364329Y-97099030D01*
X138387429Y-97090765D01*
X138411227Y-97084804D01*
X138435496Y-97081204D01*
X138460000Y-97080000D01*
X139200000Y-97080000D01*
X139224504Y-97081204D01*
G37*
G36*
X136164504Y-95551204D02*
G01*
X136188773Y-95554804D01*
X136212571Y-95560765D01*
X136235671Y-95569030D01*
X136257849Y-95579520D01*
X136278893Y-95592133D01*
X136298598Y-95606747D01*
X136316777Y-95623223D01*
X136333253Y-95641402D01*
X136347867Y-95661107D01*
X136360480Y-95682151D01*
X136370970Y-95704329D01*
X136379235Y-95727429D01*
X136385196Y-95751227D01*
X136388796Y-95775496D01*
X136390000Y-95800000D01*
X136390000Y-96540000D01*
X136388796Y-96564504D01*
X136385196Y-96588773D01*
X136379235Y-96612571D01*
X136370970Y-96635671D01*
X136360480Y-96657849D01*
X136347867Y-96678893D01*
X136333253Y-96698598D01*
X136316777Y-96716777D01*
X136298598Y-96733253D01*
X136278893Y-96747867D01*
X136257849Y-96760480D01*
X136235671Y-96770970D01*
X136212571Y-96779235D01*
X136188773Y-96785196D01*
X136164504Y-96788796D01*
X136140000Y-96790000D01*
X135400000Y-96790000D01*
X135375496Y-96788796D01*
X135351227Y-96785196D01*
X135327429Y-96779235D01*
X135304329Y-96770970D01*
X135282151Y-96760480D01*
X135261107Y-96747867D01*
X135241402Y-96733253D01*
X135223223Y-96716777D01*
X135206747Y-96698598D01*
X135192133Y-96678893D01*
X135179520Y-96657849D01*
X135169030Y-96635671D01*
X135160765Y-96612571D01*
X135154804Y-96588773D01*
X135151204Y-96564504D01*
X135150000Y-96540000D01*
X135150000Y-95800000D01*
X135151204Y-95775496D01*
X135154804Y-95751227D01*
X135160765Y-95727429D01*
X135169030Y-95704329D01*
X135179520Y-95682151D01*
X135192133Y-95661107D01*
X135206747Y-95641402D01*
X135223223Y-95623223D01*
X135241402Y-95606747D01*
X135261107Y-95592133D01*
X135282151Y-95579520D01*
X135304329Y-95569030D01*
X135327429Y-95560765D01*
X135351227Y-95554804D01*
X135375496Y-95551204D01*
X135400000Y-95550000D01*
X136140000Y-95550000D01*
X136164504Y-95551204D01*
G37*
G36*
X137694504Y-95551204D02*
G01*
X137718773Y-95554804D01*
X137742571Y-95560765D01*
X137765671Y-95569030D01*
X137787849Y-95579520D01*
X137808893Y-95592133D01*
X137828598Y-95606747D01*
X137846777Y-95623223D01*
X137863253Y-95641402D01*
X137877867Y-95661107D01*
X137890480Y-95682151D01*
X137900970Y-95704329D01*
X137909235Y-95727429D01*
X137915196Y-95751227D01*
X137918796Y-95775496D01*
X137920000Y-95800000D01*
X137920000Y-96540000D01*
X137918796Y-96564504D01*
X137915196Y-96588773D01*
X137909235Y-96612571D01*
X137900970Y-96635671D01*
X137890480Y-96657849D01*
X137877867Y-96678893D01*
X137863253Y-96698598D01*
X137846777Y-96716777D01*
X137828598Y-96733253D01*
X137808893Y-96747867D01*
X137787849Y-96760480D01*
X137765671Y-96770970D01*
X137742571Y-96779235D01*
X137718773Y-96785196D01*
X137694504Y-96788796D01*
X137670000Y-96790000D01*
X136930000Y-96790000D01*
X136905496Y-96788796D01*
X136881227Y-96785196D01*
X136857429Y-96779235D01*
X136834329Y-96770970D01*
X136812151Y-96760480D01*
X136791107Y-96747867D01*
X136771402Y-96733253D01*
X136753223Y-96716777D01*
X136736747Y-96698598D01*
X136722133Y-96678893D01*
X136709520Y-96657849D01*
X136699030Y-96635671D01*
X136690765Y-96612571D01*
X136684804Y-96588773D01*
X136681204Y-96564504D01*
X136680000Y-96540000D01*
X136680000Y-95800000D01*
X136681204Y-95775496D01*
X136684804Y-95751227D01*
X136690765Y-95727429D01*
X136699030Y-95704329D01*
X136709520Y-95682151D01*
X136722133Y-95661107D01*
X136736747Y-95641402D01*
X136753223Y-95623223D01*
X136771402Y-95606747D01*
X136791107Y-95592133D01*
X136812151Y-95579520D01*
X136834329Y-95569030D01*
X136857429Y-95560765D01*
X136881227Y-95554804D01*
X136905496Y-95551204D01*
X136930000Y-95550000D01*
X137670000Y-95550000D01*
X137694504Y-95551204D01*
G37*
G36*
X139224504Y-95551204D02*
G01*
X139248773Y-95554804D01*
X139272571Y-95560765D01*
X139295671Y-95569030D01*
X139317849Y-95579520D01*
X139338893Y-95592133D01*
X139358598Y-95606747D01*
X139376777Y-95623223D01*
X139393253Y-95641402D01*
X139407867Y-95661107D01*
X139420480Y-95682151D01*
X139430970Y-95704329D01*
X139439235Y-95727429D01*
X139445196Y-95751227D01*
X139448796Y-95775496D01*
X139450000Y-95800000D01*
X139450000Y-96540000D01*
X139448796Y-96564504D01*
X139445196Y-96588773D01*
X139439235Y-96612571D01*
X139430970Y-96635671D01*
X139420480Y-96657849D01*
X139407867Y-96678893D01*
X139393253Y-96698598D01*
X139376777Y-96716777D01*
X139358598Y-96733253D01*
X139338893Y-96747867D01*
X139317849Y-96760480D01*
X139295671Y-96770970D01*
X139272571Y-96779235D01*
X139248773Y-96785196D01*
X139224504Y-96788796D01*
X139200000Y-96790000D01*
X138460000Y-96790000D01*
X138435496Y-96788796D01*
X138411227Y-96785196D01*
X138387429Y-96779235D01*
X138364329Y-96770970D01*
X138342151Y-96760480D01*
X138321107Y-96747867D01*
X138301402Y-96733253D01*
X138283223Y-96716777D01*
X138266747Y-96698598D01*
X138252133Y-96678893D01*
X138239520Y-96657849D01*
X138229030Y-96635671D01*
X138220765Y-96612571D01*
X138214804Y-96588773D01*
X138211204Y-96564504D01*
X138210000Y-96540000D01*
X138210000Y-95800000D01*
X138211204Y-95775496D01*
X138214804Y-95751227D01*
X138220765Y-95727429D01*
X138229030Y-95704329D01*
X138239520Y-95682151D01*
X138252133Y-95661107D01*
X138266747Y-95641402D01*
X138283223Y-95623223D01*
X138301402Y-95606747D01*
X138321107Y-95592133D01*
X138342151Y-95579520D01*
X138364329Y-95569030D01*
X138387429Y-95560765D01*
X138411227Y-95554804D01*
X138435496Y-95551204D01*
X138460000Y-95550000D01*
X139200000Y-95550000D01*
X139224504Y-95551204D01*
G37*
G36*
X135154901Y-100250241D02*
G01*
X135159755Y-100250961D01*
X135164514Y-100252153D01*
X135169134Y-100253806D01*
X135173570Y-100255904D01*
X135177779Y-100258427D01*
X135181720Y-100261349D01*
X135185355Y-100264645D01*
X135188651Y-100268280D01*
X135191573Y-100272221D01*
X135194096Y-100276430D01*
X135196194Y-100280866D01*
X135197847Y-100285486D01*
X135199039Y-100290245D01*
X135199759Y-100295099D01*
X135200000Y-100300000D01*
X135200000Y-101000000D01*
X135199759Y-101004901D01*
X135199039Y-101009755D01*
X135197847Y-101014514D01*
X135196194Y-101019134D01*
X135194096Y-101023570D01*
X135191573Y-101027779D01*
X135188651Y-101031720D01*
X135185355Y-101035355D01*
X135181720Y-101038651D01*
X135177779Y-101041573D01*
X135173570Y-101044096D01*
X135169134Y-101046194D01*
X135164514Y-101047847D01*
X135159755Y-101049039D01*
X135154901Y-101049759D01*
X135150000Y-101050000D01*
X135050000Y-101050000D01*
X135045099Y-101049759D01*
X135040245Y-101049039D01*
X135035486Y-101047847D01*
X135030866Y-101046194D01*
X135026430Y-101044096D01*
X135022221Y-101041573D01*
X135018280Y-101038651D01*
X135014645Y-101035355D01*
X135011349Y-101031720D01*
X135008427Y-101027779D01*
X135005904Y-101023570D01*
X135003806Y-101019134D01*
X135002153Y-101014514D01*
X135000961Y-101009755D01*
X135000241Y-101004901D01*
X135000000Y-101000000D01*
X135000000Y-100300000D01*
X135000241Y-100295099D01*
X135000961Y-100290245D01*
X135002153Y-100285486D01*
X135003806Y-100280866D01*
X135005904Y-100276430D01*
X135008427Y-100272221D01*
X135011349Y-100268280D01*
X135014645Y-100264645D01*
X135018280Y-100261349D01*
X135022221Y-100258427D01*
X135026430Y-100255904D01*
X135030866Y-100253806D01*
X135035486Y-100252153D01*
X135040245Y-100250961D01*
X135045099Y-100250241D01*
X135050000Y-100250000D01*
X135150000Y-100250000D01*
X135154901Y-100250241D01*
G37*
G36*
X135554901Y-100250241D02*
G01*
X135559755Y-100250961D01*
X135564514Y-100252153D01*
X135569134Y-100253806D01*
X135573570Y-100255904D01*
X135577779Y-100258427D01*
X135581720Y-100261349D01*
X135585355Y-100264645D01*
X135588651Y-100268280D01*
X135591573Y-100272221D01*
X135594096Y-100276430D01*
X135596194Y-100280866D01*
X135597847Y-100285486D01*
X135599039Y-100290245D01*
X135599759Y-100295099D01*
X135600000Y-100300000D01*
X135600000Y-101000000D01*
X135599759Y-101004901D01*
X135599039Y-101009755D01*
X135597847Y-101014514D01*
X135596194Y-101019134D01*
X135594096Y-101023570D01*
X135591573Y-101027779D01*
X135588651Y-101031720D01*
X135585355Y-101035355D01*
X135581720Y-101038651D01*
X135577779Y-101041573D01*
X135573570Y-101044096D01*
X135569134Y-101046194D01*
X135564514Y-101047847D01*
X135559755Y-101049039D01*
X135554901Y-101049759D01*
X135550000Y-101050000D01*
X135450000Y-101050000D01*
X135445099Y-101049759D01*
X135440245Y-101049039D01*
X135435486Y-101047847D01*
X135430866Y-101046194D01*
X135426430Y-101044096D01*
X135422221Y-101041573D01*
X135418280Y-101038651D01*
X135414645Y-101035355D01*
X135411349Y-101031720D01*
X135408427Y-101027779D01*
X135405904Y-101023570D01*
X135403806Y-101019134D01*
X135402153Y-101014514D01*
X135400961Y-101009755D01*
X135400241Y-101004901D01*
X135400000Y-101000000D01*
X135400000Y-100300000D01*
X135400241Y-100295099D01*
X135400961Y-100290245D01*
X135402153Y-100285486D01*
X135403806Y-100280866D01*
X135405904Y-100276430D01*
X135408427Y-100272221D01*
X135411349Y-100268280D01*
X135414645Y-100264645D01*
X135418280Y-100261349D01*
X135422221Y-100258427D01*
X135426430Y-100255904D01*
X135430866Y-100253806D01*
X135435486Y-100252153D01*
X135440245Y-100250961D01*
X135445099Y-100250241D01*
X135450000Y-100250000D01*
X135550000Y-100250000D01*
X135554901Y-100250241D01*
G37*
G36*
X135954901Y-100250241D02*
G01*
X135959755Y-100250961D01*
X135964514Y-100252153D01*
X135969134Y-100253806D01*
X135973570Y-100255904D01*
X135977779Y-100258427D01*
X135981720Y-100261349D01*
X135985355Y-100264645D01*
X135988651Y-100268280D01*
X135991573Y-100272221D01*
X135994096Y-100276430D01*
X135996194Y-100280866D01*
X135997847Y-100285486D01*
X135999039Y-100290245D01*
X135999759Y-100295099D01*
X136000000Y-100300000D01*
X136000000Y-101000000D01*
X135999759Y-101004901D01*
X135999039Y-101009755D01*
X135997847Y-101014514D01*
X135996194Y-101019134D01*
X135994096Y-101023570D01*
X135991573Y-101027779D01*
X135988651Y-101031720D01*
X135985355Y-101035355D01*
X135981720Y-101038651D01*
X135977779Y-101041573D01*
X135973570Y-101044096D01*
X135969134Y-101046194D01*
X135964514Y-101047847D01*
X135959755Y-101049039D01*
X135954901Y-101049759D01*
X135950000Y-101050000D01*
X135850000Y-101050000D01*
X135845099Y-101049759D01*
X135840245Y-101049039D01*
X135835486Y-101047847D01*
X135830866Y-101046194D01*
X135826430Y-101044096D01*
X135822221Y-101041573D01*
X135818280Y-101038651D01*
X135814645Y-101035355D01*
X135811349Y-101031720D01*
X135808427Y-101027779D01*
X135805904Y-101023570D01*
X135803806Y-101019134D01*
X135802153Y-101014514D01*
X135800961Y-101009755D01*
X135800241Y-101004901D01*
X135800000Y-101000000D01*
X135800000Y-100300000D01*
X135800241Y-100295099D01*
X135800961Y-100290245D01*
X135802153Y-100285486D01*
X135803806Y-100280866D01*
X135805904Y-100276430D01*
X135808427Y-100272221D01*
X135811349Y-100268280D01*
X135814645Y-100264645D01*
X135818280Y-100261349D01*
X135822221Y-100258427D01*
X135826430Y-100255904D01*
X135830866Y-100253806D01*
X135835486Y-100252153D01*
X135840245Y-100250961D01*
X135845099Y-100250241D01*
X135850000Y-100250000D01*
X135950000Y-100250000D01*
X135954901Y-100250241D01*
G37*
G36*
X136354901Y-100250241D02*
G01*
X136359755Y-100250961D01*
X136364514Y-100252153D01*
X136369134Y-100253806D01*
X136373570Y-100255904D01*
X136377779Y-100258427D01*
X136381720Y-100261349D01*
X136385355Y-100264645D01*
X136388651Y-100268280D01*
X136391573Y-100272221D01*
X136394096Y-100276430D01*
X136396194Y-100280866D01*
X136397847Y-100285486D01*
X136399039Y-100290245D01*
X136399759Y-100295099D01*
X136400000Y-100300000D01*
X136400000Y-101000000D01*
X136399759Y-101004901D01*
X136399039Y-101009755D01*
X136397847Y-101014514D01*
X136396194Y-101019134D01*
X136394096Y-101023570D01*
X136391573Y-101027779D01*
X136388651Y-101031720D01*
X136385355Y-101035355D01*
X136381720Y-101038651D01*
X136377779Y-101041573D01*
X136373570Y-101044096D01*
X136369134Y-101046194D01*
X136364514Y-101047847D01*
X136359755Y-101049039D01*
X136354901Y-101049759D01*
X136350000Y-101050000D01*
X136250000Y-101050000D01*
X136245099Y-101049759D01*
X136240245Y-101049039D01*
X136235486Y-101047847D01*
X136230866Y-101046194D01*
X136226430Y-101044096D01*
X136222221Y-101041573D01*
X136218280Y-101038651D01*
X136214645Y-101035355D01*
X136211349Y-101031720D01*
X136208427Y-101027779D01*
X136205904Y-101023570D01*
X136203806Y-101019134D01*
X136202153Y-101014514D01*
X136200961Y-101009755D01*
X136200241Y-101004901D01*
X136200000Y-101000000D01*
X136200000Y-100300000D01*
X136200241Y-100295099D01*
X136200961Y-100290245D01*
X136202153Y-100285486D01*
X136203806Y-100280866D01*
X136205904Y-100276430D01*
X136208427Y-100272221D01*
X136211349Y-100268280D01*
X136214645Y-100264645D01*
X136218280Y-100261349D01*
X136222221Y-100258427D01*
X136226430Y-100255904D01*
X136230866Y-100253806D01*
X136235486Y-100252153D01*
X136240245Y-100250961D01*
X136245099Y-100250241D01*
X136250000Y-100250000D01*
X136350000Y-100250000D01*
X136354901Y-100250241D01*
G37*
G36*
X136754901Y-100250241D02*
G01*
X136759755Y-100250961D01*
X136764514Y-100252153D01*
X136769134Y-100253806D01*
X136773570Y-100255904D01*
X136777779Y-100258427D01*
X136781720Y-100261349D01*
X136785355Y-100264645D01*
X136788651Y-100268280D01*
X136791573Y-100272221D01*
X136794096Y-100276430D01*
X136796194Y-100280866D01*
X136797847Y-100285486D01*
X136799039Y-100290245D01*
X136799759Y-100295099D01*
X136800000Y-100300000D01*
X136800000Y-101000000D01*
X136799759Y-101004901D01*
X136799039Y-101009755D01*
X136797847Y-101014514D01*
X136796194Y-101019134D01*
X136794096Y-101023570D01*
X136791573Y-101027779D01*
X136788651Y-101031720D01*
X136785355Y-101035355D01*
X136781720Y-101038651D01*
X136777779Y-101041573D01*
X136773570Y-101044096D01*
X136769134Y-101046194D01*
X136764514Y-101047847D01*
X136759755Y-101049039D01*
X136754901Y-101049759D01*
X136750000Y-101050000D01*
X136650000Y-101050000D01*
X136645099Y-101049759D01*
X136640245Y-101049039D01*
X136635486Y-101047847D01*
X136630866Y-101046194D01*
X136626430Y-101044096D01*
X136622221Y-101041573D01*
X136618280Y-101038651D01*
X136614645Y-101035355D01*
X136611349Y-101031720D01*
X136608427Y-101027779D01*
X136605904Y-101023570D01*
X136603806Y-101019134D01*
X136602153Y-101014514D01*
X136600961Y-101009755D01*
X136600241Y-101004901D01*
X136600000Y-101000000D01*
X136600000Y-100300000D01*
X136600241Y-100295099D01*
X136600961Y-100290245D01*
X136602153Y-100285486D01*
X136603806Y-100280866D01*
X136605904Y-100276430D01*
X136608427Y-100272221D01*
X136611349Y-100268280D01*
X136614645Y-100264645D01*
X136618280Y-100261349D01*
X136622221Y-100258427D01*
X136626430Y-100255904D01*
X136630866Y-100253806D01*
X136635486Y-100252153D01*
X136640245Y-100250961D01*
X136645099Y-100250241D01*
X136650000Y-100250000D01*
X136750000Y-100250000D01*
X136754901Y-100250241D01*
G37*
G36*
X137154901Y-100250241D02*
G01*
X137159755Y-100250961D01*
X137164514Y-100252153D01*
X137169134Y-100253806D01*
X137173570Y-100255904D01*
X137177779Y-100258427D01*
X137181720Y-100261349D01*
X137185355Y-100264645D01*
X137188651Y-100268280D01*
X137191573Y-100272221D01*
X137194096Y-100276430D01*
X137196194Y-100280866D01*
X137197847Y-100285486D01*
X137199039Y-100290245D01*
X137199759Y-100295099D01*
X137200000Y-100300000D01*
X137200000Y-101000000D01*
X137199759Y-101004901D01*
X137199039Y-101009755D01*
X137197847Y-101014514D01*
X137196194Y-101019134D01*
X137194096Y-101023570D01*
X137191573Y-101027779D01*
X137188651Y-101031720D01*
X137185355Y-101035355D01*
X137181720Y-101038651D01*
X137177779Y-101041573D01*
X137173570Y-101044096D01*
X137169134Y-101046194D01*
X137164514Y-101047847D01*
X137159755Y-101049039D01*
X137154901Y-101049759D01*
X137150000Y-101050000D01*
X137050000Y-101050000D01*
X137045099Y-101049759D01*
X137040245Y-101049039D01*
X137035486Y-101047847D01*
X137030866Y-101046194D01*
X137026430Y-101044096D01*
X137022221Y-101041573D01*
X137018280Y-101038651D01*
X137014645Y-101035355D01*
X137011349Y-101031720D01*
X137008427Y-101027779D01*
X137005904Y-101023570D01*
X137003806Y-101019134D01*
X137002153Y-101014514D01*
X137000961Y-101009755D01*
X137000241Y-101004901D01*
X137000000Y-101000000D01*
X137000000Y-100300000D01*
X137000241Y-100295099D01*
X137000961Y-100290245D01*
X137002153Y-100285486D01*
X137003806Y-100280866D01*
X137005904Y-100276430D01*
X137008427Y-100272221D01*
X137011349Y-100268280D01*
X137014645Y-100264645D01*
X137018280Y-100261349D01*
X137022221Y-100258427D01*
X137026430Y-100255904D01*
X137030866Y-100253806D01*
X137035486Y-100252153D01*
X137040245Y-100250961D01*
X137045099Y-100250241D01*
X137050000Y-100250000D01*
X137150000Y-100250000D01*
X137154901Y-100250241D01*
G37*
G36*
X137554901Y-100250241D02*
G01*
X137559755Y-100250961D01*
X137564514Y-100252153D01*
X137569134Y-100253806D01*
X137573570Y-100255904D01*
X137577779Y-100258427D01*
X137581720Y-100261349D01*
X137585355Y-100264645D01*
X137588651Y-100268280D01*
X137591573Y-100272221D01*
X137594096Y-100276430D01*
X137596194Y-100280866D01*
X137597847Y-100285486D01*
X137599039Y-100290245D01*
X137599759Y-100295099D01*
X137600000Y-100300000D01*
X137600000Y-101000000D01*
X137599759Y-101004901D01*
X137599039Y-101009755D01*
X137597847Y-101014514D01*
X137596194Y-101019134D01*
X137594096Y-101023570D01*
X137591573Y-101027779D01*
X137588651Y-101031720D01*
X137585355Y-101035355D01*
X137581720Y-101038651D01*
X137577779Y-101041573D01*
X137573570Y-101044096D01*
X137569134Y-101046194D01*
X137564514Y-101047847D01*
X137559755Y-101049039D01*
X137554901Y-101049759D01*
X137550000Y-101050000D01*
X137450000Y-101050000D01*
X137445099Y-101049759D01*
X137440245Y-101049039D01*
X137435486Y-101047847D01*
X137430866Y-101046194D01*
X137426430Y-101044096D01*
X137422221Y-101041573D01*
X137418280Y-101038651D01*
X137414645Y-101035355D01*
X137411349Y-101031720D01*
X137408427Y-101027779D01*
X137405904Y-101023570D01*
X137403806Y-101019134D01*
X137402153Y-101014514D01*
X137400961Y-101009755D01*
X137400241Y-101004901D01*
X137400000Y-101000000D01*
X137400000Y-100300000D01*
X137400241Y-100295099D01*
X137400961Y-100290245D01*
X137402153Y-100285486D01*
X137403806Y-100280866D01*
X137405904Y-100276430D01*
X137408427Y-100272221D01*
X137411349Y-100268280D01*
X137414645Y-100264645D01*
X137418280Y-100261349D01*
X137422221Y-100258427D01*
X137426430Y-100255904D01*
X137430866Y-100253806D01*
X137435486Y-100252153D01*
X137440245Y-100250961D01*
X137445099Y-100250241D01*
X137450000Y-100250000D01*
X137550000Y-100250000D01*
X137554901Y-100250241D01*
G37*
G36*
X137954901Y-100250241D02*
G01*
X137959755Y-100250961D01*
X137964514Y-100252153D01*
X137969134Y-100253806D01*
X137973570Y-100255904D01*
X137977779Y-100258427D01*
X137981720Y-100261349D01*
X137985355Y-100264645D01*
X137988651Y-100268280D01*
X137991573Y-100272221D01*
X137994096Y-100276430D01*
X137996194Y-100280866D01*
X137997847Y-100285486D01*
X137999039Y-100290245D01*
X137999759Y-100295099D01*
X138000000Y-100300000D01*
X138000000Y-101000000D01*
X137999759Y-101004901D01*
X137999039Y-101009755D01*
X137997847Y-101014514D01*
X137996194Y-101019134D01*
X137994096Y-101023570D01*
X137991573Y-101027779D01*
X137988651Y-101031720D01*
X137985355Y-101035355D01*
X137981720Y-101038651D01*
X137977779Y-101041573D01*
X137973570Y-101044096D01*
X137969134Y-101046194D01*
X137964514Y-101047847D01*
X137959755Y-101049039D01*
X137954901Y-101049759D01*
X137950000Y-101050000D01*
X137850000Y-101050000D01*
X137845099Y-101049759D01*
X137840245Y-101049039D01*
X137835486Y-101047847D01*
X137830866Y-101046194D01*
X137826430Y-101044096D01*
X137822221Y-101041573D01*
X137818280Y-101038651D01*
X137814645Y-101035355D01*
X137811349Y-101031720D01*
X137808427Y-101027779D01*
X137805904Y-101023570D01*
X137803806Y-101019134D01*
X137802153Y-101014514D01*
X137800961Y-101009755D01*
X137800241Y-101004901D01*
X137800000Y-101000000D01*
X137800000Y-100300000D01*
X137800241Y-100295099D01*
X137800961Y-100290245D01*
X137802153Y-100285486D01*
X137803806Y-100280866D01*
X137805904Y-100276430D01*
X137808427Y-100272221D01*
X137811349Y-100268280D01*
X137814645Y-100264645D01*
X137818280Y-100261349D01*
X137822221Y-100258427D01*
X137826430Y-100255904D01*
X137830866Y-100253806D01*
X137835486Y-100252153D01*
X137840245Y-100250961D01*
X137845099Y-100250241D01*
X137850000Y-100250000D01*
X137950000Y-100250000D01*
X137954901Y-100250241D01*
G37*
G36*
X138354901Y-100250241D02*
G01*
X138359755Y-100250961D01*
X138364514Y-100252153D01*
X138369134Y-100253806D01*
X138373570Y-100255904D01*
X138377779Y-100258427D01*
X138381720Y-100261349D01*
X138385355Y-100264645D01*
X138388651Y-100268280D01*
X138391573Y-100272221D01*
X138394096Y-100276430D01*
X138396194Y-100280866D01*
X138397847Y-100285486D01*
X138399039Y-100290245D01*
X138399759Y-100295099D01*
X138400000Y-100300000D01*
X138400000Y-101000000D01*
X138399759Y-101004901D01*
X138399039Y-101009755D01*
X138397847Y-101014514D01*
X138396194Y-101019134D01*
X138394096Y-101023570D01*
X138391573Y-101027779D01*
X138388651Y-101031720D01*
X138385355Y-101035355D01*
X138381720Y-101038651D01*
X138377779Y-101041573D01*
X138373570Y-101044096D01*
X138369134Y-101046194D01*
X138364514Y-101047847D01*
X138359755Y-101049039D01*
X138354901Y-101049759D01*
X138350000Y-101050000D01*
X138250000Y-101050000D01*
X138245099Y-101049759D01*
X138240245Y-101049039D01*
X138235486Y-101047847D01*
X138230866Y-101046194D01*
X138226430Y-101044096D01*
X138222221Y-101041573D01*
X138218280Y-101038651D01*
X138214645Y-101035355D01*
X138211349Y-101031720D01*
X138208427Y-101027779D01*
X138205904Y-101023570D01*
X138203806Y-101019134D01*
X138202153Y-101014514D01*
X138200961Y-101009755D01*
X138200241Y-101004901D01*
X138200000Y-101000000D01*
X138200000Y-100300000D01*
X138200241Y-100295099D01*
X138200961Y-100290245D01*
X138202153Y-100285486D01*
X138203806Y-100280866D01*
X138205904Y-100276430D01*
X138208427Y-100272221D01*
X138211349Y-100268280D01*
X138214645Y-100264645D01*
X138218280Y-100261349D01*
X138222221Y-100258427D01*
X138226430Y-100255904D01*
X138230866Y-100253806D01*
X138235486Y-100252153D01*
X138240245Y-100250961D01*
X138245099Y-100250241D01*
X138250000Y-100250000D01*
X138350000Y-100250000D01*
X138354901Y-100250241D01*
G37*
G36*
X138754901Y-100250241D02*
G01*
X138759755Y-100250961D01*
X138764514Y-100252153D01*
X138769134Y-100253806D01*
X138773570Y-100255904D01*
X138777779Y-100258427D01*
X138781720Y-100261349D01*
X138785355Y-100264645D01*
X138788651Y-100268280D01*
X138791573Y-100272221D01*
X138794096Y-100276430D01*
X138796194Y-100280866D01*
X138797847Y-100285486D01*
X138799039Y-100290245D01*
X138799759Y-100295099D01*
X138800000Y-100300000D01*
X138800000Y-101000000D01*
X138799759Y-101004901D01*
X138799039Y-101009755D01*
X138797847Y-101014514D01*
X138796194Y-101019134D01*
X138794096Y-101023570D01*
X138791573Y-101027779D01*
X138788651Y-101031720D01*
X138785355Y-101035355D01*
X138781720Y-101038651D01*
X138777779Y-101041573D01*
X138773570Y-101044096D01*
X138769134Y-101046194D01*
X138764514Y-101047847D01*
X138759755Y-101049039D01*
X138754901Y-101049759D01*
X138750000Y-101050000D01*
X138650000Y-101050000D01*
X138645099Y-101049759D01*
X138640245Y-101049039D01*
X138635486Y-101047847D01*
X138630866Y-101046194D01*
X138626430Y-101044096D01*
X138622221Y-101041573D01*
X138618280Y-101038651D01*
X138614645Y-101035355D01*
X138611349Y-101031720D01*
X138608427Y-101027779D01*
X138605904Y-101023570D01*
X138603806Y-101019134D01*
X138602153Y-101014514D01*
X138600961Y-101009755D01*
X138600241Y-101004901D01*
X138600000Y-101000000D01*
X138600000Y-100300000D01*
X138600241Y-100295099D01*
X138600961Y-100290245D01*
X138602153Y-100285486D01*
X138603806Y-100280866D01*
X138605904Y-100276430D01*
X138608427Y-100272221D01*
X138611349Y-100268280D01*
X138614645Y-100264645D01*
X138618280Y-100261349D01*
X138622221Y-100258427D01*
X138626430Y-100255904D01*
X138630866Y-100253806D01*
X138635486Y-100252153D01*
X138640245Y-100250961D01*
X138645099Y-100250241D01*
X138650000Y-100250000D01*
X138750000Y-100250000D01*
X138754901Y-100250241D01*
G37*
G36*
X139154901Y-100250241D02*
G01*
X139159755Y-100250961D01*
X139164514Y-100252153D01*
X139169134Y-100253806D01*
X139173570Y-100255904D01*
X139177779Y-100258427D01*
X139181720Y-100261349D01*
X139185355Y-100264645D01*
X139188651Y-100268280D01*
X139191573Y-100272221D01*
X139194096Y-100276430D01*
X139196194Y-100280866D01*
X139197847Y-100285486D01*
X139199039Y-100290245D01*
X139199759Y-100295099D01*
X139200000Y-100300000D01*
X139200000Y-101000000D01*
X139199759Y-101004901D01*
X139199039Y-101009755D01*
X139197847Y-101014514D01*
X139196194Y-101019134D01*
X139194096Y-101023570D01*
X139191573Y-101027779D01*
X139188651Y-101031720D01*
X139185355Y-101035355D01*
X139181720Y-101038651D01*
X139177779Y-101041573D01*
X139173570Y-101044096D01*
X139169134Y-101046194D01*
X139164514Y-101047847D01*
X139159755Y-101049039D01*
X139154901Y-101049759D01*
X139150000Y-101050000D01*
X139050000Y-101050000D01*
X139045099Y-101049759D01*
X139040245Y-101049039D01*
X139035486Y-101047847D01*
X139030866Y-101046194D01*
X139026430Y-101044096D01*
X139022221Y-101041573D01*
X139018280Y-101038651D01*
X139014645Y-101035355D01*
X139011349Y-101031720D01*
X139008427Y-101027779D01*
X139005904Y-101023570D01*
X139003806Y-101019134D01*
X139002153Y-101014514D01*
X139000961Y-101009755D01*
X139000241Y-101004901D01*
X139000000Y-101000000D01*
X139000000Y-100300000D01*
X139000241Y-100295099D01*
X139000961Y-100290245D01*
X139002153Y-100285486D01*
X139003806Y-100280866D01*
X139005904Y-100276430D01*
X139008427Y-100272221D01*
X139011349Y-100268280D01*
X139014645Y-100264645D01*
X139018280Y-100261349D01*
X139022221Y-100258427D01*
X139026430Y-100255904D01*
X139030866Y-100253806D01*
X139035486Y-100252153D01*
X139040245Y-100250961D01*
X139045099Y-100250241D01*
X139050000Y-100250000D01*
X139150000Y-100250000D01*
X139154901Y-100250241D01*
G37*
G36*
X139554901Y-100250241D02*
G01*
X139559755Y-100250961D01*
X139564514Y-100252153D01*
X139569134Y-100253806D01*
X139573570Y-100255904D01*
X139577779Y-100258427D01*
X139581720Y-100261349D01*
X139585355Y-100264645D01*
X139588651Y-100268280D01*
X139591573Y-100272221D01*
X139594096Y-100276430D01*
X139596194Y-100280866D01*
X139597847Y-100285486D01*
X139599039Y-100290245D01*
X139599759Y-100295099D01*
X139600000Y-100300000D01*
X139600000Y-101000000D01*
X139599759Y-101004901D01*
X139599039Y-101009755D01*
X139597847Y-101014514D01*
X139596194Y-101019134D01*
X139594096Y-101023570D01*
X139591573Y-101027779D01*
X139588651Y-101031720D01*
X139585355Y-101035355D01*
X139581720Y-101038651D01*
X139577779Y-101041573D01*
X139573570Y-101044096D01*
X139569134Y-101046194D01*
X139564514Y-101047847D01*
X139559755Y-101049039D01*
X139554901Y-101049759D01*
X139550000Y-101050000D01*
X139450000Y-101050000D01*
X139445099Y-101049759D01*
X139440245Y-101049039D01*
X139435486Y-101047847D01*
X139430866Y-101046194D01*
X139426430Y-101044096D01*
X139422221Y-101041573D01*
X139418280Y-101038651D01*
X139414645Y-101035355D01*
X139411349Y-101031720D01*
X139408427Y-101027779D01*
X139405904Y-101023570D01*
X139403806Y-101019134D01*
X139402153Y-101014514D01*
X139400961Y-101009755D01*
X139400241Y-101004901D01*
X139400000Y-101000000D01*
X139400000Y-100300000D01*
X139400241Y-100295099D01*
X139400961Y-100290245D01*
X139402153Y-100285486D01*
X139403806Y-100280866D01*
X139405904Y-100276430D01*
X139408427Y-100272221D01*
X139411349Y-100268280D01*
X139414645Y-100264645D01*
X139418280Y-100261349D01*
X139422221Y-100258427D01*
X139426430Y-100255904D01*
X139430866Y-100253806D01*
X139435486Y-100252153D01*
X139440245Y-100250961D01*
X139445099Y-100250241D01*
X139450000Y-100250000D01*
X139550000Y-100250000D01*
X139554901Y-100250241D01*
G37*
G36*
X140604901Y-99800241D02*
G01*
X140609755Y-99800961D01*
X140614514Y-99802153D01*
X140619134Y-99803806D01*
X140623570Y-99805904D01*
X140627779Y-99808427D01*
X140631720Y-99811349D01*
X140635355Y-99814645D01*
X140638651Y-99818280D01*
X140641573Y-99822221D01*
X140644096Y-99826430D01*
X140646194Y-99830866D01*
X140647847Y-99835486D01*
X140649039Y-99840245D01*
X140649759Y-99845099D01*
X140650000Y-99850000D01*
X140650000Y-99950000D01*
X140649759Y-99954901D01*
X140649039Y-99959755D01*
X140647847Y-99964514D01*
X140646194Y-99969134D01*
X140644096Y-99973570D01*
X140641573Y-99977779D01*
X140638651Y-99981720D01*
X140635355Y-99985355D01*
X140631720Y-99988651D01*
X140627779Y-99991573D01*
X140623570Y-99994096D01*
X140619134Y-99996194D01*
X140614514Y-99997847D01*
X140609755Y-99999039D01*
X140604901Y-99999759D01*
X140600000Y-100000000D01*
X139900000Y-100000000D01*
X139895099Y-99999759D01*
X139890245Y-99999039D01*
X139885486Y-99997847D01*
X139880866Y-99996194D01*
X139876430Y-99994096D01*
X139872221Y-99991573D01*
X139868280Y-99988651D01*
X139864645Y-99985355D01*
X139861349Y-99981720D01*
X139858427Y-99977779D01*
X139855904Y-99973570D01*
X139853806Y-99969134D01*
X139852153Y-99964514D01*
X139850961Y-99959755D01*
X139850241Y-99954901D01*
X139850000Y-99950000D01*
X139850000Y-99850000D01*
X139850241Y-99845099D01*
X139850961Y-99840245D01*
X139852153Y-99835486D01*
X139853806Y-99830866D01*
X139855904Y-99826430D01*
X139858427Y-99822221D01*
X139861349Y-99818280D01*
X139864645Y-99814645D01*
X139868280Y-99811349D01*
X139872221Y-99808427D01*
X139876430Y-99805904D01*
X139880866Y-99803806D01*
X139885486Y-99802153D01*
X139890245Y-99800961D01*
X139895099Y-99800241D01*
X139900000Y-99800000D01*
X140600000Y-99800000D01*
X140604901Y-99800241D01*
G37*
G36*
X140604901Y-99400241D02*
G01*
X140609755Y-99400961D01*
X140614514Y-99402153D01*
X140619134Y-99403806D01*
X140623570Y-99405904D01*
X140627779Y-99408427D01*
X140631720Y-99411349D01*
X140635355Y-99414645D01*
X140638651Y-99418280D01*
X140641573Y-99422221D01*
X140644096Y-99426430D01*
X140646194Y-99430866D01*
X140647847Y-99435486D01*
X140649039Y-99440245D01*
X140649759Y-99445099D01*
X140650000Y-99450000D01*
X140650000Y-99550000D01*
X140649759Y-99554901D01*
X140649039Y-99559755D01*
X140647847Y-99564514D01*
X140646194Y-99569134D01*
X140644096Y-99573570D01*
X140641573Y-99577779D01*
X140638651Y-99581720D01*
X140635355Y-99585355D01*
X140631720Y-99588651D01*
X140627779Y-99591573D01*
X140623570Y-99594096D01*
X140619134Y-99596194D01*
X140614514Y-99597847D01*
X140609755Y-99599039D01*
X140604901Y-99599759D01*
X140600000Y-99600000D01*
X139900000Y-99600000D01*
X139895099Y-99599759D01*
X139890245Y-99599039D01*
X139885486Y-99597847D01*
X139880866Y-99596194D01*
X139876430Y-99594096D01*
X139872221Y-99591573D01*
X139868280Y-99588651D01*
X139864645Y-99585355D01*
X139861349Y-99581720D01*
X139858427Y-99577779D01*
X139855904Y-99573570D01*
X139853806Y-99569134D01*
X139852153Y-99564514D01*
X139850961Y-99559755D01*
X139850241Y-99554901D01*
X139850000Y-99550000D01*
X139850000Y-99450000D01*
X139850241Y-99445099D01*
X139850961Y-99440245D01*
X139852153Y-99435486D01*
X139853806Y-99430866D01*
X139855904Y-99426430D01*
X139858427Y-99422221D01*
X139861349Y-99418280D01*
X139864645Y-99414645D01*
X139868280Y-99411349D01*
X139872221Y-99408427D01*
X139876430Y-99405904D01*
X139880866Y-99403806D01*
X139885486Y-99402153D01*
X139890245Y-99400961D01*
X139895099Y-99400241D01*
X139900000Y-99400000D01*
X140600000Y-99400000D01*
X140604901Y-99400241D01*
G37*
G36*
X140604901Y-99000241D02*
G01*
X140609755Y-99000961D01*
X140614514Y-99002153D01*
X140619134Y-99003806D01*
X140623570Y-99005904D01*
X140627779Y-99008427D01*
X140631720Y-99011349D01*
X140635355Y-99014645D01*
X140638651Y-99018280D01*
X140641573Y-99022221D01*
X140644096Y-99026430D01*
X140646194Y-99030866D01*
X140647847Y-99035486D01*
X140649039Y-99040245D01*
X140649759Y-99045099D01*
X140650000Y-99050000D01*
X140650000Y-99150000D01*
X140649759Y-99154901D01*
X140649039Y-99159755D01*
X140647847Y-99164514D01*
X140646194Y-99169134D01*
X140644096Y-99173570D01*
X140641573Y-99177779D01*
X140638651Y-99181720D01*
X140635355Y-99185355D01*
X140631720Y-99188651D01*
X140627779Y-99191573D01*
X140623570Y-99194096D01*
X140619134Y-99196194D01*
X140614514Y-99197847D01*
X140609755Y-99199039D01*
X140604901Y-99199759D01*
X140600000Y-99200000D01*
X139900000Y-99200000D01*
X139895099Y-99199759D01*
X139890245Y-99199039D01*
X139885486Y-99197847D01*
X139880866Y-99196194D01*
X139876430Y-99194096D01*
X139872221Y-99191573D01*
X139868280Y-99188651D01*
X139864645Y-99185355D01*
X139861349Y-99181720D01*
X139858427Y-99177779D01*
X139855904Y-99173570D01*
X139853806Y-99169134D01*
X139852153Y-99164514D01*
X139850961Y-99159755D01*
X139850241Y-99154901D01*
X139850000Y-99150000D01*
X139850000Y-99050000D01*
X139850241Y-99045099D01*
X139850961Y-99040245D01*
X139852153Y-99035486D01*
X139853806Y-99030866D01*
X139855904Y-99026430D01*
X139858427Y-99022221D01*
X139861349Y-99018280D01*
X139864645Y-99014645D01*
X139868280Y-99011349D01*
X139872221Y-99008427D01*
X139876430Y-99005904D01*
X139880866Y-99003806D01*
X139885486Y-99002153D01*
X139890245Y-99000961D01*
X139895099Y-99000241D01*
X139900000Y-99000000D01*
X140600000Y-99000000D01*
X140604901Y-99000241D01*
G37*
G36*
X140604901Y-98600241D02*
G01*
X140609755Y-98600961D01*
X140614514Y-98602153D01*
X140619134Y-98603806D01*
X140623570Y-98605904D01*
X140627779Y-98608427D01*
X140631720Y-98611349D01*
X140635355Y-98614645D01*
X140638651Y-98618280D01*
X140641573Y-98622221D01*
X140644096Y-98626430D01*
X140646194Y-98630866D01*
X140647847Y-98635486D01*
X140649039Y-98640245D01*
X140649759Y-98645099D01*
X140650000Y-98650000D01*
X140650000Y-98750000D01*
X140649759Y-98754901D01*
X140649039Y-98759755D01*
X140647847Y-98764514D01*
X140646194Y-98769134D01*
X140644096Y-98773570D01*
X140641573Y-98777779D01*
X140638651Y-98781720D01*
X140635355Y-98785355D01*
X140631720Y-98788651D01*
X140627779Y-98791573D01*
X140623570Y-98794096D01*
X140619134Y-98796194D01*
X140614514Y-98797847D01*
X140609755Y-98799039D01*
X140604901Y-98799759D01*
X140600000Y-98800000D01*
X139900000Y-98800000D01*
X139895099Y-98799759D01*
X139890245Y-98799039D01*
X139885486Y-98797847D01*
X139880866Y-98796194D01*
X139876430Y-98794096D01*
X139872221Y-98791573D01*
X139868280Y-98788651D01*
X139864645Y-98785355D01*
X139861349Y-98781720D01*
X139858427Y-98777779D01*
X139855904Y-98773570D01*
X139853806Y-98769134D01*
X139852153Y-98764514D01*
X139850961Y-98759755D01*
X139850241Y-98754901D01*
X139850000Y-98750000D01*
X139850000Y-98650000D01*
X139850241Y-98645099D01*
X139850961Y-98640245D01*
X139852153Y-98635486D01*
X139853806Y-98630866D01*
X139855904Y-98626430D01*
X139858427Y-98622221D01*
X139861349Y-98618280D01*
X139864645Y-98614645D01*
X139868280Y-98611349D01*
X139872221Y-98608427D01*
X139876430Y-98605904D01*
X139880866Y-98603806D01*
X139885486Y-98602153D01*
X139890245Y-98600961D01*
X139895099Y-98600241D01*
X139900000Y-98600000D01*
X140600000Y-98600000D01*
X140604901Y-98600241D01*
G37*
G36*
X140604901Y-98200241D02*
G01*
X140609755Y-98200961D01*
X140614514Y-98202153D01*
X140619134Y-98203806D01*
X140623570Y-98205904D01*
X140627779Y-98208427D01*
X140631720Y-98211349D01*
X140635355Y-98214645D01*
X140638651Y-98218280D01*
X140641573Y-98222221D01*
X140644096Y-98226430D01*
X140646194Y-98230866D01*
X140647847Y-98235486D01*
X140649039Y-98240245D01*
X140649759Y-98245099D01*
X140650000Y-98250000D01*
X140650000Y-98350000D01*
X140649759Y-98354901D01*
X140649039Y-98359755D01*
X140647847Y-98364514D01*
X140646194Y-98369134D01*
X140644096Y-98373570D01*
X140641573Y-98377779D01*
X140638651Y-98381720D01*
X140635355Y-98385355D01*
X140631720Y-98388651D01*
X140627779Y-98391573D01*
X140623570Y-98394096D01*
X140619134Y-98396194D01*
X140614514Y-98397847D01*
X140609755Y-98399039D01*
X140604901Y-98399759D01*
X140600000Y-98400000D01*
X139900000Y-98400000D01*
X139895099Y-98399759D01*
X139890245Y-98399039D01*
X139885486Y-98397847D01*
X139880866Y-98396194D01*
X139876430Y-98394096D01*
X139872221Y-98391573D01*
X139868280Y-98388651D01*
X139864645Y-98385355D01*
X139861349Y-98381720D01*
X139858427Y-98377779D01*
X139855904Y-98373570D01*
X139853806Y-98369134D01*
X139852153Y-98364514D01*
X139850961Y-98359755D01*
X139850241Y-98354901D01*
X139850000Y-98350000D01*
X139850000Y-98250000D01*
X139850241Y-98245099D01*
X139850961Y-98240245D01*
X139852153Y-98235486D01*
X139853806Y-98230866D01*
X139855904Y-98226430D01*
X139858427Y-98222221D01*
X139861349Y-98218280D01*
X139864645Y-98214645D01*
X139868280Y-98211349D01*
X139872221Y-98208427D01*
X139876430Y-98205904D01*
X139880866Y-98203806D01*
X139885486Y-98202153D01*
X139890245Y-98200961D01*
X139895099Y-98200241D01*
X139900000Y-98200000D01*
X140600000Y-98200000D01*
X140604901Y-98200241D01*
G37*
G36*
X140604901Y-97800241D02*
G01*
X140609755Y-97800961D01*
X140614514Y-97802153D01*
X140619134Y-97803806D01*
X140623570Y-97805904D01*
X140627779Y-97808427D01*
X140631720Y-97811349D01*
X140635355Y-97814645D01*
X140638651Y-97818280D01*
X140641573Y-97822221D01*
X140644096Y-97826430D01*
X140646194Y-97830866D01*
X140647847Y-97835486D01*
X140649039Y-97840245D01*
X140649759Y-97845099D01*
X140650000Y-97850000D01*
X140650000Y-97950000D01*
X140649759Y-97954901D01*
X140649039Y-97959755D01*
X140647847Y-97964514D01*
X140646194Y-97969134D01*
X140644096Y-97973570D01*
X140641573Y-97977779D01*
X140638651Y-97981720D01*
X140635355Y-97985355D01*
X140631720Y-97988651D01*
X140627779Y-97991573D01*
X140623570Y-97994096D01*
X140619134Y-97996194D01*
X140614514Y-97997847D01*
X140609755Y-97999039D01*
X140604901Y-97999759D01*
X140600000Y-98000000D01*
X139900000Y-98000000D01*
X139895099Y-97999759D01*
X139890245Y-97999039D01*
X139885486Y-97997847D01*
X139880866Y-97996194D01*
X139876430Y-97994096D01*
X139872221Y-97991573D01*
X139868280Y-97988651D01*
X139864645Y-97985355D01*
X139861349Y-97981720D01*
X139858427Y-97977779D01*
X139855904Y-97973570D01*
X139853806Y-97969134D01*
X139852153Y-97964514D01*
X139850961Y-97959755D01*
X139850241Y-97954901D01*
X139850000Y-97950000D01*
X139850000Y-97850000D01*
X139850241Y-97845099D01*
X139850961Y-97840245D01*
X139852153Y-97835486D01*
X139853806Y-97830866D01*
X139855904Y-97826430D01*
X139858427Y-97822221D01*
X139861349Y-97818280D01*
X139864645Y-97814645D01*
X139868280Y-97811349D01*
X139872221Y-97808427D01*
X139876430Y-97805904D01*
X139880866Y-97803806D01*
X139885486Y-97802153D01*
X139890245Y-97800961D01*
X139895099Y-97800241D01*
X139900000Y-97800000D01*
X140600000Y-97800000D01*
X140604901Y-97800241D01*
G37*
G36*
X140604901Y-97400241D02*
G01*
X140609755Y-97400961D01*
X140614514Y-97402153D01*
X140619134Y-97403806D01*
X140623570Y-97405904D01*
X140627779Y-97408427D01*
X140631720Y-97411349D01*
X140635355Y-97414645D01*
X140638651Y-97418280D01*
X140641573Y-97422221D01*
X140644096Y-97426430D01*
X140646194Y-97430866D01*
X140647847Y-97435486D01*
X140649039Y-97440245D01*
X140649759Y-97445099D01*
X140650000Y-97450000D01*
X140650000Y-97550000D01*
X140649759Y-97554901D01*
X140649039Y-97559755D01*
X140647847Y-97564514D01*
X140646194Y-97569134D01*
X140644096Y-97573570D01*
X140641573Y-97577779D01*
X140638651Y-97581720D01*
X140635355Y-97585355D01*
X140631720Y-97588651D01*
X140627779Y-97591573D01*
X140623570Y-97594096D01*
X140619134Y-97596194D01*
X140614514Y-97597847D01*
X140609755Y-97599039D01*
X140604901Y-97599759D01*
X140600000Y-97600000D01*
X139900000Y-97600000D01*
X139895099Y-97599759D01*
X139890245Y-97599039D01*
X139885486Y-97597847D01*
X139880866Y-97596194D01*
X139876430Y-97594096D01*
X139872221Y-97591573D01*
X139868280Y-97588651D01*
X139864645Y-97585355D01*
X139861349Y-97581720D01*
X139858427Y-97577779D01*
X139855904Y-97573570D01*
X139853806Y-97569134D01*
X139852153Y-97564514D01*
X139850961Y-97559755D01*
X139850241Y-97554901D01*
X139850000Y-97550000D01*
X139850000Y-97450000D01*
X139850241Y-97445099D01*
X139850961Y-97440245D01*
X139852153Y-97435486D01*
X139853806Y-97430866D01*
X139855904Y-97426430D01*
X139858427Y-97422221D01*
X139861349Y-97418280D01*
X139864645Y-97414645D01*
X139868280Y-97411349D01*
X139872221Y-97408427D01*
X139876430Y-97405904D01*
X139880866Y-97403806D01*
X139885486Y-97402153D01*
X139890245Y-97400961D01*
X139895099Y-97400241D01*
X139900000Y-97400000D01*
X140600000Y-97400000D01*
X140604901Y-97400241D01*
G37*
G36*
X140604901Y-97000241D02*
G01*
X140609755Y-97000961D01*
X140614514Y-97002153D01*
X140619134Y-97003806D01*
X140623570Y-97005904D01*
X140627779Y-97008427D01*
X140631720Y-97011349D01*
X140635355Y-97014645D01*
X140638651Y-97018280D01*
X140641573Y-97022221D01*
X140644096Y-97026430D01*
X140646194Y-97030866D01*
X140647847Y-97035486D01*
X140649039Y-97040245D01*
X140649759Y-97045099D01*
X140650000Y-97050000D01*
X140650000Y-97150000D01*
X140649759Y-97154901D01*
X140649039Y-97159755D01*
X140647847Y-97164514D01*
X140646194Y-97169134D01*
X140644096Y-97173570D01*
X140641573Y-97177779D01*
X140638651Y-97181720D01*
X140635355Y-97185355D01*
X140631720Y-97188651D01*
X140627779Y-97191573D01*
X140623570Y-97194096D01*
X140619134Y-97196194D01*
X140614514Y-97197847D01*
X140609755Y-97199039D01*
X140604901Y-97199759D01*
X140600000Y-97200000D01*
X139900000Y-97200000D01*
X139895099Y-97199759D01*
X139890245Y-97199039D01*
X139885486Y-97197847D01*
X139880866Y-97196194D01*
X139876430Y-97194096D01*
X139872221Y-97191573D01*
X139868280Y-97188651D01*
X139864645Y-97185355D01*
X139861349Y-97181720D01*
X139858427Y-97177779D01*
X139855904Y-97173570D01*
X139853806Y-97169134D01*
X139852153Y-97164514D01*
X139850961Y-97159755D01*
X139850241Y-97154901D01*
X139850000Y-97150000D01*
X139850000Y-97050000D01*
X139850241Y-97045099D01*
X139850961Y-97040245D01*
X139852153Y-97035486D01*
X139853806Y-97030866D01*
X139855904Y-97026430D01*
X139858427Y-97022221D01*
X139861349Y-97018280D01*
X139864645Y-97014645D01*
X139868280Y-97011349D01*
X139872221Y-97008427D01*
X139876430Y-97005904D01*
X139880866Y-97003806D01*
X139885486Y-97002153D01*
X139890245Y-97000961D01*
X139895099Y-97000241D01*
X139900000Y-97000000D01*
X140600000Y-97000000D01*
X140604901Y-97000241D01*
G37*
G36*
X140604901Y-96600241D02*
G01*
X140609755Y-96600961D01*
X140614514Y-96602153D01*
X140619134Y-96603806D01*
X140623570Y-96605904D01*
X140627779Y-96608427D01*
X140631720Y-96611349D01*
X140635355Y-96614645D01*
X140638651Y-96618280D01*
X140641573Y-96622221D01*
X140644096Y-96626430D01*
X140646194Y-96630866D01*
X140647847Y-96635486D01*
X140649039Y-96640245D01*
X140649759Y-96645099D01*
X140650000Y-96650000D01*
X140650000Y-96750000D01*
X140649759Y-96754901D01*
X140649039Y-96759755D01*
X140647847Y-96764514D01*
X140646194Y-96769134D01*
X140644096Y-96773570D01*
X140641573Y-96777779D01*
X140638651Y-96781720D01*
X140635355Y-96785355D01*
X140631720Y-96788651D01*
X140627779Y-96791573D01*
X140623570Y-96794096D01*
X140619134Y-96796194D01*
X140614514Y-96797847D01*
X140609755Y-96799039D01*
X140604901Y-96799759D01*
X140600000Y-96800000D01*
X139900000Y-96800000D01*
X139895099Y-96799759D01*
X139890245Y-96799039D01*
X139885486Y-96797847D01*
X139880866Y-96796194D01*
X139876430Y-96794096D01*
X139872221Y-96791573D01*
X139868280Y-96788651D01*
X139864645Y-96785355D01*
X139861349Y-96781720D01*
X139858427Y-96777779D01*
X139855904Y-96773570D01*
X139853806Y-96769134D01*
X139852153Y-96764514D01*
X139850961Y-96759755D01*
X139850241Y-96754901D01*
X139850000Y-96750000D01*
X139850000Y-96650000D01*
X139850241Y-96645099D01*
X139850961Y-96640245D01*
X139852153Y-96635486D01*
X139853806Y-96630866D01*
X139855904Y-96626430D01*
X139858427Y-96622221D01*
X139861349Y-96618280D01*
X139864645Y-96614645D01*
X139868280Y-96611349D01*
X139872221Y-96608427D01*
X139876430Y-96605904D01*
X139880866Y-96603806D01*
X139885486Y-96602153D01*
X139890245Y-96600961D01*
X139895099Y-96600241D01*
X139900000Y-96600000D01*
X140600000Y-96600000D01*
X140604901Y-96600241D01*
G37*
G36*
X140604901Y-96200241D02*
G01*
X140609755Y-96200961D01*
X140614514Y-96202153D01*
X140619134Y-96203806D01*
X140623570Y-96205904D01*
X140627779Y-96208427D01*
X140631720Y-96211349D01*
X140635355Y-96214645D01*
X140638651Y-96218280D01*
X140641573Y-96222221D01*
X140644096Y-96226430D01*
X140646194Y-96230866D01*
X140647847Y-96235486D01*
X140649039Y-96240245D01*
X140649759Y-96245099D01*
X140650000Y-96250000D01*
X140650000Y-96350000D01*
X140649759Y-96354901D01*
X140649039Y-96359755D01*
X140647847Y-96364514D01*
X140646194Y-96369134D01*
X140644096Y-96373570D01*
X140641573Y-96377779D01*
X140638651Y-96381720D01*
X140635355Y-96385355D01*
X140631720Y-96388651D01*
X140627779Y-96391573D01*
X140623570Y-96394096D01*
X140619134Y-96396194D01*
X140614514Y-96397847D01*
X140609755Y-96399039D01*
X140604901Y-96399759D01*
X140600000Y-96400000D01*
X139900000Y-96400000D01*
X139895099Y-96399759D01*
X139890245Y-96399039D01*
X139885486Y-96397847D01*
X139880866Y-96396194D01*
X139876430Y-96394096D01*
X139872221Y-96391573D01*
X139868280Y-96388651D01*
X139864645Y-96385355D01*
X139861349Y-96381720D01*
X139858427Y-96377779D01*
X139855904Y-96373570D01*
X139853806Y-96369134D01*
X139852153Y-96364514D01*
X139850961Y-96359755D01*
X139850241Y-96354901D01*
X139850000Y-96350000D01*
X139850000Y-96250000D01*
X139850241Y-96245099D01*
X139850961Y-96240245D01*
X139852153Y-96235486D01*
X139853806Y-96230866D01*
X139855904Y-96226430D01*
X139858427Y-96222221D01*
X139861349Y-96218280D01*
X139864645Y-96214645D01*
X139868280Y-96211349D01*
X139872221Y-96208427D01*
X139876430Y-96205904D01*
X139880866Y-96203806D01*
X139885486Y-96202153D01*
X139890245Y-96200961D01*
X139895099Y-96200241D01*
X139900000Y-96200000D01*
X140600000Y-96200000D01*
X140604901Y-96200241D01*
G37*
G36*
X140604901Y-95800241D02*
G01*
X140609755Y-95800961D01*
X140614514Y-95802153D01*
X140619134Y-95803806D01*
X140623570Y-95805904D01*
X140627779Y-95808427D01*
X140631720Y-95811349D01*
X140635355Y-95814645D01*
X140638651Y-95818280D01*
X140641573Y-95822221D01*
X140644096Y-95826430D01*
X140646194Y-95830866D01*
X140647847Y-95835486D01*
X140649039Y-95840245D01*
X140649759Y-95845099D01*
X140650000Y-95850000D01*
X140650000Y-95950000D01*
X140649759Y-95954901D01*
X140649039Y-95959755D01*
X140647847Y-95964514D01*
X140646194Y-95969134D01*
X140644096Y-95973570D01*
X140641573Y-95977779D01*
X140638651Y-95981720D01*
X140635355Y-95985355D01*
X140631720Y-95988651D01*
X140627779Y-95991573D01*
X140623570Y-95994096D01*
X140619134Y-95996194D01*
X140614514Y-95997847D01*
X140609755Y-95999039D01*
X140604901Y-95999759D01*
X140600000Y-96000000D01*
X139900000Y-96000000D01*
X139895099Y-95999759D01*
X139890245Y-95999039D01*
X139885486Y-95997847D01*
X139880866Y-95996194D01*
X139876430Y-95994096D01*
X139872221Y-95991573D01*
X139868280Y-95988651D01*
X139864645Y-95985355D01*
X139861349Y-95981720D01*
X139858427Y-95977779D01*
X139855904Y-95973570D01*
X139853806Y-95969134D01*
X139852153Y-95964514D01*
X139850961Y-95959755D01*
X139850241Y-95954901D01*
X139850000Y-95950000D01*
X139850000Y-95850000D01*
X139850241Y-95845099D01*
X139850961Y-95840245D01*
X139852153Y-95835486D01*
X139853806Y-95830866D01*
X139855904Y-95826430D01*
X139858427Y-95822221D01*
X139861349Y-95818280D01*
X139864645Y-95814645D01*
X139868280Y-95811349D01*
X139872221Y-95808427D01*
X139876430Y-95805904D01*
X139880866Y-95803806D01*
X139885486Y-95802153D01*
X139890245Y-95800961D01*
X139895099Y-95800241D01*
X139900000Y-95800000D01*
X140600000Y-95800000D01*
X140604901Y-95800241D01*
G37*
G36*
X140604901Y-95400241D02*
G01*
X140609755Y-95400961D01*
X140614514Y-95402153D01*
X140619134Y-95403806D01*
X140623570Y-95405904D01*
X140627779Y-95408427D01*
X140631720Y-95411349D01*
X140635355Y-95414645D01*
X140638651Y-95418280D01*
X140641573Y-95422221D01*
X140644096Y-95426430D01*
X140646194Y-95430866D01*
X140647847Y-95435486D01*
X140649039Y-95440245D01*
X140649759Y-95445099D01*
X140650000Y-95450000D01*
X140650000Y-95550000D01*
X140649759Y-95554901D01*
X140649039Y-95559755D01*
X140647847Y-95564514D01*
X140646194Y-95569134D01*
X140644096Y-95573570D01*
X140641573Y-95577779D01*
X140638651Y-95581720D01*
X140635355Y-95585355D01*
X140631720Y-95588651D01*
X140627779Y-95591573D01*
X140623570Y-95594096D01*
X140619134Y-95596194D01*
X140614514Y-95597847D01*
X140609755Y-95599039D01*
X140604901Y-95599759D01*
X140600000Y-95600000D01*
X139900000Y-95600000D01*
X139895099Y-95599759D01*
X139890245Y-95599039D01*
X139885486Y-95597847D01*
X139880866Y-95596194D01*
X139876430Y-95594096D01*
X139872221Y-95591573D01*
X139868280Y-95588651D01*
X139864645Y-95585355D01*
X139861349Y-95581720D01*
X139858427Y-95577779D01*
X139855904Y-95573570D01*
X139853806Y-95569134D01*
X139852153Y-95564514D01*
X139850961Y-95559755D01*
X139850241Y-95554901D01*
X139850000Y-95550000D01*
X139850000Y-95450000D01*
X139850241Y-95445099D01*
X139850961Y-95440245D01*
X139852153Y-95435486D01*
X139853806Y-95430866D01*
X139855904Y-95426430D01*
X139858427Y-95422221D01*
X139861349Y-95418280D01*
X139864645Y-95414645D01*
X139868280Y-95411349D01*
X139872221Y-95408427D01*
X139876430Y-95405904D01*
X139880866Y-95403806D01*
X139885486Y-95402153D01*
X139890245Y-95400961D01*
X139895099Y-95400241D01*
X139900000Y-95400000D01*
X140600000Y-95400000D01*
X140604901Y-95400241D01*
G37*
G36*
X139554901Y-94350241D02*
G01*
X139559755Y-94350961D01*
X139564514Y-94352153D01*
X139569134Y-94353806D01*
X139573570Y-94355904D01*
X139577779Y-94358427D01*
X139581720Y-94361349D01*
X139585355Y-94364645D01*
X139588651Y-94368280D01*
X139591573Y-94372221D01*
X139594096Y-94376430D01*
X139596194Y-94380866D01*
X139597847Y-94385486D01*
X139599039Y-94390245D01*
X139599759Y-94395099D01*
X139600000Y-94400000D01*
X139600000Y-95100000D01*
X139599759Y-95104901D01*
X139599039Y-95109755D01*
X139597847Y-95114514D01*
X139596194Y-95119134D01*
X139594096Y-95123570D01*
X139591573Y-95127779D01*
X139588651Y-95131720D01*
X139585355Y-95135355D01*
X139581720Y-95138651D01*
X139577779Y-95141573D01*
X139573570Y-95144096D01*
X139569134Y-95146194D01*
X139564514Y-95147847D01*
X139559755Y-95149039D01*
X139554901Y-95149759D01*
X139550000Y-95150000D01*
X139450000Y-95150000D01*
X139445099Y-95149759D01*
X139440245Y-95149039D01*
X139435486Y-95147847D01*
X139430866Y-95146194D01*
X139426430Y-95144096D01*
X139422221Y-95141573D01*
X139418280Y-95138651D01*
X139414645Y-95135355D01*
X139411349Y-95131720D01*
X139408427Y-95127779D01*
X139405904Y-95123570D01*
X139403806Y-95119134D01*
X139402153Y-95114514D01*
X139400961Y-95109755D01*
X139400241Y-95104901D01*
X139400000Y-95100000D01*
X139400000Y-94400000D01*
X139400241Y-94395099D01*
X139400961Y-94390245D01*
X139402153Y-94385486D01*
X139403806Y-94380866D01*
X139405904Y-94376430D01*
X139408427Y-94372221D01*
X139411349Y-94368280D01*
X139414645Y-94364645D01*
X139418280Y-94361349D01*
X139422221Y-94358427D01*
X139426430Y-94355904D01*
X139430866Y-94353806D01*
X139435486Y-94352153D01*
X139440245Y-94350961D01*
X139445099Y-94350241D01*
X139450000Y-94350000D01*
X139550000Y-94350000D01*
X139554901Y-94350241D01*
G37*
G36*
X139154901Y-94350241D02*
G01*
X139159755Y-94350961D01*
X139164514Y-94352153D01*
X139169134Y-94353806D01*
X139173570Y-94355904D01*
X139177779Y-94358427D01*
X139181720Y-94361349D01*
X139185355Y-94364645D01*
X139188651Y-94368280D01*
X139191573Y-94372221D01*
X139194096Y-94376430D01*
X139196194Y-94380866D01*
X139197847Y-94385486D01*
X139199039Y-94390245D01*
X139199759Y-94395099D01*
X139200000Y-94400000D01*
X139200000Y-95100000D01*
X139199759Y-95104901D01*
X139199039Y-95109755D01*
X139197847Y-95114514D01*
X139196194Y-95119134D01*
X139194096Y-95123570D01*
X139191573Y-95127779D01*
X139188651Y-95131720D01*
X139185355Y-95135355D01*
X139181720Y-95138651D01*
X139177779Y-95141573D01*
X139173570Y-95144096D01*
X139169134Y-95146194D01*
X139164514Y-95147847D01*
X139159755Y-95149039D01*
X139154901Y-95149759D01*
X139150000Y-95150000D01*
X139050000Y-95150000D01*
X139045099Y-95149759D01*
X139040245Y-95149039D01*
X139035486Y-95147847D01*
X139030866Y-95146194D01*
X139026430Y-95144096D01*
X139022221Y-95141573D01*
X139018280Y-95138651D01*
X139014645Y-95135355D01*
X139011349Y-95131720D01*
X139008427Y-95127779D01*
X139005904Y-95123570D01*
X139003806Y-95119134D01*
X139002153Y-95114514D01*
X139000961Y-95109755D01*
X139000241Y-95104901D01*
X139000000Y-95100000D01*
X139000000Y-94400000D01*
X139000241Y-94395099D01*
X139000961Y-94390245D01*
X139002153Y-94385486D01*
X139003806Y-94380866D01*
X139005904Y-94376430D01*
X139008427Y-94372221D01*
X139011349Y-94368280D01*
X139014645Y-94364645D01*
X139018280Y-94361349D01*
X139022221Y-94358427D01*
X139026430Y-94355904D01*
X139030866Y-94353806D01*
X139035486Y-94352153D01*
X139040245Y-94350961D01*
X139045099Y-94350241D01*
X139050000Y-94350000D01*
X139150000Y-94350000D01*
X139154901Y-94350241D01*
G37*
G36*
X138754901Y-94350241D02*
G01*
X138759755Y-94350961D01*
X138764514Y-94352153D01*
X138769134Y-94353806D01*
X138773570Y-94355904D01*
X138777779Y-94358427D01*
X138781720Y-94361349D01*
X138785355Y-94364645D01*
X138788651Y-94368280D01*
X138791573Y-94372221D01*
X138794096Y-94376430D01*
X138796194Y-94380866D01*
X138797847Y-94385486D01*
X138799039Y-94390245D01*
X138799759Y-94395099D01*
X138800000Y-94400000D01*
X138800000Y-95100000D01*
X138799759Y-95104901D01*
X138799039Y-95109755D01*
X138797847Y-95114514D01*
X138796194Y-95119134D01*
X138794096Y-95123570D01*
X138791573Y-95127779D01*
X138788651Y-95131720D01*
X138785355Y-95135355D01*
X138781720Y-95138651D01*
X138777779Y-95141573D01*
X138773570Y-95144096D01*
X138769134Y-95146194D01*
X138764514Y-95147847D01*
X138759755Y-95149039D01*
X138754901Y-95149759D01*
X138750000Y-95150000D01*
X138650000Y-95150000D01*
X138645099Y-95149759D01*
X138640245Y-95149039D01*
X138635486Y-95147847D01*
X138630866Y-95146194D01*
X138626430Y-95144096D01*
X138622221Y-95141573D01*
X138618280Y-95138651D01*
X138614645Y-95135355D01*
X138611349Y-95131720D01*
X138608427Y-95127779D01*
X138605904Y-95123570D01*
X138603806Y-95119134D01*
X138602153Y-95114514D01*
X138600961Y-95109755D01*
X138600241Y-95104901D01*
X138600000Y-95100000D01*
X138600000Y-94400000D01*
X138600241Y-94395099D01*
X138600961Y-94390245D01*
X138602153Y-94385486D01*
X138603806Y-94380866D01*
X138605904Y-94376430D01*
X138608427Y-94372221D01*
X138611349Y-94368280D01*
X138614645Y-94364645D01*
X138618280Y-94361349D01*
X138622221Y-94358427D01*
X138626430Y-94355904D01*
X138630866Y-94353806D01*
X138635486Y-94352153D01*
X138640245Y-94350961D01*
X138645099Y-94350241D01*
X138650000Y-94350000D01*
X138750000Y-94350000D01*
X138754901Y-94350241D01*
G37*
G36*
X138354901Y-94350241D02*
G01*
X138359755Y-94350961D01*
X138364514Y-94352153D01*
X138369134Y-94353806D01*
X138373570Y-94355904D01*
X138377779Y-94358427D01*
X138381720Y-94361349D01*
X138385355Y-94364645D01*
X138388651Y-94368280D01*
X138391573Y-94372221D01*
X138394096Y-94376430D01*
X138396194Y-94380866D01*
X138397847Y-94385486D01*
X138399039Y-94390245D01*
X138399759Y-94395099D01*
X138400000Y-94400000D01*
X138400000Y-95100000D01*
X138399759Y-95104901D01*
X138399039Y-95109755D01*
X138397847Y-95114514D01*
X138396194Y-95119134D01*
X138394096Y-95123570D01*
X138391573Y-95127779D01*
X138388651Y-95131720D01*
X138385355Y-95135355D01*
X138381720Y-95138651D01*
X138377779Y-95141573D01*
X138373570Y-95144096D01*
X138369134Y-95146194D01*
X138364514Y-95147847D01*
X138359755Y-95149039D01*
X138354901Y-95149759D01*
X138350000Y-95150000D01*
X138250000Y-95150000D01*
X138245099Y-95149759D01*
X138240245Y-95149039D01*
X138235486Y-95147847D01*
X138230866Y-95146194D01*
X138226430Y-95144096D01*
X138222221Y-95141573D01*
X138218280Y-95138651D01*
X138214645Y-95135355D01*
X138211349Y-95131720D01*
X138208427Y-95127779D01*
X138205904Y-95123570D01*
X138203806Y-95119134D01*
X138202153Y-95114514D01*
X138200961Y-95109755D01*
X138200241Y-95104901D01*
X138200000Y-95100000D01*
X138200000Y-94400000D01*
X138200241Y-94395099D01*
X138200961Y-94390245D01*
X138202153Y-94385486D01*
X138203806Y-94380866D01*
X138205904Y-94376430D01*
X138208427Y-94372221D01*
X138211349Y-94368280D01*
X138214645Y-94364645D01*
X138218280Y-94361349D01*
X138222221Y-94358427D01*
X138226430Y-94355904D01*
X138230866Y-94353806D01*
X138235486Y-94352153D01*
X138240245Y-94350961D01*
X138245099Y-94350241D01*
X138250000Y-94350000D01*
X138350000Y-94350000D01*
X138354901Y-94350241D01*
G37*
G36*
X137954901Y-94350241D02*
G01*
X137959755Y-94350961D01*
X137964514Y-94352153D01*
X137969134Y-94353806D01*
X137973570Y-94355904D01*
X137977779Y-94358427D01*
X137981720Y-94361349D01*
X137985355Y-94364645D01*
X137988651Y-94368280D01*
X137991573Y-94372221D01*
X137994096Y-94376430D01*
X137996194Y-94380866D01*
X137997847Y-94385486D01*
X137999039Y-94390245D01*
X137999759Y-94395099D01*
X138000000Y-94400000D01*
X138000000Y-95100000D01*
X137999759Y-95104901D01*
X137999039Y-95109755D01*
X137997847Y-95114514D01*
X137996194Y-95119134D01*
X137994096Y-95123570D01*
X137991573Y-95127779D01*
X137988651Y-95131720D01*
X137985355Y-95135355D01*
X137981720Y-95138651D01*
X137977779Y-95141573D01*
X137973570Y-95144096D01*
X137969134Y-95146194D01*
X137964514Y-95147847D01*
X137959755Y-95149039D01*
X137954901Y-95149759D01*
X137950000Y-95150000D01*
X137850000Y-95150000D01*
X137845099Y-95149759D01*
X137840245Y-95149039D01*
X137835486Y-95147847D01*
X137830866Y-95146194D01*
X137826430Y-95144096D01*
X137822221Y-95141573D01*
X137818280Y-95138651D01*
X137814645Y-95135355D01*
X137811349Y-95131720D01*
X137808427Y-95127779D01*
X137805904Y-95123570D01*
X137803806Y-95119134D01*
X137802153Y-95114514D01*
X137800961Y-95109755D01*
X137800241Y-95104901D01*
X137800000Y-95100000D01*
X137800000Y-94400000D01*
X137800241Y-94395099D01*
X137800961Y-94390245D01*
X137802153Y-94385486D01*
X137803806Y-94380866D01*
X137805904Y-94376430D01*
X137808427Y-94372221D01*
X137811349Y-94368280D01*
X137814645Y-94364645D01*
X137818280Y-94361349D01*
X137822221Y-94358427D01*
X137826430Y-94355904D01*
X137830866Y-94353806D01*
X137835486Y-94352153D01*
X137840245Y-94350961D01*
X137845099Y-94350241D01*
X137850000Y-94350000D01*
X137950000Y-94350000D01*
X137954901Y-94350241D01*
G37*
G36*
X137554901Y-94350241D02*
G01*
X137559755Y-94350961D01*
X137564514Y-94352153D01*
X137569134Y-94353806D01*
X137573570Y-94355904D01*
X137577779Y-94358427D01*
X137581720Y-94361349D01*
X137585355Y-94364645D01*
X137588651Y-94368280D01*
X137591573Y-94372221D01*
X137594096Y-94376430D01*
X137596194Y-94380866D01*
X137597847Y-94385486D01*
X137599039Y-94390245D01*
X137599759Y-94395099D01*
X137600000Y-94400000D01*
X137600000Y-95100000D01*
X137599759Y-95104901D01*
X137599039Y-95109755D01*
X137597847Y-95114514D01*
X137596194Y-95119134D01*
X137594096Y-95123570D01*
X137591573Y-95127779D01*
X137588651Y-95131720D01*
X137585355Y-95135355D01*
X137581720Y-95138651D01*
X137577779Y-95141573D01*
X137573570Y-95144096D01*
X137569134Y-95146194D01*
X137564514Y-95147847D01*
X137559755Y-95149039D01*
X137554901Y-95149759D01*
X137550000Y-95150000D01*
X137450000Y-95150000D01*
X137445099Y-95149759D01*
X137440245Y-95149039D01*
X137435486Y-95147847D01*
X137430866Y-95146194D01*
X137426430Y-95144096D01*
X137422221Y-95141573D01*
X137418280Y-95138651D01*
X137414645Y-95135355D01*
X137411349Y-95131720D01*
X137408427Y-95127779D01*
X137405904Y-95123570D01*
X137403806Y-95119134D01*
X137402153Y-95114514D01*
X137400961Y-95109755D01*
X137400241Y-95104901D01*
X137400000Y-95100000D01*
X137400000Y-94400000D01*
X137400241Y-94395099D01*
X137400961Y-94390245D01*
X137402153Y-94385486D01*
X137403806Y-94380866D01*
X137405904Y-94376430D01*
X137408427Y-94372221D01*
X137411349Y-94368280D01*
X137414645Y-94364645D01*
X137418280Y-94361349D01*
X137422221Y-94358427D01*
X137426430Y-94355904D01*
X137430866Y-94353806D01*
X137435486Y-94352153D01*
X137440245Y-94350961D01*
X137445099Y-94350241D01*
X137450000Y-94350000D01*
X137550000Y-94350000D01*
X137554901Y-94350241D01*
G37*
G36*
X137154901Y-94350241D02*
G01*
X137159755Y-94350961D01*
X137164514Y-94352153D01*
X137169134Y-94353806D01*
X137173570Y-94355904D01*
X137177779Y-94358427D01*
X137181720Y-94361349D01*
X137185355Y-94364645D01*
X137188651Y-94368280D01*
X137191573Y-94372221D01*
X137194096Y-94376430D01*
X137196194Y-94380866D01*
X137197847Y-94385486D01*
X137199039Y-94390245D01*
X137199759Y-94395099D01*
X137200000Y-94400000D01*
X137200000Y-95100000D01*
X137199759Y-95104901D01*
X137199039Y-95109755D01*
X137197847Y-95114514D01*
X137196194Y-95119134D01*
X137194096Y-95123570D01*
X137191573Y-95127779D01*
X137188651Y-95131720D01*
X137185355Y-95135355D01*
X137181720Y-95138651D01*
X137177779Y-95141573D01*
X137173570Y-95144096D01*
X137169134Y-95146194D01*
X137164514Y-95147847D01*
X137159755Y-95149039D01*
X137154901Y-95149759D01*
X137150000Y-95150000D01*
X137050000Y-95150000D01*
X137045099Y-95149759D01*
X137040245Y-95149039D01*
X137035486Y-95147847D01*
X137030866Y-95146194D01*
X137026430Y-95144096D01*
X137022221Y-95141573D01*
X137018280Y-95138651D01*
X137014645Y-95135355D01*
X137011349Y-95131720D01*
X137008427Y-95127779D01*
X137005904Y-95123570D01*
X137003806Y-95119134D01*
X137002153Y-95114514D01*
X137000961Y-95109755D01*
X137000241Y-95104901D01*
X137000000Y-95100000D01*
X137000000Y-94400000D01*
X137000241Y-94395099D01*
X137000961Y-94390245D01*
X137002153Y-94385486D01*
X137003806Y-94380866D01*
X137005904Y-94376430D01*
X137008427Y-94372221D01*
X137011349Y-94368280D01*
X137014645Y-94364645D01*
X137018280Y-94361349D01*
X137022221Y-94358427D01*
X137026430Y-94355904D01*
X137030866Y-94353806D01*
X137035486Y-94352153D01*
X137040245Y-94350961D01*
X137045099Y-94350241D01*
X137050000Y-94350000D01*
X137150000Y-94350000D01*
X137154901Y-94350241D01*
G37*
G36*
X136754901Y-94350241D02*
G01*
X136759755Y-94350961D01*
X136764514Y-94352153D01*
X136769134Y-94353806D01*
X136773570Y-94355904D01*
X136777779Y-94358427D01*
X136781720Y-94361349D01*
X136785355Y-94364645D01*
X136788651Y-94368280D01*
X136791573Y-94372221D01*
X136794096Y-94376430D01*
X136796194Y-94380866D01*
X136797847Y-94385486D01*
X136799039Y-94390245D01*
X136799759Y-94395099D01*
X136800000Y-94400000D01*
X136800000Y-95100000D01*
X136799759Y-95104901D01*
X136799039Y-95109755D01*
X136797847Y-95114514D01*
X136796194Y-95119134D01*
X136794096Y-95123570D01*
X136791573Y-95127779D01*
X136788651Y-95131720D01*
X136785355Y-95135355D01*
X136781720Y-95138651D01*
X136777779Y-95141573D01*
X136773570Y-95144096D01*
X136769134Y-95146194D01*
X136764514Y-95147847D01*
X136759755Y-95149039D01*
X136754901Y-95149759D01*
X136750000Y-95150000D01*
X136650000Y-95150000D01*
X136645099Y-95149759D01*
X136640245Y-95149039D01*
X136635486Y-95147847D01*
X136630866Y-95146194D01*
X136626430Y-95144096D01*
X136622221Y-95141573D01*
X136618280Y-95138651D01*
X136614645Y-95135355D01*
X136611349Y-95131720D01*
X136608427Y-95127779D01*
X136605904Y-95123570D01*
X136603806Y-95119134D01*
X136602153Y-95114514D01*
X136600961Y-95109755D01*
X136600241Y-95104901D01*
X136600000Y-95100000D01*
X136600000Y-94400000D01*
X136600241Y-94395099D01*
X136600961Y-94390245D01*
X136602153Y-94385486D01*
X136603806Y-94380866D01*
X136605904Y-94376430D01*
X136608427Y-94372221D01*
X136611349Y-94368280D01*
X136614645Y-94364645D01*
X136618280Y-94361349D01*
X136622221Y-94358427D01*
X136626430Y-94355904D01*
X136630866Y-94353806D01*
X136635486Y-94352153D01*
X136640245Y-94350961D01*
X136645099Y-94350241D01*
X136650000Y-94350000D01*
X136750000Y-94350000D01*
X136754901Y-94350241D01*
G37*
G36*
X136354901Y-94350241D02*
G01*
X136359755Y-94350961D01*
X136364514Y-94352153D01*
X136369134Y-94353806D01*
X136373570Y-94355904D01*
X136377779Y-94358427D01*
X136381720Y-94361349D01*
X136385355Y-94364645D01*
X136388651Y-94368280D01*
X136391573Y-94372221D01*
X136394096Y-94376430D01*
X136396194Y-94380866D01*
X136397847Y-94385486D01*
X136399039Y-94390245D01*
X136399759Y-94395099D01*
X136400000Y-94400000D01*
X136400000Y-95100000D01*
X136399759Y-95104901D01*
X136399039Y-95109755D01*
X136397847Y-95114514D01*
X136396194Y-95119134D01*
X136394096Y-95123570D01*
X136391573Y-95127779D01*
X136388651Y-95131720D01*
X136385355Y-95135355D01*
X136381720Y-95138651D01*
X136377779Y-95141573D01*
X136373570Y-95144096D01*
X136369134Y-95146194D01*
X136364514Y-95147847D01*
X136359755Y-95149039D01*
X136354901Y-95149759D01*
X136350000Y-95150000D01*
X136250000Y-95150000D01*
X136245099Y-95149759D01*
X136240245Y-95149039D01*
X136235486Y-95147847D01*
X136230866Y-95146194D01*
X136226430Y-95144096D01*
X136222221Y-95141573D01*
X136218280Y-95138651D01*
X136214645Y-95135355D01*
X136211349Y-95131720D01*
X136208427Y-95127779D01*
X136205904Y-95123570D01*
X136203806Y-95119134D01*
X136202153Y-95114514D01*
X136200961Y-95109755D01*
X136200241Y-95104901D01*
X136200000Y-95100000D01*
X136200000Y-94400000D01*
X136200241Y-94395099D01*
X136200961Y-94390245D01*
X136202153Y-94385486D01*
X136203806Y-94380866D01*
X136205904Y-94376430D01*
X136208427Y-94372221D01*
X136211349Y-94368280D01*
X136214645Y-94364645D01*
X136218280Y-94361349D01*
X136222221Y-94358427D01*
X136226430Y-94355904D01*
X136230866Y-94353806D01*
X136235486Y-94352153D01*
X136240245Y-94350961D01*
X136245099Y-94350241D01*
X136250000Y-94350000D01*
X136350000Y-94350000D01*
X136354901Y-94350241D01*
G37*
G36*
X135954901Y-94350241D02*
G01*
X135959755Y-94350961D01*
X135964514Y-94352153D01*
X135969134Y-94353806D01*
X135973570Y-94355904D01*
X135977779Y-94358427D01*
X135981720Y-94361349D01*
X135985355Y-94364645D01*
X135988651Y-94368280D01*
X135991573Y-94372221D01*
X135994096Y-94376430D01*
X135996194Y-94380866D01*
X135997847Y-94385486D01*
X135999039Y-94390245D01*
X135999759Y-94395099D01*
X136000000Y-94400000D01*
X136000000Y-95100000D01*
X135999759Y-95104901D01*
X135999039Y-95109755D01*
X135997847Y-95114514D01*
X135996194Y-95119134D01*
X135994096Y-95123570D01*
X135991573Y-95127779D01*
X135988651Y-95131720D01*
X135985355Y-95135355D01*
X135981720Y-95138651D01*
X135977779Y-95141573D01*
X135973570Y-95144096D01*
X135969134Y-95146194D01*
X135964514Y-95147847D01*
X135959755Y-95149039D01*
X135954901Y-95149759D01*
X135950000Y-95150000D01*
X135850000Y-95150000D01*
X135845099Y-95149759D01*
X135840245Y-95149039D01*
X135835486Y-95147847D01*
X135830866Y-95146194D01*
X135826430Y-95144096D01*
X135822221Y-95141573D01*
X135818280Y-95138651D01*
X135814645Y-95135355D01*
X135811349Y-95131720D01*
X135808427Y-95127779D01*
X135805904Y-95123570D01*
X135803806Y-95119134D01*
X135802153Y-95114514D01*
X135800961Y-95109755D01*
X135800241Y-95104901D01*
X135800000Y-95100000D01*
X135800000Y-94400000D01*
X135800241Y-94395099D01*
X135800961Y-94390245D01*
X135802153Y-94385486D01*
X135803806Y-94380866D01*
X135805904Y-94376430D01*
X135808427Y-94372221D01*
X135811349Y-94368280D01*
X135814645Y-94364645D01*
X135818280Y-94361349D01*
X135822221Y-94358427D01*
X135826430Y-94355904D01*
X135830866Y-94353806D01*
X135835486Y-94352153D01*
X135840245Y-94350961D01*
X135845099Y-94350241D01*
X135850000Y-94350000D01*
X135950000Y-94350000D01*
X135954901Y-94350241D01*
G37*
G36*
X135554901Y-94350241D02*
G01*
X135559755Y-94350961D01*
X135564514Y-94352153D01*
X135569134Y-94353806D01*
X135573570Y-94355904D01*
X135577779Y-94358427D01*
X135581720Y-94361349D01*
X135585355Y-94364645D01*
X135588651Y-94368280D01*
X135591573Y-94372221D01*
X135594096Y-94376430D01*
X135596194Y-94380866D01*
X135597847Y-94385486D01*
X135599039Y-94390245D01*
X135599759Y-94395099D01*
X135600000Y-94400000D01*
X135600000Y-95100000D01*
X135599759Y-95104901D01*
X135599039Y-95109755D01*
X135597847Y-95114514D01*
X135596194Y-95119134D01*
X135594096Y-95123570D01*
X135591573Y-95127779D01*
X135588651Y-95131720D01*
X135585355Y-95135355D01*
X135581720Y-95138651D01*
X135577779Y-95141573D01*
X135573570Y-95144096D01*
X135569134Y-95146194D01*
X135564514Y-95147847D01*
X135559755Y-95149039D01*
X135554901Y-95149759D01*
X135550000Y-95150000D01*
X135450000Y-95150000D01*
X135445099Y-95149759D01*
X135440245Y-95149039D01*
X135435486Y-95147847D01*
X135430866Y-95146194D01*
X135426430Y-95144096D01*
X135422221Y-95141573D01*
X135418280Y-95138651D01*
X135414645Y-95135355D01*
X135411349Y-95131720D01*
X135408427Y-95127779D01*
X135405904Y-95123570D01*
X135403806Y-95119134D01*
X135402153Y-95114514D01*
X135400961Y-95109755D01*
X135400241Y-95104901D01*
X135400000Y-95100000D01*
X135400000Y-94400000D01*
X135400241Y-94395099D01*
X135400961Y-94390245D01*
X135402153Y-94385486D01*
X135403806Y-94380866D01*
X135405904Y-94376430D01*
X135408427Y-94372221D01*
X135411349Y-94368280D01*
X135414645Y-94364645D01*
X135418280Y-94361349D01*
X135422221Y-94358427D01*
X135426430Y-94355904D01*
X135430866Y-94353806D01*
X135435486Y-94352153D01*
X135440245Y-94350961D01*
X135445099Y-94350241D01*
X135450000Y-94350000D01*
X135550000Y-94350000D01*
X135554901Y-94350241D01*
G37*
G36*
X135154901Y-94350241D02*
G01*
X135159755Y-94350961D01*
X135164514Y-94352153D01*
X135169134Y-94353806D01*
X135173570Y-94355904D01*
X135177779Y-94358427D01*
X135181720Y-94361349D01*
X135185355Y-94364645D01*
X135188651Y-94368280D01*
X135191573Y-94372221D01*
X135194096Y-94376430D01*
X135196194Y-94380866D01*
X135197847Y-94385486D01*
X135199039Y-94390245D01*
X135199759Y-94395099D01*
X135200000Y-94400000D01*
X135200000Y-95100000D01*
X135199759Y-95104901D01*
X135199039Y-95109755D01*
X135197847Y-95114514D01*
X135196194Y-95119134D01*
X135194096Y-95123570D01*
X135191573Y-95127779D01*
X135188651Y-95131720D01*
X135185355Y-95135355D01*
X135181720Y-95138651D01*
X135177779Y-95141573D01*
X135173570Y-95144096D01*
X135169134Y-95146194D01*
X135164514Y-95147847D01*
X135159755Y-95149039D01*
X135154901Y-95149759D01*
X135150000Y-95150000D01*
X135050000Y-95150000D01*
X135045099Y-95149759D01*
X135040245Y-95149039D01*
X135035486Y-95147847D01*
X135030866Y-95146194D01*
X135026430Y-95144096D01*
X135022221Y-95141573D01*
X135018280Y-95138651D01*
X135014645Y-95135355D01*
X135011349Y-95131720D01*
X135008427Y-95127779D01*
X135005904Y-95123570D01*
X135003806Y-95119134D01*
X135002153Y-95114514D01*
X135000961Y-95109755D01*
X135000241Y-95104901D01*
X135000000Y-95100000D01*
X135000000Y-94400000D01*
X135000241Y-94395099D01*
X135000961Y-94390245D01*
X135002153Y-94385486D01*
X135003806Y-94380866D01*
X135005904Y-94376430D01*
X135008427Y-94372221D01*
X135011349Y-94368280D01*
X135014645Y-94364645D01*
X135018280Y-94361349D01*
X135022221Y-94358427D01*
X135026430Y-94355904D01*
X135030866Y-94353806D01*
X135035486Y-94352153D01*
X135040245Y-94350961D01*
X135045099Y-94350241D01*
X135050000Y-94350000D01*
X135150000Y-94350000D01*
X135154901Y-94350241D01*
G37*
G36*
X134704901Y-95400241D02*
G01*
X134709755Y-95400961D01*
X134714514Y-95402153D01*
X134719134Y-95403806D01*
X134723570Y-95405904D01*
X134727779Y-95408427D01*
X134731720Y-95411349D01*
X134735355Y-95414645D01*
X134738651Y-95418280D01*
X134741573Y-95422221D01*
X134744096Y-95426430D01*
X134746194Y-95430866D01*
X134747847Y-95435486D01*
X134749039Y-95440245D01*
X134749759Y-95445099D01*
X134750000Y-95450000D01*
X134750000Y-95550000D01*
X134749759Y-95554901D01*
X134749039Y-95559755D01*
X134747847Y-95564514D01*
X134746194Y-95569134D01*
X134744096Y-95573570D01*
X134741573Y-95577779D01*
X134738651Y-95581720D01*
X134735355Y-95585355D01*
X134731720Y-95588651D01*
X134727779Y-95591573D01*
X134723570Y-95594096D01*
X134719134Y-95596194D01*
X134714514Y-95597847D01*
X134709755Y-95599039D01*
X134704901Y-95599759D01*
X134700000Y-95600000D01*
X134000000Y-95600000D01*
X133995099Y-95599759D01*
X133990245Y-95599039D01*
X133985486Y-95597847D01*
X133980866Y-95596194D01*
X133976430Y-95594096D01*
X133972221Y-95591573D01*
X133968280Y-95588651D01*
X133964645Y-95585355D01*
X133961349Y-95581720D01*
X133958427Y-95577779D01*
X133955904Y-95573570D01*
X133953806Y-95569134D01*
X133952153Y-95564514D01*
X133950961Y-95559755D01*
X133950241Y-95554901D01*
X133950000Y-95550000D01*
X133950000Y-95450000D01*
X133950241Y-95445099D01*
X133950961Y-95440245D01*
X133952153Y-95435486D01*
X133953806Y-95430866D01*
X133955904Y-95426430D01*
X133958427Y-95422221D01*
X133961349Y-95418280D01*
X133964645Y-95414645D01*
X133968280Y-95411349D01*
X133972221Y-95408427D01*
X133976430Y-95405904D01*
X133980866Y-95403806D01*
X133985486Y-95402153D01*
X133990245Y-95400961D01*
X133995099Y-95400241D01*
X134000000Y-95400000D01*
X134700000Y-95400000D01*
X134704901Y-95400241D01*
G37*
G36*
X134704901Y-95800241D02*
G01*
X134709755Y-95800961D01*
X134714514Y-95802153D01*
X134719134Y-95803806D01*
X134723570Y-95805904D01*
X134727779Y-95808427D01*
X134731720Y-95811349D01*
X134735355Y-95814645D01*
X134738651Y-95818280D01*
X134741573Y-95822221D01*
X134744096Y-95826430D01*
X134746194Y-95830866D01*
X134747847Y-95835486D01*
X134749039Y-95840245D01*
X134749759Y-95845099D01*
X134750000Y-95850000D01*
X134750000Y-95950000D01*
X134749759Y-95954901D01*
X134749039Y-95959755D01*
X134747847Y-95964514D01*
X134746194Y-95969134D01*
X134744096Y-95973570D01*
X134741573Y-95977779D01*
X134738651Y-95981720D01*
X134735355Y-95985355D01*
X134731720Y-95988651D01*
X134727779Y-95991573D01*
X134723570Y-95994096D01*
X134719134Y-95996194D01*
X134714514Y-95997847D01*
X134709755Y-95999039D01*
X134704901Y-95999759D01*
X134700000Y-96000000D01*
X134000000Y-96000000D01*
X133995099Y-95999759D01*
X133990245Y-95999039D01*
X133985486Y-95997847D01*
X133980866Y-95996194D01*
X133976430Y-95994096D01*
X133972221Y-95991573D01*
X133968280Y-95988651D01*
X133964645Y-95985355D01*
X133961349Y-95981720D01*
X133958427Y-95977779D01*
X133955904Y-95973570D01*
X133953806Y-95969134D01*
X133952153Y-95964514D01*
X133950961Y-95959755D01*
X133950241Y-95954901D01*
X133950000Y-95950000D01*
X133950000Y-95850000D01*
X133950241Y-95845099D01*
X133950961Y-95840245D01*
X133952153Y-95835486D01*
X133953806Y-95830866D01*
X133955904Y-95826430D01*
X133958427Y-95822221D01*
X133961349Y-95818280D01*
X133964645Y-95814645D01*
X133968280Y-95811349D01*
X133972221Y-95808427D01*
X133976430Y-95805904D01*
X133980866Y-95803806D01*
X133985486Y-95802153D01*
X133990245Y-95800961D01*
X133995099Y-95800241D01*
X134000000Y-95800000D01*
X134700000Y-95800000D01*
X134704901Y-95800241D01*
G37*
G36*
X134704901Y-96200241D02*
G01*
X134709755Y-96200961D01*
X134714514Y-96202153D01*
X134719134Y-96203806D01*
X134723570Y-96205904D01*
X134727779Y-96208427D01*
X134731720Y-96211349D01*
X134735355Y-96214645D01*
X134738651Y-96218280D01*
X134741573Y-96222221D01*
X134744096Y-96226430D01*
X134746194Y-96230866D01*
X134747847Y-96235486D01*
X134749039Y-96240245D01*
X134749759Y-96245099D01*
X134750000Y-96250000D01*
X134750000Y-96350000D01*
X134749759Y-96354901D01*
X134749039Y-96359755D01*
X134747847Y-96364514D01*
X134746194Y-96369134D01*
X134744096Y-96373570D01*
X134741573Y-96377779D01*
X134738651Y-96381720D01*
X134735355Y-96385355D01*
X134731720Y-96388651D01*
X134727779Y-96391573D01*
X134723570Y-96394096D01*
X134719134Y-96396194D01*
X134714514Y-96397847D01*
X134709755Y-96399039D01*
X134704901Y-96399759D01*
X134700000Y-96400000D01*
X134000000Y-96400000D01*
X133995099Y-96399759D01*
X133990245Y-96399039D01*
X133985486Y-96397847D01*
X133980866Y-96396194D01*
X133976430Y-96394096D01*
X133972221Y-96391573D01*
X133968280Y-96388651D01*
X133964645Y-96385355D01*
X133961349Y-96381720D01*
X133958427Y-96377779D01*
X133955904Y-96373570D01*
X133953806Y-96369134D01*
X133952153Y-96364514D01*
X133950961Y-96359755D01*
X133950241Y-96354901D01*
X133950000Y-96350000D01*
X133950000Y-96250000D01*
X133950241Y-96245099D01*
X133950961Y-96240245D01*
X133952153Y-96235486D01*
X133953806Y-96230866D01*
X133955904Y-96226430D01*
X133958427Y-96222221D01*
X133961349Y-96218280D01*
X133964645Y-96214645D01*
X133968280Y-96211349D01*
X133972221Y-96208427D01*
X133976430Y-96205904D01*
X133980866Y-96203806D01*
X133985486Y-96202153D01*
X133990245Y-96200961D01*
X133995099Y-96200241D01*
X134000000Y-96200000D01*
X134700000Y-96200000D01*
X134704901Y-96200241D01*
G37*
G36*
X134704901Y-96600241D02*
G01*
X134709755Y-96600961D01*
X134714514Y-96602153D01*
X134719134Y-96603806D01*
X134723570Y-96605904D01*
X134727779Y-96608427D01*
X134731720Y-96611349D01*
X134735355Y-96614645D01*
X134738651Y-96618280D01*
X134741573Y-96622221D01*
X134744096Y-96626430D01*
X134746194Y-96630866D01*
X134747847Y-96635486D01*
X134749039Y-96640245D01*
X134749759Y-96645099D01*
X134750000Y-96650000D01*
X134750000Y-96750000D01*
X134749759Y-96754901D01*
X134749039Y-96759755D01*
X134747847Y-96764514D01*
X134746194Y-96769134D01*
X134744096Y-96773570D01*
X134741573Y-96777779D01*
X134738651Y-96781720D01*
X134735355Y-96785355D01*
X134731720Y-96788651D01*
X134727779Y-96791573D01*
X134723570Y-96794096D01*
X134719134Y-96796194D01*
X134714514Y-96797847D01*
X134709755Y-96799039D01*
X134704901Y-96799759D01*
X134700000Y-96800000D01*
X134000000Y-96800000D01*
X133995099Y-96799759D01*
X133990245Y-96799039D01*
X133985486Y-96797847D01*
X133980866Y-96796194D01*
X133976430Y-96794096D01*
X133972221Y-96791573D01*
X133968280Y-96788651D01*
X133964645Y-96785355D01*
X133961349Y-96781720D01*
X133958427Y-96777779D01*
X133955904Y-96773570D01*
X133953806Y-96769134D01*
X133952153Y-96764514D01*
X133950961Y-96759755D01*
X133950241Y-96754901D01*
X133950000Y-96750000D01*
X133950000Y-96650000D01*
X133950241Y-96645099D01*
X133950961Y-96640245D01*
X133952153Y-96635486D01*
X133953806Y-96630866D01*
X133955904Y-96626430D01*
X133958427Y-96622221D01*
X133961349Y-96618280D01*
X133964645Y-96614645D01*
X133968280Y-96611349D01*
X133972221Y-96608427D01*
X133976430Y-96605904D01*
X133980866Y-96603806D01*
X133985486Y-96602153D01*
X133990245Y-96600961D01*
X133995099Y-96600241D01*
X134000000Y-96600000D01*
X134700000Y-96600000D01*
X134704901Y-96600241D01*
G37*
G36*
X134704901Y-97000241D02*
G01*
X134709755Y-97000961D01*
X134714514Y-97002153D01*
X134719134Y-97003806D01*
X134723570Y-97005904D01*
X134727779Y-97008427D01*
X134731720Y-97011349D01*
X134735355Y-97014645D01*
X134738651Y-97018280D01*
X134741573Y-97022221D01*
X134744096Y-97026430D01*
X134746194Y-97030866D01*
X134747847Y-97035486D01*
X134749039Y-97040245D01*
X134749759Y-97045099D01*
X134750000Y-97050000D01*
X134750000Y-97150000D01*
X134749759Y-97154901D01*
X134749039Y-97159755D01*
X134747847Y-97164514D01*
X134746194Y-97169134D01*
X134744096Y-97173570D01*
X134741573Y-97177779D01*
X134738651Y-97181720D01*
X134735355Y-97185355D01*
X134731720Y-97188651D01*
X134727779Y-97191573D01*
X134723570Y-97194096D01*
X134719134Y-97196194D01*
X134714514Y-97197847D01*
X134709755Y-97199039D01*
X134704901Y-97199759D01*
X134700000Y-97200000D01*
X134000000Y-97200000D01*
X133995099Y-97199759D01*
X133990245Y-97199039D01*
X133985486Y-97197847D01*
X133980866Y-97196194D01*
X133976430Y-97194096D01*
X133972221Y-97191573D01*
X133968280Y-97188651D01*
X133964645Y-97185355D01*
X133961349Y-97181720D01*
X133958427Y-97177779D01*
X133955904Y-97173570D01*
X133953806Y-97169134D01*
X133952153Y-97164514D01*
X133950961Y-97159755D01*
X133950241Y-97154901D01*
X133950000Y-97150000D01*
X133950000Y-97050000D01*
X133950241Y-97045099D01*
X133950961Y-97040245D01*
X133952153Y-97035486D01*
X133953806Y-97030866D01*
X133955904Y-97026430D01*
X133958427Y-97022221D01*
X133961349Y-97018280D01*
X133964645Y-97014645D01*
X133968280Y-97011349D01*
X133972221Y-97008427D01*
X133976430Y-97005904D01*
X133980866Y-97003806D01*
X133985486Y-97002153D01*
X133990245Y-97000961D01*
X133995099Y-97000241D01*
X134000000Y-97000000D01*
X134700000Y-97000000D01*
X134704901Y-97000241D01*
G37*
G36*
X134704901Y-97400241D02*
G01*
X134709755Y-97400961D01*
X134714514Y-97402153D01*
X134719134Y-97403806D01*
X134723570Y-97405904D01*
X134727779Y-97408427D01*
X134731720Y-97411349D01*
X134735355Y-97414645D01*
X134738651Y-97418280D01*
X134741573Y-97422221D01*
X134744096Y-97426430D01*
X134746194Y-97430866D01*
X134747847Y-97435486D01*
X134749039Y-97440245D01*
X134749759Y-97445099D01*
X134750000Y-97450000D01*
X134750000Y-97550000D01*
X134749759Y-97554901D01*
X134749039Y-97559755D01*
X134747847Y-97564514D01*
X134746194Y-97569134D01*
X134744096Y-97573570D01*
X134741573Y-97577779D01*
X134738651Y-97581720D01*
X134735355Y-97585355D01*
X134731720Y-97588651D01*
X134727779Y-97591573D01*
X134723570Y-97594096D01*
X134719134Y-97596194D01*
X134714514Y-97597847D01*
X134709755Y-97599039D01*
X134704901Y-97599759D01*
X134700000Y-97600000D01*
X134000000Y-97600000D01*
X133995099Y-97599759D01*
X133990245Y-97599039D01*
X133985486Y-97597847D01*
X133980866Y-97596194D01*
X133976430Y-97594096D01*
X133972221Y-97591573D01*
X133968280Y-97588651D01*
X133964645Y-97585355D01*
X133961349Y-97581720D01*
X133958427Y-97577779D01*
X133955904Y-97573570D01*
X133953806Y-97569134D01*
X133952153Y-97564514D01*
X133950961Y-97559755D01*
X133950241Y-97554901D01*
X133950000Y-97550000D01*
X133950000Y-97450000D01*
X133950241Y-97445099D01*
X133950961Y-97440245D01*
X133952153Y-97435486D01*
X133953806Y-97430866D01*
X133955904Y-97426430D01*
X133958427Y-97422221D01*
X133961349Y-97418280D01*
X133964645Y-97414645D01*
X133968280Y-97411349D01*
X133972221Y-97408427D01*
X133976430Y-97405904D01*
X133980866Y-97403806D01*
X133985486Y-97402153D01*
X133990245Y-97400961D01*
X133995099Y-97400241D01*
X134000000Y-97400000D01*
X134700000Y-97400000D01*
X134704901Y-97400241D01*
G37*
G36*
X134704901Y-97800241D02*
G01*
X134709755Y-97800961D01*
X134714514Y-97802153D01*
X134719134Y-97803806D01*
X134723570Y-97805904D01*
X134727779Y-97808427D01*
X134731720Y-97811349D01*
X134735355Y-97814645D01*
X134738651Y-97818280D01*
X134741573Y-97822221D01*
X134744096Y-97826430D01*
X134746194Y-97830866D01*
X134747847Y-97835486D01*
X134749039Y-97840245D01*
X134749759Y-97845099D01*
X134750000Y-97850000D01*
X134750000Y-97950000D01*
X134749759Y-97954901D01*
X134749039Y-97959755D01*
X134747847Y-97964514D01*
X134746194Y-97969134D01*
X134744096Y-97973570D01*
X134741573Y-97977779D01*
X134738651Y-97981720D01*
X134735355Y-97985355D01*
X134731720Y-97988651D01*
X134727779Y-97991573D01*
X134723570Y-97994096D01*
X134719134Y-97996194D01*
X134714514Y-97997847D01*
X134709755Y-97999039D01*
X134704901Y-97999759D01*
X134700000Y-98000000D01*
X134000000Y-98000000D01*
X133995099Y-97999759D01*
X133990245Y-97999039D01*
X133985486Y-97997847D01*
X133980866Y-97996194D01*
X133976430Y-97994096D01*
X133972221Y-97991573D01*
X133968280Y-97988651D01*
X133964645Y-97985355D01*
X133961349Y-97981720D01*
X133958427Y-97977779D01*
X133955904Y-97973570D01*
X133953806Y-97969134D01*
X133952153Y-97964514D01*
X133950961Y-97959755D01*
X133950241Y-97954901D01*
X133950000Y-97950000D01*
X133950000Y-97850000D01*
X133950241Y-97845099D01*
X133950961Y-97840245D01*
X133952153Y-97835486D01*
X133953806Y-97830866D01*
X133955904Y-97826430D01*
X133958427Y-97822221D01*
X133961349Y-97818280D01*
X133964645Y-97814645D01*
X133968280Y-97811349D01*
X133972221Y-97808427D01*
X133976430Y-97805904D01*
X133980866Y-97803806D01*
X133985486Y-97802153D01*
X133990245Y-97800961D01*
X133995099Y-97800241D01*
X134000000Y-97800000D01*
X134700000Y-97800000D01*
X134704901Y-97800241D01*
G37*
G36*
X134704901Y-98200241D02*
G01*
X134709755Y-98200961D01*
X134714514Y-98202153D01*
X134719134Y-98203806D01*
X134723570Y-98205904D01*
X134727779Y-98208427D01*
X134731720Y-98211349D01*
X134735355Y-98214645D01*
X134738651Y-98218280D01*
X134741573Y-98222221D01*
X134744096Y-98226430D01*
X134746194Y-98230866D01*
X134747847Y-98235486D01*
X134749039Y-98240245D01*
X134749759Y-98245099D01*
X134750000Y-98250000D01*
X134750000Y-98350000D01*
X134749759Y-98354901D01*
X134749039Y-98359755D01*
X134747847Y-98364514D01*
X134746194Y-98369134D01*
X134744096Y-98373570D01*
X134741573Y-98377779D01*
X134738651Y-98381720D01*
X134735355Y-98385355D01*
X134731720Y-98388651D01*
X134727779Y-98391573D01*
X134723570Y-98394096D01*
X134719134Y-98396194D01*
X134714514Y-98397847D01*
X134709755Y-98399039D01*
X134704901Y-98399759D01*
X134700000Y-98400000D01*
X134000000Y-98400000D01*
X133995099Y-98399759D01*
X133990245Y-98399039D01*
X133985486Y-98397847D01*
X133980866Y-98396194D01*
X133976430Y-98394096D01*
X133972221Y-98391573D01*
X133968280Y-98388651D01*
X133964645Y-98385355D01*
X133961349Y-98381720D01*
X133958427Y-98377779D01*
X133955904Y-98373570D01*
X133953806Y-98369134D01*
X133952153Y-98364514D01*
X133950961Y-98359755D01*
X133950241Y-98354901D01*
X133950000Y-98350000D01*
X133950000Y-98250000D01*
X133950241Y-98245099D01*
X133950961Y-98240245D01*
X133952153Y-98235486D01*
X133953806Y-98230866D01*
X133955904Y-98226430D01*
X133958427Y-98222221D01*
X133961349Y-98218280D01*
X133964645Y-98214645D01*
X133968280Y-98211349D01*
X133972221Y-98208427D01*
X133976430Y-98205904D01*
X133980866Y-98203806D01*
X133985486Y-98202153D01*
X133990245Y-98200961D01*
X133995099Y-98200241D01*
X134000000Y-98200000D01*
X134700000Y-98200000D01*
X134704901Y-98200241D01*
G37*
G36*
X134704901Y-98600241D02*
G01*
X134709755Y-98600961D01*
X134714514Y-98602153D01*
X134719134Y-98603806D01*
X134723570Y-98605904D01*
X134727779Y-98608427D01*
X134731720Y-98611349D01*
X134735355Y-98614645D01*
X134738651Y-98618280D01*
X134741573Y-98622221D01*
X134744096Y-98626430D01*
X134746194Y-98630866D01*
X134747847Y-98635486D01*
X134749039Y-98640245D01*
X134749759Y-98645099D01*
X134750000Y-98650000D01*
X134750000Y-98750000D01*
X134749759Y-98754901D01*
X134749039Y-98759755D01*
X134747847Y-98764514D01*
X134746194Y-98769134D01*
X134744096Y-98773570D01*
X134741573Y-98777779D01*
X134738651Y-98781720D01*
X134735355Y-98785355D01*
X134731720Y-98788651D01*
X134727779Y-98791573D01*
X134723570Y-98794096D01*
X134719134Y-98796194D01*
X134714514Y-98797847D01*
X134709755Y-98799039D01*
X134704901Y-98799759D01*
X134700000Y-98800000D01*
X134000000Y-98800000D01*
X133995099Y-98799759D01*
X133990245Y-98799039D01*
X133985486Y-98797847D01*
X133980866Y-98796194D01*
X133976430Y-98794096D01*
X133972221Y-98791573D01*
X133968280Y-98788651D01*
X133964645Y-98785355D01*
X133961349Y-98781720D01*
X133958427Y-98777779D01*
X133955904Y-98773570D01*
X133953806Y-98769134D01*
X133952153Y-98764514D01*
X133950961Y-98759755D01*
X133950241Y-98754901D01*
X133950000Y-98750000D01*
X133950000Y-98650000D01*
X133950241Y-98645099D01*
X133950961Y-98640245D01*
X133952153Y-98635486D01*
X133953806Y-98630866D01*
X133955904Y-98626430D01*
X133958427Y-98622221D01*
X133961349Y-98618280D01*
X133964645Y-98614645D01*
X133968280Y-98611349D01*
X133972221Y-98608427D01*
X133976430Y-98605904D01*
X133980866Y-98603806D01*
X133985486Y-98602153D01*
X133990245Y-98600961D01*
X133995099Y-98600241D01*
X134000000Y-98600000D01*
X134700000Y-98600000D01*
X134704901Y-98600241D01*
G37*
G36*
X134704901Y-99000241D02*
G01*
X134709755Y-99000961D01*
X134714514Y-99002153D01*
X134719134Y-99003806D01*
X134723570Y-99005904D01*
X134727779Y-99008427D01*
X134731720Y-99011349D01*
X134735355Y-99014645D01*
X134738651Y-99018280D01*
X134741573Y-99022221D01*
X134744096Y-99026430D01*
X134746194Y-99030866D01*
X134747847Y-99035486D01*
X134749039Y-99040245D01*
X134749759Y-99045099D01*
X134750000Y-99050000D01*
X134750000Y-99150000D01*
X134749759Y-99154901D01*
X134749039Y-99159755D01*
X134747847Y-99164514D01*
X134746194Y-99169134D01*
X134744096Y-99173570D01*
X134741573Y-99177779D01*
X134738651Y-99181720D01*
X134735355Y-99185355D01*
X134731720Y-99188651D01*
X134727779Y-99191573D01*
X134723570Y-99194096D01*
X134719134Y-99196194D01*
X134714514Y-99197847D01*
X134709755Y-99199039D01*
X134704901Y-99199759D01*
X134700000Y-99200000D01*
X134000000Y-99200000D01*
X133995099Y-99199759D01*
X133990245Y-99199039D01*
X133985486Y-99197847D01*
X133980866Y-99196194D01*
X133976430Y-99194096D01*
X133972221Y-99191573D01*
X133968280Y-99188651D01*
X133964645Y-99185355D01*
X133961349Y-99181720D01*
X133958427Y-99177779D01*
X133955904Y-99173570D01*
X133953806Y-99169134D01*
X133952153Y-99164514D01*
X133950961Y-99159755D01*
X133950241Y-99154901D01*
X133950000Y-99150000D01*
X133950000Y-99050000D01*
X133950241Y-99045099D01*
X133950961Y-99040245D01*
X133952153Y-99035486D01*
X133953806Y-99030866D01*
X133955904Y-99026430D01*
X133958427Y-99022221D01*
X133961349Y-99018280D01*
X133964645Y-99014645D01*
X133968280Y-99011349D01*
X133972221Y-99008427D01*
X133976430Y-99005904D01*
X133980866Y-99003806D01*
X133985486Y-99002153D01*
X133990245Y-99000961D01*
X133995099Y-99000241D01*
X134000000Y-99000000D01*
X134700000Y-99000000D01*
X134704901Y-99000241D01*
G37*
G36*
X134704901Y-99400241D02*
G01*
X134709755Y-99400961D01*
X134714514Y-99402153D01*
X134719134Y-99403806D01*
X134723570Y-99405904D01*
X134727779Y-99408427D01*
X134731720Y-99411349D01*
X134735355Y-99414645D01*
X134738651Y-99418280D01*
X134741573Y-99422221D01*
X134744096Y-99426430D01*
X134746194Y-99430866D01*
X134747847Y-99435486D01*
X134749039Y-99440245D01*
X134749759Y-99445099D01*
X134750000Y-99450000D01*
X134750000Y-99550000D01*
X134749759Y-99554901D01*
X134749039Y-99559755D01*
X134747847Y-99564514D01*
X134746194Y-99569134D01*
X134744096Y-99573570D01*
X134741573Y-99577779D01*
X134738651Y-99581720D01*
X134735355Y-99585355D01*
X134731720Y-99588651D01*
X134727779Y-99591573D01*
X134723570Y-99594096D01*
X134719134Y-99596194D01*
X134714514Y-99597847D01*
X134709755Y-99599039D01*
X134704901Y-99599759D01*
X134700000Y-99600000D01*
X134000000Y-99600000D01*
X133995099Y-99599759D01*
X133990245Y-99599039D01*
X133985486Y-99597847D01*
X133980866Y-99596194D01*
X133976430Y-99594096D01*
X133972221Y-99591573D01*
X133968280Y-99588651D01*
X133964645Y-99585355D01*
X133961349Y-99581720D01*
X133958427Y-99577779D01*
X133955904Y-99573570D01*
X133953806Y-99569134D01*
X133952153Y-99564514D01*
X133950961Y-99559755D01*
X133950241Y-99554901D01*
X133950000Y-99550000D01*
X133950000Y-99450000D01*
X133950241Y-99445099D01*
X133950961Y-99440245D01*
X133952153Y-99435486D01*
X133953806Y-99430866D01*
X133955904Y-99426430D01*
X133958427Y-99422221D01*
X133961349Y-99418280D01*
X133964645Y-99414645D01*
X133968280Y-99411349D01*
X133972221Y-99408427D01*
X133976430Y-99405904D01*
X133980866Y-99403806D01*
X133985486Y-99402153D01*
X133990245Y-99400961D01*
X133995099Y-99400241D01*
X134000000Y-99400000D01*
X134700000Y-99400000D01*
X134704901Y-99400241D01*
G37*
G36*
X134704901Y-99800241D02*
G01*
X134709755Y-99800961D01*
X134714514Y-99802153D01*
X134719134Y-99803806D01*
X134723570Y-99805904D01*
X134727779Y-99808427D01*
X134731720Y-99811349D01*
X134735355Y-99814645D01*
X134738651Y-99818280D01*
X134741573Y-99822221D01*
X134744096Y-99826430D01*
X134746194Y-99830866D01*
X134747847Y-99835486D01*
X134749039Y-99840245D01*
X134749759Y-99845099D01*
X134750000Y-99850000D01*
X134750000Y-99950000D01*
X134749759Y-99954901D01*
X134749039Y-99959755D01*
X134747847Y-99964514D01*
X134746194Y-99969134D01*
X134744096Y-99973570D01*
X134741573Y-99977779D01*
X134738651Y-99981720D01*
X134735355Y-99985355D01*
X134731720Y-99988651D01*
X134727779Y-99991573D01*
X134723570Y-99994096D01*
X134719134Y-99996194D01*
X134714514Y-99997847D01*
X134709755Y-99999039D01*
X134704901Y-99999759D01*
X134700000Y-100000000D01*
X134000000Y-100000000D01*
X133995099Y-99999759D01*
X133990245Y-99999039D01*
X133985486Y-99997847D01*
X133980866Y-99996194D01*
X133976430Y-99994096D01*
X133972221Y-99991573D01*
X133968280Y-99988651D01*
X133964645Y-99985355D01*
X133961349Y-99981720D01*
X133958427Y-99977779D01*
X133955904Y-99973570D01*
X133953806Y-99969134D01*
X133952153Y-99964514D01*
X133950961Y-99959755D01*
X133950241Y-99954901D01*
X133950000Y-99950000D01*
X133950000Y-99850000D01*
X133950241Y-99845099D01*
X133950961Y-99840245D01*
X133952153Y-99835486D01*
X133953806Y-99830866D01*
X133955904Y-99826430D01*
X133958427Y-99822221D01*
X133961349Y-99818280D01*
X133964645Y-99814645D01*
X133968280Y-99811349D01*
X133972221Y-99808427D01*
X133976430Y-99805904D01*
X133980866Y-99803806D01*
X133985486Y-99802153D01*
X133990245Y-99800961D01*
X133995099Y-99800241D01*
X134000000Y-99800000D01*
X134700000Y-99800000D01*
X134704901Y-99800241D01*
G37*
G36*
X137115191Y-102026053D02*
G01*
X137136426Y-102029203D01*
X137157250Y-102034419D01*
X137177462Y-102041651D01*
X137196868Y-102050830D01*
X137215281Y-102061866D01*
X137232524Y-102074654D01*
X137248430Y-102089070D01*
X137262846Y-102104976D01*
X137275634Y-102122219D01*
X137286670Y-102140632D01*
X137295849Y-102160038D01*
X137303081Y-102180250D01*
X137308297Y-102201074D01*
X137311447Y-102222309D01*
X137312500Y-102243750D01*
X137312500Y-102756250D01*
X137311447Y-102777691D01*
X137308297Y-102798926D01*
X137303081Y-102819750D01*
X137295849Y-102839962D01*
X137286670Y-102859368D01*
X137275634Y-102877781D01*
X137262846Y-102895024D01*
X137248430Y-102910930D01*
X137232524Y-102925346D01*
X137215281Y-102938134D01*
X137196868Y-102949170D01*
X137177462Y-102958349D01*
X137157250Y-102965581D01*
X137136426Y-102970797D01*
X137115191Y-102973947D01*
X137093750Y-102975000D01*
X136656250Y-102975000D01*
X136634809Y-102973947D01*
X136613574Y-102970797D01*
X136592750Y-102965581D01*
X136572538Y-102958349D01*
X136553132Y-102949170D01*
X136534719Y-102938134D01*
X136517476Y-102925346D01*
X136501570Y-102910930D01*
X136487154Y-102895024D01*
X136474366Y-102877781D01*
X136463330Y-102859368D01*
X136454151Y-102839962D01*
X136446919Y-102819750D01*
X136441703Y-102798926D01*
X136438553Y-102777691D01*
X136437500Y-102756250D01*
X136437500Y-102243750D01*
X136438553Y-102222309D01*
X136441703Y-102201074D01*
X136446919Y-102180250D01*
X136454151Y-102160038D01*
X136463330Y-102140632D01*
X136474366Y-102122219D01*
X136487154Y-102104976D01*
X136501570Y-102089070D01*
X136517476Y-102074654D01*
X136534719Y-102061866D01*
X136553132Y-102050830D01*
X136572538Y-102041651D01*
X136592750Y-102034419D01*
X136613574Y-102029203D01*
X136634809Y-102026053D01*
X136656250Y-102025000D01*
X137093750Y-102025000D01*
X137115191Y-102026053D01*
G37*
G36*
X135540191Y-102026053D02*
G01*
X135561426Y-102029203D01*
X135582250Y-102034419D01*
X135602462Y-102041651D01*
X135621868Y-102050830D01*
X135640281Y-102061866D01*
X135657524Y-102074654D01*
X135673430Y-102089070D01*
X135687846Y-102104976D01*
X135700634Y-102122219D01*
X135711670Y-102140632D01*
X135720849Y-102160038D01*
X135728081Y-102180250D01*
X135733297Y-102201074D01*
X135736447Y-102222309D01*
X135737500Y-102243750D01*
X135737500Y-102756250D01*
X135736447Y-102777691D01*
X135733297Y-102798926D01*
X135728081Y-102819750D01*
X135720849Y-102839962D01*
X135711670Y-102859368D01*
X135700634Y-102877781D01*
X135687846Y-102895024D01*
X135673430Y-102910930D01*
X135657524Y-102925346D01*
X135640281Y-102938134D01*
X135621868Y-102949170D01*
X135602462Y-102958349D01*
X135582250Y-102965581D01*
X135561426Y-102970797D01*
X135540191Y-102973947D01*
X135518750Y-102975000D01*
X135081250Y-102975000D01*
X135059809Y-102973947D01*
X135038574Y-102970797D01*
X135017750Y-102965581D01*
X134997538Y-102958349D01*
X134978132Y-102949170D01*
X134959719Y-102938134D01*
X134942476Y-102925346D01*
X134926570Y-102910930D01*
X134912154Y-102895024D01*
X134899366Y-102877781D01*
X134888330Y-102859368D01*
X134879151Y-102839962D01*
X134871919Y-102819750D01*
X134866703Y-102798926D01*
X134863553Y-102777691D01*
X134862500Y-102756250D01*
X134862500Y-102243750D01*
X134863553Y-102222309D01*
X134866703Y-102201074D01*
X134871919Y-102180250D01*
X134879151Y-102160038D01*
X134888330Y-102140632D01*
X134899366Y-102122219D01*
X134912154Y-102104976D01*
X134926570Y-102089070D01*
X134942476Y-102074654D01*
X134959719Y-102061866D01*
X134978132Y-102050830D01*
X134997538Y-102041651D01*
X135017750Y-102034419D01*
X135038574Y-102029203D01*
X135059809Y-102026053D01*
X135081250Y-102025000D01*
X135518750Y-102025000D01*
X135540191Y-102026053D01*
G37*
G36*
X136815191Y-86926053D02*
G01*
X136836426Y-86929203D01*
X136857250Y-86934419D01*
X136877462Y-86941651D01*
X136896868Y-86950830D01*
X136915281Y-86961866D01*
X136932524Y-86974654D01*
X136948430Y-86989070D01*
X136962846Y-87004976D01*
X136975634Y-87022219D01*
X136986670Y-87040632D01*
X136995849Y-87060038D01*
X137003081Y-87080250D01*
X137008297Y-87101074D01*
X137011447Y-87122309D01*
X137012500Y-87143750D01*
X137012500Y-87656250D01*
X137011447Y-87677691D01*
X137008297Y-87698926D01*
X137003081Y-87719750D01*
X136995849Y-87739962D01*
X136986670Y-87759368D01*
X136975634Y-87777781D01*
X136962846Y-87795024D01*
X136948430Y-87810930D01*
X136932524Y-87825346D01*
X136915281Y-87838134D01*
X136896868Y-87849170D01*
X136877462Y-87858349D01*
X136857250Y-87865581D01*
X136836426Y-87870797D01*
X136815191Y-87873947D01*
X136793750Y-87875000D01*
X136356250Y-87875000D01*
X136334809Y-87873947D01*
X136313574Y-87870797D01*
X136292750Y-87865581D01*
X136272538Y-87858349D01*
X136253132Y-87849170D01*
X136234719Y-87838134D01*
X136217476Y-87825346D01*
X136201570Y-87810930D01*
X136187154Y-87795024D01*
X136174366Y-87777781D01*
X136163330Y-87759368D01*
X136154151Y-87739962D01*
X136146919Y-87719750D01*
X136141703Y-87698926D01*
X136138553Y-87677691D01*
X136137500Y-87656250D01*
X136137500Y-87143750D01*
X136138553Y-87122309D01*
X136141703Y-87101074D01*
X136146919Y-87080250D01*
X136154151Y-87060038D01*
X136163330Y-87040632D01*
X136174366Y-87022219D01*
X136187154Y-87004976D01*
X136201570Y-86989070D01*
X136217476Y-86974654D01*
X136234719Y-86961866D01*
X136253132Y-86950830D01*
X136272538Y-86941651D01*
X136292750Y-86934419D01*
X136313574Y-86929203D01*
X136334809Y-86926053D01*
X136356250Y-86925000D01*
X136793750Y-86925000D01*
X136815191Y-86926053D01*
G37*
G36*
X135240191Y-86926053D02*
G01*
X135261426Y-86929203D01*
X135282250Y-86934419D01*
X135302462Y-86941651D01*
X135321868Y-86950830D01*
X135340281Y-86961866D01*
X135357524Y-86974654D01*
X135373430Y-86989070D01*
X135387846Y-87004976D01*
X135400634Y-87022219D01*
X135411670Y-87040632D01*
X135420849Y-87060038D01*
X135428081Y-87080250D01*
X135433297Y-87101074D01*
X135436447Y-87122309D01*
X135437500Y-87143750D01*
X135437500Y-87656250D01*
X135436447Y-87677691D01*
X135433297Y-87698926D01*
X135428081Y-87719750D01*
X135420849Y-87739962D01*
X135411670Y-87759368D01*
X135400634Y-87777781D01*
X135387846Y-87795024D01*
X135373430Y-87810930D01*
X135357524Y-87825346D01*
X135340281Y-87838134D01*
X135321868Y-87849170D01*
X135302462Y-87858349D01*
X135282250Y-87865581D01*
X135261426Y-87870797D01*
X135240191Y-87873947D01*
X135218750Y-87875000D01*
X134781250Y-87875000D01*
X134759809Y-87873947D01*
X134738574Y-87870797D01*
X134717750Y-87865581D01*
X134697538Y-87858349D01*
X134678132Y-87849170D01*
X134659719Y-87838134D01*
X134642476Y-87825346D01*
X134626570Y-87810930D01*
X134612154Y-87795024D01*
X134599366Y-87777781D01*
X134588330Y-87759368D01*
X134579151Y-87739962D01*
X134571919Y-87719750D01*
X134566703Y-87698926D01*
X134563553Y-87677691D01*
X134562500Y-87656250D01*
X134562500Y-87143750D01*
X134563553Y-87122309D01*
X134566703Y-87101074D01*
X134571919Y-87080250D01*
X134579151Y-87060038D01*
X134588330Y-87040632D01*
X134599366Y-87022219D01*
X134612154Y-87004976D01*
X134626570Y-86989070D01*
X134642476Y-86974654D01*
X134659719Y-86961866D01*
X134678132Y-86950830D01*
X134697538Y-86941651D01*
X134717750Y-86934419D01*
X134738574Y-86929203D01*
X134759809Y-86926053D01*
X134781250Y-86925000D01*
X135218750Y-86925000D01*
X135240191Y-86926053D01*
G37*
G36*
X138377691Y-88763553D02*
G01*
X138398926Y-88766703D01*
X138419750Y-88771919D01*
X138439962Y-88779151D01*
X138459368Y-88788330D01*
X138477781Y-88799366D01*
X138495024Y-88812154D01*
X138510930Y-88826570D01*
X138525346Y-88842476D01*
X138538134Y-88859719D01*
X138549170Y-88878132D01*
X138558349Y-88897538D01*
X138565581Y-88917750D01*
X138570797Y-88938574D01*
X138573947Y-88959809D01*
X138575000Y-88981250D01*
X138575000Y-89418750D01*
X138573947Y-89440191D01*
X138570797Y-89461426D01*
X138565581Y-89482250D01*
X138558349Y-89502462D01*
X138549170Y-89521868D01*
X138538134Y-89540281D01*
X138525346Y-89557524D01*
X138510930Y-89573430D01*
X138495024Y-89587846D01*
X138477781Y-89600634D01*
X138459368Y-89611670D01*
X138439962Y-89620849D01*
X138419750Y-89628081D01*
X138398926Y-89633297D01*
X138377691Y-89636447D01*
X138356250Y-89637500D01*
X137843750Y-89637500D01*
X137822309Y-89636447D01*
X137801074Y-89633297D01*
X137780250Y-89628081D01*
X137760038Y-89620849D01*
X137740632Y-89611670D01*
X137722219Y-89600634D01*
X137704976Y-89587846D01*
X137689070Y-89573430D01*
X137674654Y-89557524D01*
X137661866Y-89540281D01*
X137650830Y-89521868D01*
X137641651Y-89502462D01*
X137634419Y-89482250D01*
X137629203Y-89461426D01*
X137626053Y-89440191D01*
X137625000Y-89418750D01*
X137625000Y-88981250D01*
X137626053Y-88959809D01*
X137629203Y-88938574D01*
X137634419Y-88917750D01*
X137641651Y-88897538D01*
X137650830Y-88878132D01*
X137661866Y-88859719D01*
X137674654Y-88842476D01*
X137689070Y-88826570D01*
X137704976Y-88812154D01*
X137722219Y-88799366D01*
X137740632Y-88788330D01*
X137760038Y-88779151D01*
X137780250Y-88771919D01*
X137801074Y-88766703D01*
X137822309Y-88763553D01*
X137843750Y-88762500D01*
X138356250Y-88762500D01*
X138377691Y-88763553D01*
G37*
G36*
X138377691Y-90338553D02*
G01*
X138398926Y-90341703D01*
X138419750Y-90346919D01*
X138439962Y-90354151D01*
X138459368Y-90363330D01*
X138477781Y-90374366D01*
X138495024Y-90387154D01*
X138510930Y-90401570D01*
X138525346Y-90417476D01*
X138538134Y-90434719D01*
X138549170Y-90453132D01*
X138558349Y-90472538D01*
X138565581Y-90492750D01*
X138570797Y-90513574D01*
X138573947Y-90534809D01*
X138575000Y-90556250D01*
X138575000Y-90993750D01*
X138573947Y-91015191D01*
X138570797Y-91036426D01*
X138565581Y-91057250D01*
X138558349Y-91077462D01*
X138549170Y-91096868D01*
X138538134Y-91115281D01*
X138525346Y-91132524D01*
X138510930Y-91148430D01*
X138495024Y-91162846D01*
X138477781Y-91175634D01*
X138459368Y-91186670D01*
X138439962Y-91195849D01*
X138419750Y-91203081D01*
X138398926Y-91208297D01*
X138377691Y-91211447D01*
X138356250Y-91212500D01*
X137843750Y-91212500D01*
X137822309Y-91211447D01*
X137801074Y-91208297D01*
X137780250Y-91203081D01*
X137760038Y-91195849D01*
X137740632Y-91186670D01*
X137722219Y-91175634D01*
X137704976Y-91162846D01*
X137689070Y-91148430D01*
X137674654Y-91132524D01*
X137661866Y-91115281D01*
X137650830Y-91096868D01*
X137641651Y-91077462D01*
X137634419Y-91057250D01*
X137629203Y-91036426D01*
X137626053Y-91015191D01*
X137625000Y-90993750D01*
X137625000Y-90556250D01*
X137626053Y-90534809D01*
X137629203Y-90513574D01*
X137634419Y-90492750D01*
X137641651Y-90472538D01*
X137650830Y-90453132D01*
X137661866Y-90434719D01*
X137674654Y-90417476D01*
X137689070Y-90401570D01*
X137704976Y-90387154D01*
X137722219Y-90374366D01*
X137740632Y-90363330D01*
X137760038Y-90354151D01*
X137780250Y-90346919D01*
X137801074Y-90341703D01*
X137822309Y-90338553D01*
X137843750Y-90337500D01*
X138356250Y-90337500D01*
X138377691Y-90338553D01*
G37*
G36*
X140377691Y-101663553D02*
G01*
X140398926Y-101666703D01*
X140419750Y-101671919D01*
X140439962Y-101679151D01*
X140459368Y-101688330D01*
X140477781Y-101699366D01*
X140495024Y-101712154D01*
X140510930Y-101726570D01*
X140525346Y-101742476D01*
X140538134Y-101759719D01*
X140549170Y-101778132D01*
X140558349Y-101797538D01*
X140565581Y-101817750D01*
X140570797Y-101838574D01*
X140573947Y-101859809D01*
X140575000Y-101881250D01*
X140575000Y-102318750D01*
X140573947Y-102340191D01*
X140570797Y-102361426D01*
X140565581Y-102382250D01*
X140558349Y-102402462D01*
X140549170Y-102421868D01*
X140538134Y-102440281D01*
X140525346Y-102457524D01*
X140510930Y-102473430D01*
X140495024Y-102487846D01*
X140477781Y-102500634D01*
X140459368Y-102511670D01*
X140439962Y-102520849D01*
X140419750Y-102528081D01*
X140398926Y-102533297D01*
X140377691Y-102536447D01*
X140356250Y-102537500D01*
X139843750Y-102537500D01*
X139822309Y-102536447D01*
X139801074Y-102533297D01*
X139780250Y-102528081D01*
X139760038Y-102520849D01*
X139740632Y-102511670D01*
X139722219Y-102500634D01*
X139704976Y-102487846D01*
X139689070Y-102473430D01*
X139674654Y-102457524D01*
X139661866Y-102440281D01*
X139650830Y-102421868D01*
X139641651Y-102402462D01*
X139634419Y-102382250D01*
X139629203Y-102361426D01*
X139626053Y-102340191D01*
X139625000Y-102318750D01*
X139625000Y-101881250D01*
X139626053Y-101859809D01*
X139629203Y-101838574D01*
X139634419Y-101817750D01*
X139641651Y-101797538D01*
X139650830Y-101778132D01*
X139661866Y-101759719D01*
X139674654Y-101742476D01*
X139689070Y-101726570D01*
X139704976Y-101712154D01*
X139722219Y-101699366D01*
X139740632Y-101688330D01*
X139760038Y-101679151D01*
X139780250Y-101671919D01*
X139801074Y-101666703D01*
X139822309Y-101663553D01*
X139843750Y-101662500D01*
X140356250Y-101662500D01*
X140377691Y-101663553D01*
G37*
G36*
X140377691Y-103238553D02*
G01*
X140398926Y-103241703D01*
X140419750Y-103246919D01*
X140439962Y-103254151D01*
X140459368Y-103263330D01*
X140477781Y-103274366D01*
X140495024Y-103287154D01*
X140510930Y-103301570D01*
X140525346Y-103317476D01*
X140538134Y-103334719D01*
X140549170Y-103353132D01*
X140558349Y-103372538D01*
X140565581Y-103392750D01*
X140570797Y-103413574D01*
X140573947Y-103434809D01*
X140575000Y-103456250D01*
X140575000Y-103893750D01*
X140573947Y-103915191D01*
X140570797Y-103936426D01*
X140565581Y-103957250D01*
X140558349Y-103977462D01*
X140549170Y-103996868D01*
X140538134Y-104015281D01*
X140525346Y-104032524D01*
X140510930Y-104048430D01*
X140495024Y-104062846D01*
X140477781Y-104075634D01*
X140459368Y-104086670D01*
X140439962Y-104095849D01*
X140419750Y-104103081D01*
X140398926Y-104108297D01*
X140377691Y-104111447D01*
X140356250Y-104112500D01*
X139843750Y-104112500D01*
X139822309Y-104111447D01*
X139801074Y-104108297D01*
X139780250Y-104103081D01*
X139760038Y-104095849D01*
X139740632Y-104086670D01*
X139722219Y-104075634D01*
X139704976Y-104062846D01*
X139689070Y-104048430D01*
X139674654Y-104032524D01*
X139661866Y-104015281D01*
X139650830Y-103996868D01*
X139641651Y-103977462D01*
X139634419Y-103957250D01*
X139629203Y-103936426D01*
X139626053Y-103915191D01*
X139625000Y-103893750D01*
X139625000Y-103456250D01*
X139626053Y-103434809D01*
X139629203Y-103413574D01*
X139634419Y-103392750D01*
X139641651Y-103372538D01*
X139650830Y-103353132D01*
X139661866Y-103334719D01*
X139674654Y-103317476D01*
X139689070Y-103301570D01*
X139704976Y-103287154D01*
X139722219Y-103274366D01*
X139740632Y-103263330D01*
X139760038Y-103254151D01*
X139780250Y-103246919D01*
X139801074Y-103241703D01*
X139822309Y-103238553D01*
X139843750Y-103237500D01*
X140356250Y-103237500D01*
X140377691Y-103238553D01*
G37*
G36*
X138777691Y-101663553D02*
G01*
X138798926Y-101666703D01*
X138819750Y-101671919D01*
X138839962Y-101679151D01*
X138859368Y-101688330D01*
X138877781Y-101699366D01*
X138895024Y-101712154D01*
X138910930Y-101726570D01*
X138925346Y-101742476D01*
X138938134Y-101759719D01*
X138949170Y-101778132D01*
X138958349Y-101797538D01*
X138965581Y-101817750D01*
X138970797Y-101838574D01*
X138973947Y-101859809D01*
X138975000Y-101881250D01*
X138975000Y-102318750D01*
X138973947Y-102340191D01*
X138970797Y-102361426D01*
X138965581Y-102382250D01*
X138958349Y-102402462D01*
X138949170Y-102421868D01*
X138938134Y-102440281D01*
X138925346Y-102457524D01*
X138910930Y-102473430D01*
X138895024Y-102487846D01*
X138877781Y-102500634D01*
X138859368Y-102511670D01*
X138839962Y-102520849D01*
X138819750Y-102528081D01*
X138798926Y-102533297D01*
X138777691Y-102536447D01*
X138756250Y-102537500D01*
X138243750Y-102537500D01*
X138222309Y-102536447D01*
X138201074Y-102533297D01*
X138180250Y-102528081D01*
X138160038Y-102520849D01*
X138140632Y-102511670D01*
X138122219Y-102500634D01*
X138104976Y-102487846D01*
X138089070Y-102473430D01*
X138074654Y-102457524D01*
X138061866Y-102440281D01*
X138050830Y-102421868D01*
X138041651Y-102402462D01*
X138034419Y-102382250D01*
X138029203Y-102361426D01*
X138026053Y-102340191D01*
X138025000Y-102318750D01*
X138025000Y-101881250D01*
X138026053Y-101859809D01*
X138029203Y-101838574D01*
X138034419Y-101817750D01*
X138041651Y-101797538D01*
X138050830Y-101778132D01*
X138061866Y-101759719D01*
X138074654Y-101742476D01*
X138089070Y-101726570D01*
X138104976Y-101712154D01*
X138122219Y-101699366D01*
X138140632Y-101688330D01*
X138160038Y-101679151D01*
X138180250Y-101671919D01*
X138201074Y-101666703D01*
X138222309Y-101663553D01*
X138243750Y-101662500D01*
X138756250Y-101662500D01*
X138777691Y-101663553D01*
G37*
G36*
X138777691Y-103238553D02*
G01*
X138798926Y-103241703D01*
X138819750Y-103246919D01*
X138839962Y-103254151D01*
X138859368Y-103263330D01*
X138877781Y-103274366D01*
X138895024Y-103287154D01*
X138910930Y-103301570D01*
X138925346Y-103317476D01*
X138938134Y-103334719D01*
X138949170Y-103353132D01*
X138958349Y-103372538D01*
X138965581Y-103392750D01*
X138970797Y-103413574D01*
X138973947Y-103434809D01*
X138975000Y-103456250D01*
X138975000Y-103893750D01*
X138973947Y-103915191D01*
X138970797Y-103936426D01*
X138965581Y-103957250D01*
X138958349Y-103977462D01*
X138949170Y-103996868D01*
X138938134Y-104015281D01*
X138925346Y-104032524D01*
X138910930Y-104048430D01*
X138895024Y-104062846D01*
X138877781Y-104075634D01*
X138859368Y-104086670D01*
X138839962Y-104095849D01*
X138819750Y-104103081D01*
X138798926Y-104108297D01*
X138777691Y-104111447D01*
X138756250Y-104112500D01*
X138243750Y-104112500D01*
X138222309Y-104111447D01*
X138201074Y-104108297D01*
X138180250Y-104103081D01*
X138160038Y-104095849D01*
X138140632Y-104086670D01*
X138122219Y-104075634D01*
X138104976Y-104062846D01*
X138089070Y-104048430D01*
X138074654Y-104032524D01*
X138061866Y-104015281D01*
X138050830Y-103996868D01*
X138041651Y-103977462D01*
X138034419Y-103957250D01*
X138029203Y-103936426D01*
X138026053Y-103915191D01*
X138025000Y-103893750D01*
X138025000Y-103456250D01*
X138026053Y-103434809D01*
X138029203Y-103413574D01*
X138034419Y-103392750D01*
X138041651Y-103372538D01*
X138050830Y-103353132D01*
X138061866Y-103334719D01*
X138074654Y-103317476D01*
X138089070Y-103301570D01*
X138104976Y-103287154D01*
X138122219Y-103274366D01*
X138140632Y-103263330D01*
X138160038Y-103254151D01*
X138180250Y-103246919D01*
X138201074Y-103241703D01*
X138222309Y-103238553D01*
X138243750Y-103237500D01*
X138756250Y-103237500D01*
X138777691Y-103238553D01*
G37*
G36*
X135340191Y-92226053D02*
G01*
X135361426Y-92229203D01*
X135382250Y-92234419D01*
X135402462Y-92241651D01*
X135421868Y-92250830D01*
X135440281Y-92261866D01*
X135457524Y-92274654D01*
X135473430Y-92289070D01*
X135487846Y-92304976D01*
X135500634Y-92322219D01*
X135511670Y-92340632D01*
X135520849Y-92360038D01*
X135528081Y-92380250D01*
X135533297Y-92401074D01*
X135536447Y-92422309D01*
X135537500Y-92443750D01*
X135537500Y-92956250D01*
X135536447Y-92977691D01*
X135533297Y-92998926D01*
X135528081Y-93019750D01*
X135520849Y-93039962D01*
X135511670Y-93059368D01*
X135500634Y-93077781D01*
X135487846Y-93095024D01*
X135473430Y-93110930D01*
X135457524Y-93125346D01*
X135440281Y-93138134D01*
X135421868Y-93149170D01*
X135402462Y-93158349D01*
X135382250Y-93165581D01*
X135361426Y-93170797D01*
X135340191Y-93173947D01*
X135318750Y-93175000D01*
X134881250Y-93175000D01*
X134859809Y-93173947D01*
X134838574Y-93170797D01*
X134817750Y-93165581D01*
X134797538Y-93158349D01*
X134778132Y-93149170D01*
X134759719Y-93138134D01*
X134742476Y-93125346D01*
X134726570Y-93110930D01*
X134712154Y-93095024D01*
X134699366Y-93077781D01*
X134688330Y-93059368D01*
X134679151Y-93039962D01*
X134671919Y-93019750D01*
X134666703Y-92998926D01*
X134663553Y-92977691D01*
X134662500Y-92956250D01*
X134662500Y-92443750D01*
X134663553Y-92422309D01*
X134666703Y-92401074D01*
X134671919Y-92380250D01*
X134679151Y-92360038D01*
X134688330Y-92340632D01*
X134699366Y-92322219D01*
X134712154Y-92304976D01*
X134726570Y-92289070D01*
X134742476Y-92274654D01*
X134759719Y-92261866D01*
X134778132Y-92250830D01*
X134797538Y-92241651D01*
X134817750Y-92234419D01*
X134838574Y-92229203D01*
X134859809Y-92226053D01*
X134881250Y-92225000D01*
X135318750Y-92225000D01*
X135340191Y-92226053D01*
G37*
G36*
X136915191Y-92226053D02*
G01*
X136936426Y-92229203D01*
X136957250Y-92234419D01*
X136977462Y-92241651D01*
X136996868Y-92250830D01*
X137015281Y-92261866D01*
X137032524Y-92274654D01*
X137048430Y-92289070D01*
X137062846Y-92304976D01*
X137075634Y-92322219D01*
X137086670Y-92340632D01*
X137095849Y-92360038D01*
X137103081Y-92380250D01*
X137108297Y-92401074D01*
X137111447Y-92422309D01*
X137112500Y-92443750D01*
X137112500Y-92956250D01*
X137111447Y-92977691D01*
X137108297Y-92998926D01*
X137103081Y-93019750D01*
X137095849Y-93039962D01*
X137086670Y-93059368D01*
X137075634Y-93077781D01*
X137062846Y-93095024D01*
X137048430Y-93110930D01*
X137032524Y-93125346D01*
X137015281Y-93138134D01*
X136996868Y-93149170D01*
X136977462Y-93158349D01*
X136957250Y-93165581D01*
X136936426Y-93170797D01*
X136915191Y-93173947D01*
X136893750Y-93175000D01*
X136456250Y-93175000D01*
X136434809Y-93173947D01*
X136413574Y-93170797D01*
X136392750Y-93165581D01*
X136372538Y-93158349D01*
X136353132Y-93149170D01*
X136334719Y-93138134D01*
X136317476Y-93125346D01*
X136301570Y-93110930D01*
X136287154Y-93095024D01*
X136274366Y-93077781D01*
X136263330Y-93059368D01*
X136254151Y-93039962D01*
X136246919Y-93019750D01*
X136241703Y-92998926D01*
X136238553Y-92977691D01*
X136237500Y-92956250D01*
X136237500Y-92443750D01*
X136238553Y-92422309D01*
X136241703Y-92401074D01*
X136246919Y-92380250D01*
X136254151Y-92360038D01*
X136263330Y-92340632D01*
X136274366Y-92322219D01*
X136287154Y-92304976D01*
X136301570Y-92289070D01*
X136317476Y-92274654D01*
X136334719Y-92261866D01*
X136353132Y-92250830D01*
X136372538Y-92241651D01*
X136392750Y-92234419D01*
X136413574Y-92229203D01*
X136434809Y-92226053D01*
X136456250Y-92225000D01*
X136893750Y-92225000D01*
X136915191Y-92226053D01*
G37*
G36*
X133877691Y-101663553D02*
G01*
X133898926Y-101666703D01*
X133919750Y-101671919D01*
X133939962Y-101679151D01*
X133959368Y-101688330D01*
X133977781Y-101699366D01*
X133995024Y-101712154D01*
X134010930Y-101726570D01*
X134025346Y-101742476D01*
X134038134Y-101759719D01*
X134049170Y-101778132D01*
X134058349Y-101797538D01*
X134065581Y-101817750D01*
X134070797Y-101838574D01*
X134073947Y-101859809D01*
X134075000Y-101881250D01*
X134075000Y-102318750D01*
X134073947Y-102340191D01*
X134070797Y-102361426D01*
X134065581Y-102382250D01*
X134058349Y-102402462D01*
X134049170Y-102421868D01*
X134038134Y-102440281D01*
X134025346Y-102457524D01*
X134010930Y-102473430D01*
X133995024Y-102487846D01*
X133977781Y-102500634D01*
X133959368Y-102511670D01*
X133939962Y-102520849D01*
X133919750Y-102528081D01*
X133898926Y-102533297D01*
X133877691Y-102536447D01*
X133856250Y-102537500D01*
X133343750Y-102537500D01*
X133322309Y-102536447D01*
X133301074Y-102533297D01*
X133280250Y-102528081D01*
X133260038Y-102520849D01*
X133240632Y-102511670D01*
X133222219Y-102500634D01*
X133204976Y-102487846D01*
X133189070Y-102473430D01*
X133174654Y-102457524D01*
X133161866Y-102440281D01*
X133150830Y-102421868D01*
X133141651Y-102402462D01*
X133134419Y-102382250D01*
X133129203Y-102361426D01*
X133126053Y-102340191D01*
X133125000Y-102318750D01*
X133125000Y-101881250D01*
X133126053Y-101859809D01*
X133129203Y-101838574D01*
X133134419Y-101817750D01*
X133141651Y-101797538D01*
X133150830Y-101778132D01*
X133161866Y-101759719D01*
X133174654Y-101742476D01*
X133189070Y-101726570D01*
X133204976Y-101712154D01*
X133222219Y-101699366D01*
X133240632Y-101688330D01*
X133260038Y-101679151D01*
X133280250Y-101671919D01*
X133301074Y-101666703D01*
X133322309Y-101663553D01*
X133343750Y-101662500D01*
X133856250Y-101662500D01*
X133877691Y-101663553D01*
G37*
G36*
X133877691Y-103238553D02*
G01*
X133898926Y-103241703D01*
X133919750Y-103246919D01*
X133939962Y-103254151D01*
X133959368Y-103263330D01*
X133977781Y-103274366D01*
X133995024Y-103287154D01*
X134010930Y-103301570D01*
X134025346Y-103317476D01*
X134038134Y-103334719D01*
X134049170Y-103353132D01*
X134058349Y-103372538D01*
X134065581Y-103392750D01*
X134070797Y-103413574D01*
X134073947Y-103434809D01*
X134075000Y-103456250D01*
X134075000Y-103893750D01*
X134073947Y-103915191D01*
X134070797Y-103936426D01*
X134065581Y-103957250D01*
X134058349Y-103977462D01*
X134049170Y-103996868D01*
X134038134Y-104015281D01*
X134025346Y-104032524D01*
X134010930Y-104048430D01*
X133995024Y-104062846D01*
X133977781Y-104075634D01*
X133959368Y-104086670D01*
X133939962Y-104095849D01*
X133919750Y-104103081D01*
X133898926Y-104108297D01*
X133877691Y-104111447D01*
X133856250Y-104112500D01*
X133343750Y-104112500D01*
X133322309Y-104111447D01*
X133301074Y-104108297D01*
X133280250Y-104103081D01*
X133260038Y-104095849D01*
X133240632Y-104086670D01*
X133222219Y-104075634D01*
X133204976Y-104062846D01*
X133189070Y-104048430D01*
X133174654Y-104032524D01*
X133161866Y-104015281D01*
X133150830Y-103996868D01*
X133141651Y-103977462D01*
X133134419Y-103957250D01*
X133129203Y-103936426D01*
X133126053Y-103915191D01*
X133125000Y-103893750D01*
X133125000Y-103456250D01*
X133126053Y-103434809D01*
X133129203Y-103413574D01*
X133134419Y-103392750D01*
X133141651Y-103372538D01*
X133150830Y-103353132D01*
X133161866Y-103334719D01*
X133174654Y-103317476D01*
X133189070Y-103301570D01*
X133204976Y-103287154D01*
X133222219Y-103274366D01*
X133240632Y-103263330D01*
X133260038Y-103254151D01*
X133280250Y-103246919D01*
X133301074Y-103241703D01*
X133322309Y-103238553D01*
X133343750Y-103237500D01*
X133856250Y-103237500D01*
X133877691Y-103238553D01*
G37*
D17*
X142150000Y-95770000D03*
X146650000Y-95770000D03*
X146650000Y-103730000D03*
X142150000Y-103730000D03*
M02*
