G04 #@! TF.GenerationSoftware,KiCad,Pcbnew,5.1.5*
G04 #@! TF.CreationDate,2020-03-24T00:38:53+03:00*
G04 #@! TF.ProjectId,nordic-switch,6e6f7264-6963-42d7-9377-697463682e6b,1.0*
G04 #@! TF.SameCoordinates,Original*
G04 #@! TF.FileFunction,Copper,L2,Bot*
G04 #@! TF.FilePolarity,Positive*
%FSLAX46Y46*%
G04 Gerber Fmt 4.6, Leading zero omitted, Abs format (unit mm)*
G04 Created by KiCad (PCBNEW 5.1.5) date 2020-03-24 00:38:53*
%MOMM*%
%LPD*%
G04 APERTURE LIST*
%ADD10C,2.000000*%
%ADD11C,0.100000*%
%ADD12C,1.000000*%
%ADD13C,4.000500*%
%ADD14O,1.500000X2.500000*%
%ADD15C,1.500000*%
%ADD16R,1.500000X1.500000*%
%ADD17C,0.500000*%
%ADD18C,0.200000*%
%ADD19C,0.254000*%
G04 APERTURE END LIST*
D10*
X151300000Y-111300000D03*
X151310000Y-116380000D03*
G04 #@! TA.AperFunction,SMDPad,CuDef*
D11*
G36*
X140699504Y-109126204D02*
G01*
X140723773Y-109129804D01*
X140747571Y-109135765D01*
X140770671Y-109144030D01*
X140792849Y-109154520D01*
X140813893Y-109167133D01*
X140833598Y-109181747D01*
X140851777Y-109198223D01*
X140868253Y-109216402D01*
X140882867Y-109236107D01*
X140895480Y-109257151D01*
X140905970Y-109279329D01*
X140914235Y-109302429D01*
X140920196Y-109326227D01*
X140923796Y-109350496D01*
X140925000Y-109375000D01*
X140925000Y-110625000D01*
X140923796Y-110649504D01*
X140920196Y-110673773D01*
X140914235Y-110697571D01*
X140905970Y-110720671D01*
X140895480Y-110742849D01*
X140882867Y-110763893D01*
X140868253Y-110783598D01*
X140851777Y-110801777D01*
X140833598Y-110818253D01*
X140813893Y-110832867D01*
X140792849Y-110845480D01*
X140770671Y-110855970D01*
X140747571Y-110864235D01*
X140723773Y-110870196D01*
X140699504Y-110873796D01*
X140675000Y-110875000D01*
X139925000Y-110875000D01*
X139900496Y-110873796D01*
X139876227Y-110870196D01*
X139852429Y-110864235D01*
X139829329Y-110855970D01*
X139807151Y-110845480D01*
X139786107Y-110832867D01*
X139766402Y-110818253D01*
X139748223Y-110801777D01*
X139731747Y-110783598D01*
X139717133Y-110763893D01*
X139704520Y-110742849D01*
X139694030Y-110720671D01*
X139685765Y-110697571D01*
X139679804Y-110673773D01*
X139676204Y-110649504D01*
X139675000Y-110625000D01*
X139675000Y-109375000D01*
X139676204Y-109350496D01*
X139679804Y-109326227D01*
X139685765Y-109302429D01*
X139694030Y-109279329D01*
X139704520Y-109257151D01*
X139717133Y-109236107D01*
X139731747Y-109216402D01*
X139748223Y-109198223D01*
X139766402Y-109181747D01*
X139786107Y-109167133D01*
X139807151Y-109154520D01*
X139829329Y-109144030D01*
X139852429Y-109135765D01*
X139876227Y-109129804D01*
X139900496Y-109126204D01*
X139925000Y-109125000D01*
X140675000Y-109125000D01*
X140699504Y-109126204D01*
G37*
G04 #@! TD.AperFunction*
G04 #@! TA.AperFunction,SMDPad,CuDef*
G36*
X143499504Y-109126204D02*
G01*
X143523773Y-109129804D01*
X143547571Y-109135765D01*
X143570671Y-109144030D01*
X143592849Y-109154520D01*
X143613893Y-109167133D01*
X143633598Y-109181747D01*
X143651777Y-109198223D01*
X143668253Y-109216402D01*
X143682867Y-109236107D01*
X143695480Y-109257151D01*
X143705970Y-109279329D01*
X143714235Y-109302429D01*
X143720196Y-109326227D01*
X143723796Y-109350496D01*
X143725000Y-109375000D01*
X143725000Y-110625000D01*
X143723796Y-110649504D01*
X143720196Y-110673773D01*
X143714235Y-110697571D01*
X143705970Y-110720671D01*
X143695480Y-110742849D01*
X143682867Y-110763893D01*
X143668253Y-110783598D01*
X143651777Y-110801777D01*
X143633598Y-110818253D01*
X143613893Y-110832867D01*
X143592849Y-110845480D01*
X143570671Y-110855970D01*
X143547571Y-110864235D01*
X143523773Y-110870196D01*
X143499504Y-110873796D01*
X143475000Y-110875000D01*
X142725000Y-110875000D01*
X142700496Y-110873796D01*
X142676227Y-110870196D01*
X142652429Y-110864235D01*
X142629329Y-110855970D01*
X142607151Y-110845480D01*
X142586107Y-110832867D01*
X142566402Y-110818253D01*
X142548223Y-110801777D01*
X142531747Y-110783598D01*
X142517133Y-110763893D01*
X142504520Y-110742849D01*
X142494030Y-110720671D01*
X142485765Y-110697571D01*
X142479804Y-110673773D01*
X142476204Y-110649504D01*
X142475000Y-110625000D01*
X142475000Y-109375000D01*
X142476204Y-109350496D01*
X142479804Y-109326227D01*
X142485765Y-109302429D01*
X142494030Y-109279329D01*
X142504520Y-109257151D01*
X142517133Y-109236107D01*
X142531747Y-109216402D01*
X142548223Y-109198223D01*
X142566402Y-109181747D01*
X142586107Y-109167133D01*
X142607151Y-109154520D01*
X142629329Y-109144030D01*
X142652429Y-109135765D01*
X142676227Y-109129804D01*
X142700496Y-109126204D01*
X142725000Y-109125000D01*
X143475000Y-109125000D01*
X143499504Y-109126204D01*
G37*
G04 #@! TD.AperFunction*
G04 #@! TA.AperFunction,SMDPad,CuDef*
G36*
X145699504Y-109126204D02*
G01*
X145723773Y-109129804D01*
X145747571Y-109135765D01*
X145770671Y-109144030D01*
X145792849Y-109154520D01*
X145813893Y-109167133D01*
X145833598Y-109181747D01*
X145851777Y-109198223D01*
X145868253Y-109216402D01*
X145882867Y-109236107D01*
X145895480Y-109257151D01*
X145905970Y-109279329D01*
X145914235Y-109302429D01*
X145920196Y-109326227D01*
X145923796Y-109350496D01*
X145925000Y-109375000D01*
X145925000Y-110625000D01*
X145923796Y-110649504D01*
X145920196Y-110673773D01*
X145914235Y-110697571D01*
X145905970Y-110720671D01*
X145895480Y-110742849D01*
X145882867Y-110763893D01*
X145868253Y-110783598D01*
X145851777Y-110801777D01*
X145833598Y-110818253D01*
X145813893Y-110832867D01*
X145792849Y-110845480D01*
X145770671Y-110855970D01*
X145747571Y-110864235D01*
X145723773Y-110870196D01*
X145699504Y-110873796D01*
X145675000Y-110875000D01*
X144925000Y-110875000D01*
X144900496Y-110873796D01*
X144876227Y-110870196D01*
X144852429Y-110864235D01*
X144829329Y-110855970D01*
X144807151Y-110845480D01*
X144786107Y-110832867D01*
X144766402Y-110818253D01*
X144748223Y-110801777D01*
X144731747Y-110783598D01*
X144717133Y-110763893D01*
X144704520Y-110742849D01*
X144694030Y-110720671D01*
X144685765Y-110697571D01*
X144679804Y-110673773D01*
X144676204Y-110649504D01*
X144675000Y-110625000D01*
X144675000Y-109375000D01*
X144676204Y-109350496D01*
X144679804Y-109326227D01*
X144685765Y-109302429D01*
X144694030Y-109279329D01*
X144704520Y-109257151D01*
X144717133Y-109236107D01*
X144731747Y-109216402D01*
X144748223Y-109198223D01*
X144766402Y-109181747D01*
X144786107Y-109167133D01*
X144807151Y-109154520D01*
X144829329Y-109144030D01*
X144852429Y-109135765D01*
X144876227Y-109129804D01*
X144900496Y-109126204D01*
X144925000Y-109125000D01*
X145675000Y-109125000D01*
X145699504Y-109126204D01*
G37*
G04 #@! TD.AperFunction*
G04 #@! TA.AperFunction,SMDPad,CuDef*
G36*
X148499504Y-109126204D02*
G01*
X148523773Y-109129804D01*
X148547571Y-109135765D01*
X148570671Y-109144030D01*
X148592849Y-109154520D01*
X148613893Y-109167133D01*
X148633598Y-109181747D01*
X148651777Y-109198223D01*
X148668253Y-109216402D01*
X148682867Y-109236107D01*
X148695480Y-109257151D01*
X148705970Y-109279329D01*
X148714235Y-109302429D01*
X148720196Y-109326227D01*
X148723796Y-109350496D01*
X148725000Y-109375000D01*
X148725000Y-110625000D01*
X148723796Y-110649504D01*
X148720196Y-110673773D01*
X148714235Y-110697571D01*
X148705970Y-110720671D01*
X148695480Y-110742849D01*
X148682867Y-110763893D01*
X148668253Y-110783598D01*
X148651777Y-110801777D01*
X148633598Y-110818253D01*
X148613893Y-110832867D01*
X148592849Y-110845480D01*
X148570671Y-110855970D01*
X148547571Y-110864235D01*
X148523773Y-110870196D01*
X148499504Y-110873796D01*
X148475000Y-110875000D01*
X147725000Y-110875000D01*
X147700496Y-110873796D01*
X147676227Y-110870196D01*
X147652429Y-110864235D01*
X147629329Y-110855970D01*
X147607151Y-110845480D01*
X147586107Y-110832867D01*
X147566402Y-110818253D01*
X147548223Y-110801777D01*
X147531747Y-110783598D01*
X147517133Y-110763893D01*
X147504520Y-110742849D01*
X147494030Y-110720671D01*
X147485765Y-110697571D01*
X147479804Y-110673773D01*
X147476204Y-110649504D01*
X147475000Y-110625000D01*
X147475000Y-109375000D01*
X147476204Y-109350496D01*
X147479804Y-109326227D01*
X147485765Y-109302429D01*
X147494030Y-109279329D01*
X147504520Y-109257151D01*
X147517133Y-109236107D01*
X147531747Y-109216402D01*
X147548223Y-109198223D01*
X147566402Y-109181747D01*
X147586107Y-109167133D01*
X147607151Y-109154520D01*
X147629329Y-109144030D01*
X147652429Y-109135765D01*
X147676227Y-109129804D01*
X147700496Y-109126204D01*
X147725000Y-109125000D01*
X148475000Y-109125000D01*
X148499504Y-109126204D01*
G37*
G04 #@! TD.AperFunction*
D12*
X136900000Y-87800000D03*
X136900000Y-89800000D03*
X134900000Y-89800000D03*
D13*
X149500000Y-78500000D03*
D14*
X154500000Y-107300000D03*
X134400000Y-107300000D03*
D15*
X150600000Y-91200000D03*
X150600000Y-88660000D03*
D16*
X150600000Y-93740000D03*
D13*
X149500000Y-120900000D03*
X139300000Y-120900000D03*
X139300000Y-78500000D03*
D17*
X134300000Y-100500000D03*
X133900000Y-94700000D03*
X147800000Y-97500000D03*
X137400000Y-105800000D03*
X140750000Y-100950000D03*
X133200000Y-95700000D03*
X138100000Y-96100000D03*
X135700000Y-99300000D03*
X138900000Y-99300000D03*
X137300000Y-99300000D03*
X137300000Y-97700000D03*
X138900000Y-97700000D03*
X135700000Y-97700000D03*
X135700000Y-96100000D03*
X141700000Y-90500000D03*
X143100000Y-90500000D03*
X144300000Y-92700000D03*
X137400000Y-91900000D03*
X139300000Y-91900000D03*
X139300000Y-90500000D03*
X139800000Y-89400000D03*
X143800000Y-103800000D03*
X145600000Y-103800000D03*
X145600000Y-102000000D03*
X143800000Y-102000000D03*
X133600000Y-104500000D03*
X143800000Y-100200000D03*
X145600000Y-100200000D03*
X138300000Y-87900000D03*
X136900000Y-86400000D03*
X133900000Y-88900000D03*
X133300000Y-93600000D03*
X143800000Y-98400000D03*
X145600000Y-98400000D03*
X147700000Y-99400000D03*
X147700000Y-100900000D03*
X149400000Y-100200000D03*
X144300000Y-91700000D03*
X145300000Y-91700000D03*
X145300000Y-92700000D03*
X142400000Y-93500000D03*
X133600000Y-91200000D03*
X134400000Y-86400000D03*
X142400000Y-94300000D03*
X140200000Y-91900000D03*
X140200000Y-90500000D03*
X145400000Y-94700000D03*
X143400000Y-94700000D03*
X144400000Y-94700000D03*
X143800000Y-96600000D03*
X145600000Y-96600000D03*
X138300000Y-91900000D03*
X133200000Y-98100000D03*
X133200000Y-96900000D03*
X138500000Y-104300000D03*
X140100000Y-104300000D03*
X138500000Y-106400000D03*
X140100000Y-106400000D03*
X141500000Y-94399992D03*
X140712083Y-94950002D03*
X147100000Y-94100000D03*
X142000000Y-97400004D03*
X141900000Y-101700000D03*
D18*
X150000000Y-110000000D02*
X148100000Y-110000000D01*
X151300000Y-111300000D02*
X150000000Y-110000000D01*
X134300000Y-95100000D02*
X134300000Y-100500000D01*
X133900000Y-94700000D02*
X134300000Y-95100000D01*
X147800000Y-97500000D02*
X147800000Y-98165700D01*
X146465689Y-99500011D02*
X142199989Y-99500011D01*
X147800000Y-98165700D02*
X146465689Y-99500011D01*
X142199989Y-99500011D02*
X140750000Y-100950000D01*
X135200000Y-101400000D02*
X134300000Y-100500000D01*
X140750000Y-100950000D02*
X140300000Y-101400000D01*
X137400000Y-105800000D02*
X137400000Y-101400000D01*
X140300000Y-101400000D02*
X137400000Y-101400000D01*
X137400000Y-101400000D02*
X135200000Y-101400000D01*
X135300000Y-91400000D02*
X136900000Y-89800000D01*
X135300000Y-94100000D02*
X135300000Y-91400000D01*
X136700000Y-95500000D02*
X135300000Y-94100000D01*
X137000000Y-96700000D02*
X136700000Y-96400000D01*
X136700000Y-96400000D02*
X136700000Y-95500000D01*
X141400008Y-94300000D02*
X139800000Y-94300000D01*
X138700000Y-96700000D02*
X137000000Y-96700000D01*
X139100000Y-95000000D02*
X139100000Y-96300000D01*
X139800000Y-94300000D02*
X139100000Y-95000000D01*
X141500000Y-94399992D02*
X141400008Y-94300000D01*
X139100000Y-96300000D02*
X138700000Y-96700000D01*
X140512081Y-94750000D02*
X140712083Y-94950002D01*
X139950000Y-94750000D02*
X140512081Y-94750000D01*
X138915627Y-97100011D02*
X139557819Y-96457819D01*
X134900000Y-89900000D02*
X134900000Y-94300000D01*
X139557819Y-96457819D02*
X139557819Y-95142181D01*
X136299989Y-95699989D02*
X136299989Y-96565689D01*
X134900000Y-94300000D02*
X136299989Y-95699989D01*
X136299989Y-96565689D02*
X136834311Y-97100011D01*
X139557819Y-95142181D02*
X139950000Y-94750000D01*
X136834311Y-97100011D02*
X138915627Y-97100011D01*
X147100000Y-94100000D02*
X147100000Y-94100000D01*
X147100000Y-98300000D02*
X146300000Y-99100000D01*
X147100000Y-94100000D02*
X147100000Y-98300000D01*
X142400000Y-97800004D02*
X142000000Y-97400004D01*
X142400000Y-98800000D02*
X142400000Y-97800004D01*
X142700000Y-99100000D02*
X142400000Y-98800000D01*
X146300000Y-99100000D02*
X142700000Y-99100000D01*
X140300000Y-110000000D02*
X140300000Y-107400000D01*
X141900000Y-102053553D02*
X141900000Y-101700000D01*
X141900000Y-105800000D02*
X141900000Y-102053553D01*
X140300000Y-107400000D02*
X141900000Y-105800000D01*
X145300000Y-110000000D02*
X143100000Y-110000000D01*
D19*
G36*
X136940987Y-86242467D02*
G01*
X137006910Y-86286516D01*
X140922329Y-90201935D01*
X140941574Y-90217729D01*
X141038901Y-90282761D01*
X141060858Y-90294497D01*
X141084683Y-90301724D01*
X141199488Y-90324560D01*
X141224264Y-90327000D01*
X145387491Y-90327000D01*
X145465251Y-90342467D01*
X145520570Y-90379430D01*
X145557533Y-90434749D01*
X145573000Y-90512509D01*
X145573000Y-93775736D01*
X145575440Y-93800512D01*
X145598276Y-93915317D01*
X145605503Y-93939142D01*
X145617239Y-93961099D01*
X145682271Y-94058426D01*
X145698065Y-94077671D01*
X146673000Y-95052606D01*
X146673001Y-98123130D01*
X146123132Y-98673000D01*
X142876869Y-98673000D01*
X142827000Y-98623132D01*
X142827000Y-97820968D01*
X142829065Y-97800003D01*
X142827000Y-97779038D01*
X142827000Y-97779026D01*
X142820822Y-97716297D01*
X142796405Y-97635808D01*
X142769487Y-97585447D01*
X142756755Y-97561627D01*
X142716767Y-97512902D01*
X142716764Y-97512899D01*
X142703395Y-97496609D01*
X142687105Y-97483240D01*
X142577000Y-97373135D01*
X142577000Y-97343174D01*
X142554826Y-97231699D01*
X142511331Y-97126692D01*
X142448185Y-97032188D01*
X142367816Y-96951819D01*
X142273312Y-96888673D01*
X142168305Y-96845178D01*
X142056830Y-96823004D01*
X141943170Y-96823004D01*
X141831695Y-96845178D01*
X141726688Y-96888673D01*
X141632184Y-96951819D01*
X141551815Y-97032188D01*
X141488669Y-97126692D01*
X141445174Y-97231699D01*
X141423000Y-97343174D01*
X141423000Y-97456834D01*
X141445174Y-97568309D01*
X141488669Y-97673316D01*
X141551815Y-97767820D01*
X141632184Y-97848189D01*
X141726688Y-97911335D01*
X141831695Y-97954830D01*
X141943170Y-97977004D01*
X141973001Y-97977004D01*
X141973000Y-98779032D01*
X141970935Y-98800000D01*
X141973000Y-98820967D01*
X141973000Y-98820977D01*
X141979178Y-98883706D01*
X142003595Y-98964195D01*
X142013278Y-98982310D01*
X142043245Y-99038376D01*
X142079169Y-99082149D01*
X142084622Y-99088793D01*
X142035793Y-99103606D01*
X142016319Y-99114015D01*
X141961612Y-99143256D01*
X141912888Y-99183243D01*
X141912884Y-99183247D01*
X141896594Y-99196616D01*
X141883225Y-99212906D01*
X140723132Y-100373000D01*
X140693170Y-100373000D01*
X140581695Y-100395174D01*
X140476688Y-100438669D01*
X140382184Y-100501815D01*
X140301815Y-100582184D01*
X140238669Y-100676688D01*
X140195174Y-100781695D01*
X140173000Y-100893170D01*
X140173000Y-100923132D01*
X140123132Y-100973000D01*
X137420978Y-100973000D01*
X137400000Y-100970934D01*
X137379023Y-100973000D01*
X135376870Y-100973000D01*
X134877000Y-100473131D01*
X134877000Y-100443170D01*
X134854826Y-100331695D01*
X134811331Y-100226688D01*
X134748185Y-100132184D01*
X134727000Y-100110999D01*
X134727000Y-95120964D01*
X134729065Y-95099999D01*
X134727000Y-95079034D01*
X134727000Y-95079022D01*
X134720822Y-95016293D01*
X134696405Y-94935804D01*
X134672717Y-94891487D01*
X134656755Y-94861623D01*
X134616767Y-94812898D01*
X134616764Y-94812895D01*
X134603395Y-94796605D01*
X134587106Y-94783237D01*
X134477000Y-94673131D01*
X134477000Y-94643170D01*
X134454826Y-94531695D01*
X134411331Y-94426688D01*
X134348185Y-94332184D01*
X134267816Y-94251815D01*
X134173312Y-94188669D01*
X134068305Y-94145174D01*
X133956830Y-94123000D01*
X133843170Y-94123000D01*
X133731695Y-94145174D01*
X133626688Y-94188669D01*
X133532184Y-94251815D01*
X133451815Y-94332184D01*
X133388669Y-94426688D01*
X133345174Y-94531695D01*
X133323000Y-94643170D01*
X133323000Y-94756830D01*
X133345174Y-94868305D01*
X133388669Y-94973312D01*
X133451815Y-95067816D01*
X133532184Y-95148185D01*
X133626688Y-95211331D01*
X133731695Y-95254826D01*
X133843170Y-95277000D01*
X133873000Y-95277000D01*
X133873001Y-100110998D01*
X133851815Y-100132184D01*
X133788669Y-100226688D01*
X133745174Y-100331695D01*
X133723000Y-100443170D01*
X133723000Y-100556830D01*
X133745174Y-100668305D01*
X133788669Y-100773312D01*
X133851815Y-100867816D01*
X133932184Y-100948185D01*
X134026688Y-101011331D01*
X134131695Y-101054826D01*
X134243170Y-101077000D01*
X134273131Y-101077000D01*
X134883241Y-101687111D01*
X134896605Y-101703395D01*
X134912889Y-101716759D01*
X134912898Y-101716768D01*
X134961623Y-101756755D01*
X134984574Y-101769022D01*
X135035804Y-101796405D01*
X135116293Y-101820822D01*
X135179022Y-101827000D01*
X135179032Y-101827000D01*
X135199999Y-101829065D01*
X135220966Y-101827000D01*
X136973001Y-101827000D01*
X136973000Y-105410999D01*
X136951815Y-105432184D01*
X136888669Y-105526688D01*
X136845174Y-105631695D01*
X136823000Y-105743170D01*
X136823000Y-105856830D01*
X136845174Y-105968305D01*
X136888669Y-106073312D01*
X136951815Y-106167816D01*
X137032184Y-106248185D01*
X137126688Y-106311331D01*
X137231695Y-106354826D01*
X137343170Y-106377000D01*
X137456830Y-106377000D01*
X137568305Y-106354826D01*
X137673312Y-106311331D01*
X137767816Y-106248185D01*
X137848185Y-106167816D01*
X137911331Y-106073312D01*
X137954826Y-105968305D01*
X137977000Y-105856830D01*
X137977000Y-105743170D01*
X137954826Y-105631695D01*
X137911331Y-105526688D01*
X137848185Y-105432184D01*
X137827000Y-105410999D01*
X137827000Y-101827000D01*
X140279033Y-101827000D01*
X140300000Y-101829065D01*
X140320967Y-101827000D01*
X140320978Y-101827000D01*
X140383707Y-101820822D01*
X140464196Y-101796405D01*
X140538376Y-101756755D01*
X140603395Y-101703395D01*
X140616768Y-101687100D01*
X140776868Y-101527000D01*
X140806830Y-101527000D01*
X140918305Y-101504826D01*
X141023312Y-101461331D01*
X141117816Y-101398185D01*
X141198185Y-101317816D01*
X141261331Y-101223312D01*
X141304826Y-101118305D01*
X141327000Y-101006830D01*
X141327000Y-100976868D01*
X142376858Y-99927011D01*
X146444722Y-99927011D01*
X146465689Y-99929076D01*
X146486656Y-99927011D01*
X146486667Y-99927011D01*
X146549396Y-99920833D01*
X146629885Y-99896416D01*
X146704065Y-99856766D01*
X146769084Y-99803406D01*
X146782457Y-99787111D01*
X147742569Y-98827000D01*
X149487491Y-98827000D01*
X149565251Y-98842467D01*
X149620570Y-98879430D01*
X149657533Y-98934749D01*
X149673000Y-99012509D01*
X149673000Y-101287491D01*
X149657533Y-101365251D01*
X149620570Y-101420570D01*
X149565251Y-101457533D01*
X149487491Y-101473000D01*
X147400000Y-101473000D01*
X147375224Y-101475440D01*
X147260419Y-101498276D01*
X147236594Y-101505503D01*
X147214637Y-101517239D01*
X147117310Y-101582271D01*
X147098065Y-101598066D01*
X147082271Y-101617310D01*
X147017239Y-101714637D01*
X147005503Y-101736594D01*
X146998276Y-101760419D01*
X146975440Y-101875224D01*
X146973000Y-101900000D01*
X146973000Y-104887491D01*
X146957533Y-104965251D01*
X146920570Y-105020570D01*
X146865251Y-105057533D01*
X146787491Y-105073000D01*
X142327000Y-105073000D01*
X142327000Y-102089001D01*
X142348185Y-102067816D01*
X142411331Y-101973312D01*
X142454826Y-101868305D01*
X142477000Y-101756830D01*
X142477000Y-101643170D01*
X142454826Y-101531695D01*
X142411331Y-101426688D01*
X142348185Y-101332184D01*
X142267816Y-101251815D01*
X142173312Y-101188669D01*
X142068305Y-101145174D01*
X141956830Y-101123000D01*
X141843170Y-101123000D01*
X141731695Y-101145174D01*
X141626688Y-101188669D01*
X141532184Y-101251815D01*
X141451815Y-101332184D01*
X141388669Y-101426688D01*
X141345174Y-101531695D01*
X141323000Y-101643170D01*
X141323000Y-101756830D01*
X141345174Y-101868305D01*
X141388669Y-101973312D01*
X141451815Y-102067816D01*
X141473001Y-102089002D01*
X141473000Y-105623131D01*
X140423132Y-106673000D01*
X136312509Y-106673000D01*
X136234749Y-106657533D01*
X136179430Y-106620570D01*
X136142467Y-106565251D01*
X136127000Y-106487491D01*
X136127000Y-105500000D01*
X136124560Y-105475224D01*
X136101724Y-105360419D01*
X136094497Y-105336594D01*
X136082761Y-105314637D01*
X136017729Y-105217310D01*
X136001934Y-105198065D01*
X135982690Y-105182271D01*
X135885363Y-105117239D01*
X135863406Y-105105503D01*
X135839581Y-105098276D01*
X135724776Y-105075440D01*
X135700000Y-105073000D01*
X132989015Y-105073000D01*
X132984968Y-105029660D01*
X132966912Y-104830259D01*
X132949852Y-104635558D01*
X132933703Y-104444945D01*
X132917813Y-104250696D01*
X132902479Y-104056180D01*
X132888086Y-103866442D01*
X132874007Y-103673217D01*
X132860222Y-103475663D01*
X132847638Y-103286970D01*
X132835406Y-103094679D01*
X132823315Y-102894522D01*
X132811705Y-102691053D01*
X132801423Y-102499769D01*
X132791786Y-102308980D01*
X132782801Y-102118734D01*
X132773813Y-101913398D01*
X132766035Y-101720085D01*
X132758676Y-101519650D01*
X132751947Y-101315849D01*
X132746018Y-101113068D01*
X132740501Y-100894764D01*
X132736226Y-100693403D01*
X132732751Y-100492490D01*
X132730086Y-100292291D01*
X132728134Y-100077788D01*
X132727176Y-99879330D01*
X132727001Y-99749979D01*
X132727446Y-99544443D01*
X132728721Y-99345891D01*
X132730967Y-99134446D01*
X132733990Y-98930363D01*
X132737778Y-98729154D01*
X132742459Y-98523539D01*
X132747869Y-98320719D01*
X132753804Y-98125481D01*
X132760909Y-97917367D01*
X132768181Y-97724862D01*
X132776490Y-97523643D01*
X132785726Y-97317852D01*
X132794924Y-97127510D01*
X132804791Y-96936269D01*
X132815261Y-96745344D01*
X132826398Y-96553382D01*
X132838144Y-96361430D01*
X132850260Y-96172988D01*
X132863553Y-95975776D01*
X132877164Y-95782742D01*
X132891425Y-95588878D01*
X132906297Y-95394679D01*
X132921693Y-95201216D01*
X132937430Y-95010468D01*
X132953344Y-94824046D01*
X132970210Y-94632813D01*
X132987962Y-94437879D01*
X133005145Y-94254793D01*
X133025245Y-94046979D01*
X133044751Y-93851213D01*
X133064829Y-93655267D01*
X133085041Y-93463186D01*
X133104856Y-93279534D01*
X133125211Y-93095326D01*
X133146906Y-92903555D01*
X133167769Y-92723291D01*
X133190989Y-92527081D01*
X133213278Y-92342814D01*
X133237006Y-92150761D01*
X133259793Y-91970059D01*
X133284986Y-91774262D01*
X133310804Y-91577679D01*
X133337075Y-91381601D01*
X133361058Y-91205862D01*
X133386058Y-91025864D01*
X133411416Y-90846379D01*
X133437820Y-90662664D01*
X133467040Y-90462915D01*
X133495557Y-90271397D01*
X133522667Y-90092291D01*
X133550129Y-89913673D01*
X133577491Y-89738403D01*
X133580639Y-89718548D01*
X134073000Y-89718548D01*
X134073000Y-89881452D01*
X134104782Y-90041227D01*
X134167123Y-90191731D01*
X134257628Y-90327181D01*
X134372819Y-90442372D01*
X134473000Y-90509311D01*
X134473001Y-94279023D01*
X134470935Y-94300000D01*
X134473001Y-94320977D01*
X134473001Y-94320978D01*
X134479179Y-94383707D01*
X134496845Y-94441941D01*
X134503596Y-94464196D01*
X134543245Y-94538376D01*
X134583232Y-94587100D01*
X134583237Y-94587105D01*
X134596606Y-94603395D01*
X134612895Y-94616764D01*
X135872989Y-95876858D01*
X135872990Y-96544712D01*
X135870924Y-96565689D01*
X135872990Y-96586666D01*
X135872990Y-96586667D01*
X135879168Y-96649396D01*
X135900836Y-96720822D01*
X135903585Y-96729885D01*
X135943234Y-96804065D01*
X135983221Y-96852789D01*
X135983226Y-96852794D01*
X135996595Y-96869084D01*
X136012884Y-96882452D01*
X136517547Y-97387116D01*
X136530916Y-97403406D01*
X136547206Y-97416775D01*
X136547209Y-97416778D01*
X136595934Y-97456766D01*
X136620198Y-97469735D01*
X136670115Y-97496416D01*
X136750604Y-97520833D01*
X136813333Y-97527011D01*
X136813345Y-97527011D01*
X136834310Y-97529076D01*
X136855275Y-97527011D01*
X138894660Y-97527011D01*
X138915627Y-97529076D01*
X138936594Y-97527011D01*
X138936605Y-97527011D01*
X138999334Y-97520833D01*
X139079823Y-97496416D01*
X139154003Y-97456766D01*
X139219022Y-97403406D01*
X139232395Y-97387111D01*
X139844925Y-96774582D01*
X139861214Y-96761214D01*
X139874583Y-96744924D01*
X139874587Y-96744920D01*
X139914575Y-96696196D01*
X139954224Y-96622016D01*
X139962348Y-96595235D01*
X139978641Y-96541526D01*
X139984819Y-96478797D01*
X139984819Y-96478786D01*
X139986884Y-96457819D01*
X139984819Y-96436852D01*
X139984819Y-95319049D01*
X140126869Y-95177000D01*
X140181568Y-95177000D01*
X140200752Y-95223314D01*
X140263898Y-95317818D01*
X140344267Y-95398187D01*
X140438771Y-95461333D01*
X140543778Y-95504828D01*
X140655253Y-95527002D01*
X140768913Y-95527002D01*
X140880388Y-95504828D01*
X140985395Y-95461333D01*
X141079899Y-95398187D01*
X141160268Y-95317818D01*
X141223414Y-95223314D01*
X141266909Y-95118307D01*
X141289083Y-95006832D01*
X141289083Y-94937168D01*
X141331695Y-94954818D01*
X141443170Y-94976992D01*
X141556830Y-94976992D01*
X141668305Y-94954818D01*
X141773312Y-94911323D01*
X141867816Y-94848177D01*
X141948185Y-94767808D01*
X142011331Y-94673304D01*
X142054826Y-94568297D01*
X142077000Y-94456822D01*
X142077000Y-94343162D01*
X142054826Y-94231687D01*
X142011331Y-94126680D01*
X141948185Y-94032176D01*
X141867816Y-93951807D01*
X141773312Y-93888661D01*
X141668305Y-93845166D01*
X141556830Y-93822992D01*
X141443170Y-93822992D01*
X141331695Y-93845166D01*
X141264497Y-93873000D01*
X139820956Y-93873000D01*
X139799999Y-93870936D01*
X139779042Y-93873000D01*
X139779022Y-93873000D01*
X139716293Y-93879178D01*
X139635804Y-93903595D01*
X139621161Y-93911422D01*
X139561623Y-93943245D01*
X139512898Y-93983233D01*
X139512895Y-93983236D01*
X139496605Y-93996605D01*
X139483236Y-94012895D01*
X138812900Y-94683232D01*
X138796605Y-94696605D01*
X138783233Y-94712899D01*
X138783232Y-94712900D01*
X138743245Y-94761624D01*
X138724548Y-94796605D01*
X138703595Y-94835805D01*
X138679178Y-94916294D01*
X138673000Y-94979023D01*
X138673000Y-94979033D01*
X138670935Y-95000000D01*
X138673000Y-95020967D01*
X138673001Y-96123130D01*
X138523132Y-96273000D01*
X137176869Y-96273000D01*
X137127000Y-96223132D01*
X137127000Y-95520967D01*
X137129065Y-95500000D01*
X137127000Y-95479033D01*
X137127000Y-95479022D01*
X137120822Y-95416293D01*
X137096405Y-95335804D01*
X137066132Y-95279167D01*
X137056755Y-95261623D01*
X137016768Y-95212899D01*
X137016764Y-95212895D01*
X137003395Y-95196605D01*
X136987105Y-95183236D01*
X135727000Y-93923132D01*
X135727000Y-91576868D01*
X136700375Y-90603493D01*
X136818548Y-90627000D01*
X136981452Y-90627000D01*
X137141227Y-90595218D01*
X137291731Y-90532877D01*
X137427181Y-90442372D01*
X137542372Y-90327181D01*
X137632877Y-90191731D01*
X137695218Y-90041227D01*
X137727000Y-89881452D01*
X137727000Y-89718548D01*
X137695218Y-89558773D01*
X137632877Y-89408269D01*
X137542372Y-89272819D01*
X137427181Y-89157628D01*
X137291731Y-89067123D01*
X137141227Y-89004782D01*
X136981452Y-88973000D01*
X136818548Y-88973000D01*
X136658773Y-89004782D01*
X136508269Y-89067123D01*
X136372819Y-89157628D01*
X136257628Y-89272819D01*
X136167123Y-89408269D01*
X136104782Y-89558773D01*
X136073000Y-89718548D01*
X136073000Y-89881452D01*
X136096507Y-89999625D01*
X135327000Y-90769132D01*
X135327000Y-90509311D01*
X135427181Y-90442372D01*
X135542372Y-90327181D01*
X135632877Y-90191731D01*
X135695218Y-90041227D01*
X135727000Y-89881452D01*
X135727000Y-89718548D01*
X135695218Y-89558773D01*
X135632877Y-89408269D01*
X135542372Y-89272819D01*
X135427181Y-89157628D01*
X135291731Y-89067123D01*
X135141227Y-89004782D01*
X134981452Y-88973000D01*
X134818548Y-88973000D01*
X134658773Y-89004782D01*
X134508269Y-89067123D01*
X134372819Y-89157628D01*
X134257628Y-89272819D01*
X134167123Y-89408269D01*
X134104782Y-89558773D01*
X134073000Y-89718548D01*
X133580639Y-89718548D01*
X133608279Y-89544234D01*
X133637688Y-89361655D01*
X133669467Y-89167384D01*
X133698997Y-88989551D01*
X133736374Y-88768028D01*
X133766849Y-88590235D01*
X133798242Y-88409616D01*
X133809488Y-88345814D01*
X136386713Y-88345814D01*
X136430344Y-88485556D01*
X136573114Y-88564008D01*
X136728445Y-88613100D01*
X136890369Y-88630945D01*
X137052664Y-88616858D01*
X137209091Y-88571379D01*
X137353641Y-88496256D01*
X137369656Y-88485556D01*
X137413287Y-88345814D01*
X136900000Y-87832527D01*
X136386713Y-88345814D01*
X133809488Y-88345814D01*
X133831429Y-88221342D01*
X133863692Y-88040870D01*
X133900692Y-87836855D01*
X133909257Y-87790369D01*
X136069055Y-87790369D01*
X136083142Y-87952664D01*
X136128621Y-88109091D01*
X136203744Y-88253641D01*
X136214444Y-88269656D01*
X136354186Y-88313287D01*
X136867473Y-87800000D01*
X136932527Y-87800000D01*
X137445814Y-88313287D01*
X137585556Y-88269656D01*
X137664008Y-88126886D01*
X137713100Y-87971555D01*
X137730945Y-87809631D01*
X137716858Y-87647336D01*
X137671379Y-87490909D01*
X137596256Y-87346359D01*
X137585556Y-87330344D01*
X137445814Y-87286713D01*
X136932527Y-87800000D01*
X136867473Y-87800000D01*
X136354186Y-87286713D01*
X136214444Y-87330344D01*
X136135992Y-87473114D01*
X136086900Y-87628445D01*
X136069055Y-87790369D01*
X133909257Y-87790369D01*
X133941833Y-87613582D01*
X133974534Y-87438692D01*
X134007660Y-87263752D01*
X134009494Y-87254186D01*
X136386713Y-87254186D01*
X136900000Y-87767473D01*
X137413287Y-87254186D01*
X137369656Y-87114444D01*
X137226886Y-87035992D01*
X137071555Y-86986900D01*
X136909631Y-86969055D01*
X136747336Y-86983142D01*
X136590909Y-87028621D01*
X136446359Y-87103744D01*
X136430344Y-87114444D01*
X136386713Y-87254186D01*
X134009494Y-87254186D01*
X134040954Y-87090123D01*
X134074770Y-86915968D01*
X134113529Y-86718953D01*
X134151107Y-86530525D01*
X134187465Y-86350545D01*
X134212771Y-86227000D01*
X136863227Y-86227000D01*
X136940987Y-86242467D01*
G37*
X136940987Y-86242467D02*
X137006910Y-86286516D01*
X140922329Y-90201935D01*
X140941574Y-90217729D01*
X141038901Y-90282761D01*
X141060858Y-90294497D01*
X141084683Y-90301724D01*
X141199488Y-90324560D01*
X141224264Y-90327000D01*
X145387491Y-90327000D01*
X145465251Y-90342467D01*
X145520570Y-90379430D01*
X145557533Y-90434749D01*
X145573000Y-90512509D01*
X145573000Y-93775736D01*
X145575440Y-93800512D01*
X145598276Y-93915317D01*
X145605503Y-93939142D01*
X145617239Y-93961099D01*
X145682271Y-94058426D01*
X145698065Y-94077671D01*
X146673000Y-95052606D01*
X146673001Y-98123130D01*
X146123132Y-98673000D01*
X142876869Y-98673000D01*
X142827000Y-98623132D01*
X142827000Y-97820968D01*
X142829065Y-97800003D01*
X142827000Y-97779038D01*
X142827000Y-97779026D01*
X142820822Y-97716297D01*
X142796405Y-97635808D01*
X142769487Y-97585447D01*
X142756755Y-97561627D01*
X142716767Y-97512902D01*
X142716764Y-97512899D01*
X142703395Y-97496609D01*
X142687105Y-97483240D01*
X142577000Y-97373135D01*
X142577000Y-97343174D01*
X142554826Y-97231699D01*
X142511331Y-97126692D01*
X142448185Y-97032188D01*
X142367816Y-96951819D01*
X142273312Y-96888673D01*
X142168305Y-96845178D01*
X142056830Y-96823004D01*
X141943170Y-96823004D01*
X141831695Y-96845178D01*
X141726688Y-96888673D01*
X141632184Y-96951819D01*
X141551815Y-97032188D01*
X141488669Y-97126692D01*
X141445174Y-97231699D01*
X141423000Y-97343174D01*
X141423000Y-97456834D01*
X141445174Y-97568309D01*
X141488669Y-97673316D01*
X141551815Y-97767820D01*
X141632184Y-97848189D01*
X141726688Y-97911335D01*
X141831695Y-97954830D01*
X141943170Y-97977004D01*
X141973001Y-97977004D01*
X141973000Y-98779032D01*
X141970935Y-98800000D01*
X141973000Y-98820967D01*
X141973000Y-98820977D01*
X141979178Y-98883706D01*
X142003595Y-98964195D01*
X142013278Y-98982310D01*
X142043245Y-99038376D01*
X142079169Y-99082149D01*
X142084622Y-99088793D01*
X142035793Y-99103606D01*
X142016319Y-99114015D01*
X141961612Y-99143256D01*
X141912888Y-99183243D01*
X141912884Y-99183247D01*
X141896594Y-99196616D01*
X141883225Y-99212906D01*
X140723132Y-100373000D01*
X140693170Y-100373000D01*
X140581695Y-100395174D01*
X140476688Y-100438669D01*
X140382184Y-100501815D01*
X140301815Y-100582184D01*
X140238669Y-100676688D01*
X140195174Y-100781695D01*
X140173000Y-100893170D01*
X140173000Y-100923132D01*
X140123132Y-100973000D01*
X137420978Y-100973000D01*
X137400000Y-100970934D01*
X137379023Y-100973000D01*
X135376870Y-100973000D01*
X134877000Y-100473131D01*
X134877000Y-100443170D01*
X134854826Y-100331695D01*
X134811331Y-100226688D01*
X134748185Y-100132184D01*
X134727000Y-100110999D01*
X134727000Y-95120964D01*
X134729065Y-95099999D01*
X134727000Y-95079034D01*
X134727000Y-95079022D01*
X134720822Y-95016293D01*
X134696405Y-94935804D01*
X134672717Y-94891487D01*
X134656755Y-94861623D01*
X134616767Y-94812898D01*
X134616764Y-94812895D01*
X134603395Y-94796605D01*
X134587106Y-94783237D01*
X134477000Y-94673131D01*
X134477000Y-94643170D01*
X134454826Y-94531695D01*
X134411331Y-94426688D01*
X134348185Y-94332184D01*
X134267816Y-94251815D01*
X134173312Y-94188669D01*
X134068305Y-94145174D01*
X133956830Y-94123000D01*
X133843170Y-94123000D01*
X133731695Y-94145174D01*
X133626688Y-94188669D01*
X133532184Y-94251815D01*
X133451815Y-94332184D01*
X133388669Y-94426688D01*
X133345174Y-94531695D01*
X133323000Y-94643170D01*
X133323000Y-94756830D01*
X133345174Y-94868305D01*
X133388669Y-94973312D01*
X133451815Y-95067816D01*
X133532184Y-95148185D01*
X133626688Y-95211331D01*
X133731695Y-95254826D01*
X133843170Y-95277000D01*
X133873000Y-95277000D01*
X133873001Y-100110998D01*
X133851815Y-100132184D01*
X133788669Y-100226688D01*
X133745174Y-100331695D01*
X133723000Y-100443170D01*
X133723000Y-100556830D01*
X133745174Y-100668305D01*
X133788669Y-100773312D01*
X133851815Y-100867816D01*
X133932184Y-100948185D01*
X134026688Y-101011331D01*
X134131695Y-101054826D01*
X134243170Y-101077000D01*
X134273131Y-101077000D01*
X134883241Y-101687111D01*
X134896605Y-101703395D01*
X134912889Y-101716759D01*
X134912898Y-101716768D01*
X134961623Y-101756755D01*
X134984574Y-101769022D01*
X135035804Y-101796405D01*
X135116293Y-101820822D01*
X135179022Y-101827000D01*
X135179032Y-101827000D01*
X135199999Y-101829065D01*
X135220966Y-101827000D01*
X136973001Y-101827000D01*
X136973000Y-105410999D01*
X136951815Y-105432184D01*
X136888669Y-105526688D01*
X136845174Y-105631695D01*
X136823000Y-105743170D01*
X136823000Y-105856830D01*
X136845174Y-105968305D01*
X136888669Y-106073312D01*
X136951815Y-106167816D01*
X137032184Y-106248185D01*
X137126688Y-106311331D01*
X137231695Y-106354826D01*
X137343170Y-106377000D01*
X137456830Y-106377000D01*
X137568305Y-106354826D01*
X137673312Y-106311331D01*
X137767816Y-106248185D01*
X137848185Y-106167816D01*
X137911331Y-106073312D01*
X137954826Y-105968305D01*
X137977000Y-105856830D01*
X137977000Y-105743170D01*
X137954826Y-105631695D01*
X137911331Y-105526688D01*
X137848185Y-105432184D01*
X137827000Y-105410999D01*
X137827000Y-101827000D01*
X140279033Y-101827000D01*
X140300000Y-101829065D01*
X140320967Y-101827000D01*
X140320978Y-101827000D01*
X140383707Y-101820822D01*
X140464196Y-101796405D01*
X140538376Y-101756755D01*
X140603395Y-101703395D01*
X140616768Y-101687100D01*
X140776868Y-101527000D01*
X140806830Y-101527000D01*
X140918305Y-101504826D01*
X141023312Y-101461331D01*
X141117816Y-101398185D01*
X141198185Y-101317816D01*
X141261331Y-101223312D01*
X141304826Y-101118305D01*
X141327000Y-101006830D01*
X141327000Y-100976868D01*
X142376858Y-99927011D01*
X146444722Y-99927011D01*
X146465689Y-99929076D01*
X146486656Y-99927011D01*
X146486667Y-99927011D01*
X146549396Y-99920833D01*
X146629885Y-99896416D01*
X146704065Y-99856766D01*
X146769084Y-99803406D01*
X146782457Y-99787111D01*
X147742569Y-98827000D01*
X149487491Y-98827000D01*
X149565251Y-98842467D01*
X149620570Y-98879430D01*
X149657533Y-98934749D01*
X149673000Y-99012509D01*
X149673000Y-101287491D01*
X149657533Y-101365251D01*
X149620570Y-101420570D01*
X149565251Y-101457533D01*
X149487491Y-101473000D01*
X147400000Y-101473000D01*
X147375224Y-101475440D01*
X147260419Y-101498276D01*
X147236594Y-101505503D01*
X147214637Y-101517239D01*
X147117310Y-101582271D01*
X147098065Y-101598066D01*
X147082271Y-101617310D01*
X147017239Y-101714637D01*
X147005503Y-101736594D01*
X146998276Y-101760419D01*
X146975440Y-101875224D01*
X146973000Y-101900000D01*
X146973000Y-104887491D01*
X146957533Y-104965251D01*
X146920570Y-105020570D01*
X146865251Y-105057533D01*
X146787491Y-105073000D01*
X142327000Y-105073000D01*
X142327000Y-102089001D01*
X142348185Y-102067816D01*
X142411331Y-101973312D01*
X142454826Y-101868305D01*
X142477000Y-101756830D01*
X142477000Y-101643170D01*
X142454826Y-101531695D01*
X142411331Y-101426688D01*
X142348185Y-101332184D01*
X142267816Y-101251815D01*
X142173312Y-101188669D01*
X142068305Y-101145174D01*
X141956830Y-101123000D01*
X141843170Y-101123000D01*
X141731695Y-101145174D01*
X141626688Y-101188669D01*
X141532184Y-101251815D01*
X141451815Y-101332184D01*
X141388669Y-101426688D01*
X141345174Y-101531695D01*
X141323000Y-101643170D01*
X141323000Y-101756830D01*
X141345174Y-101868305D01*
X141388669Y-101973312D01*
X141451815Y-102067816D01*
X141473001Y-102089002D01*
X141473000Y-105623131D01*
X140423132Y-106673000D01*
X136312509Y-106673000D01*
X136234749Y-106657533D01*
X136179430Y-106620570D01*
X136142467Y-106565251D01*
X136127000Y-106487491D01*
X136127000Y-105500000D01*
X136124560Y-105475224D01*
X136101724Y-105360419D01*
X136094497Y-105336594D01*
X136082761Y-105314637D01*
X136017729Y-105217310D01*
X136001934Y-105198065D01*
X135982690Y-105182271D01*
X135885363Y-105117239D01*
X135863406Y-105105503D01*
X135839581Y-105098276D01*
X135724776Y-105075440D01*
X135700000Y-105073000D01*
X132989015Y-105073000D01*
X132984968Y-105029660D01*
X132966912Y-104830259D01*
X132949852Y-104635558D01*
X132933703Y-104444945D01*
X132917813Y-104250696D01*
X132902479Y-104056180D01*
X132888086Y-103866442D01*
X132874007Y-103673217D01*
X132860222Y-103475663D01*
X132847638Y-103286970D01*
X132835406Y-103094679D01*
X132823315Y-102894522D01*
X132811705Y-102691053D01*
X132801423Y-102499769D01*
X132791786Y-102308980D01*
X132782801Y-102118734D01*
X132773813Y-101913398D01*
X132766035Y-101720085D01*
X132758676Y-101519650D01*
X132751947Y-101315849D01*
X132746018Y-101113068D01*
X132740501Y-100894764D01*
X132736226Y-100693403D01*
X132732751Y-100492490D01*
X132730086Y-100292291D01*
X132728134Y-100077788D01*
X132727176Y-99879330D01*
X132727001Y-99749979D01*
X132727446Y-99544443D01*
X132728721Y-99345891D01*
X132730967Y-99134446D01*
X132733990Y-98930363D01*
X132737778Y-98729154D01*
X132742459Y-98523539D01*
X132747869Y-98320719D01*
X132753804Y-98125481D01*
X132760909Y-97917367D01*
X132768181Y-97724862D01*
X132776490Y-97523643D01*
X132785726Y-97317852D01*
X132794924Y-97127510D01*
X132804791Y-96936269D01*
X132815261Y-96745344D01*
X132826398Y-96553382D01*
X132838144Y-96361430D01*
X132850260Y-96172988D01*
X132863553Y-95975776D01*
X132877164Y-95782742D01*
X132891425Y-95588878D01*
X132906297Y-95394679D01*
X132921693Y-95201216D01*
X132937430Y-95010468D01*
X132953344Y-94824046D01*
X132970210Y-94632813D01*
X132987962Y-94437879D01*
X133005145Y-94254793D01*
X133025245Y-94046979D01*
X133044751Y-93851213D01*
X133064829Y-93655267D01*
X133085041Y-93463186D01*
X133104856Y-93279534D01*
X133125211Y-93095326D01*
X133146906Y-92903555D01*
X133167769Y-92723291D01*
X133190989Y-92527081D01*
X133213278Y-92342814D01*
X133237006Y-92150761D01*
X133259793Y-91970059D01*
X133284986Y-91774262D01*
X133310804Y-91577679D01*
X133337075Y-91381601D01*
X133361058Y-91205862D01*
X133386058Y-91025864D01*
X133411416Y-90846379D01*
X133437820Y-90662664D01*
X133467040Y-90462915D01*
X133495557Y-90271397D01*
X133522667Y-90092291D01*
X133550129Y-89913673D01*
X133577491Y-89738403D01*
X133580639Y-89718548D01*
X134073000Y-89718548D01*
X134073000Y-89881452D01*
X134104782Y-90041227D01*
X134167123Y-90191731D01*
X134257628Y-90327181D01*
X134372819Y-90442372D01*
X134473000Y-90509311D01*
X134473001Y-94279023D01*
X134470935Y-94300000D01*
X134473001Y-94320977D01*
X134473001Y-94320978D01*
X134479179Y-94383707D01*
X134496845Y-94441941D01*
X134503596Y-94464196D01*
X134543245Y-94538376D01*
X134583232Y-94587100D01*
X134583237Y-94587105D01*
X134596606Y-94603395D01*
X134612895Y-94616764D01*
X135872989Y-95876858D01*
X135872990Y-96544712D01*
X135870924Y-96565689D01*
X135872990Y-96586666D01*
X135872990Y-96586667D01*
X135879168Y-96649396D01*
X135900836Y-96720822D01*
X135903585Y-96729885D01*
X135943234Y-96804065D01*
X135983221Y-96852789D01*
X135983226Y-96852794D01*
X135996595Y-96869084D01*
X136012884Y-96882452D01*
X136517547Y-97387116D01*
X136530916Y-97403406D01*
X136547206Y-97416775D01*
X136547209Y-97416778D01*
X136595934Y-97456766D01*
X136620198Y-97469735D01*
X136670115Y-97496416D01*
X136750604Y-97520833D01*
X136813333Y-97527011D01*
X136813345Y-97527011D01*
X136834310Y-97529076D01*
X136855275Y-97527011D01*
X138894660Y-97527011D01*
X138915627Y-97529076D01*
X138936594Y-97527011D01*
X138936605Y-97527011D01*
X138999334Y-97520833D01*
X139079823Y-97496416D01*
X139154003Y-97456766D01*
X139219022Y-97403406D01*
X139232395Y-97387111D01*
X139844925Y-96774582D01*
X139861214Y-96761214D01*
X139874583Y-96744924D01*
X139874587Y-96744920D01*
X139914575Y-96696196D01*
X139954224Y-96622016D01*
X139962348Y-96595235D01*
X139978641Y-96541526D01*
X139984819Y-96478797D01*
X139984819Y-96478786D01*
X139986884Y-96457819D01*
X139984819Y-96436852D01*
X139984819Y-95319049D01*
X140126869Y-95177000D01*
X140181568Y-95177000D01*
X140200752Y-95223314D01*
X140263898Y-95317818D01*
X140344267Y-95398187D01*
X140438771Y-95461333D01*
X140543778Y-95504828D01*
X140655253Y-95527002D01*
X140768913Y-95527002D01*
X140880388Y-95504828D01*
X140985395Y-95461333D01*
X141079899Y-95398187D01*
X141160268Y-95317818D01*
X141223414Y-95223314D01*
X141266909Y-95118307D01*
X141289083Y-95006832D01*
X141289083Y-94937168D01*
X141331695Y-94954818D01*
X141443170Y-94976992D01*
X141556830Y-94976992D01*
X141668305Y-94954818D01*
X141773312Y-94911323D01*
X141867816Y-94848177D01*
X141948185Y-94767808D01*
X142011331Y-94673304D01*
X142054826Y-94568297D01*
X142077000Y-94456822D01*
X142077000Y-94343162D01*
X142054826Y-94231687D01*
X142011331Y-94126680D01*
X141948185Y-94032176D01*
X141867816Y-93951807D01*
X141773312Y-93888661D01*
X141668305Y-93845166D01*
X141556830Y-93822992D01*
X141443170Y-93822992D01*
X141331695Y-93845166D01*
X141264497Y-93873000D01*
X139820956Y-93873000D01*
X139799999Y-93870936D01*
X139779042Y-93873000D01*
X139779022Y-93873000D01*
X139716293Y-93879178D01*
X139635804Y-93903595D01*
X139621161Y-93911422D01*
X139561623Y-93943245D01*
X139512898Y-93983233D01*
X139512895Y-93983236D01*
X139496605Y-93996605D01*
X139483236Y-94012895D01*
X138812900Y-94683232D01*
X138796605Y-94696605D01*
X138783233Y-94712899D01*
X138783232Y-94712900D01*
X138743245Y-94761624D01*
X138724548Y-94796605D01*
X138703595Y-94835805D01*
X138679178Y-94916294D01*
X138673000Y-94979023D01*
X138673000Y-94979033D01*
X138670935Y-95000000D01*
X138673000Y-95020967D01*
X138673001Y-96123130D01*
X138523132Y-96273000D01*
X137176869Y-96273000D01*
X137127000Y-96223132D01*
X137127000Y-95520967D01*
X137129065Y-95500000D01*
X137127000Y-95479033D01*
X137127000Y-95479022D01*
X137120822Y-95416293D01*
X137096405Y-95335804D01*
X137066132Y-95279167D01*
X137056755Y-95261623D01*
X137016768Y-95212899D01*
X137016764Y-95212895D01*
X137003395Y-95196605D01*
X136987105Y-95183236D01*
X135727000Y-93923132D01*
X135727000Y-91576868D01*
X136700375Y-90603493D01*
X136818548Y-90627000D01*
X136981452Y-90627000D01*
X137141227Y-90595218D01*
X137291731Y-90532877D01*
X137427181Y-90442372D01*
X137542372Y-90327181D01*
X137632877Y-90191731D01*
X137695218Y-90041227D01*
X137727000Y-89881452D01*
X137727000Y-89718548D01*
X137695218Y-89558773D01*
X137632877Y-89408269D01*
X137542372Y-89272819D01*
X137427181Y-89157628D01*
X137291731Y-89067123D01*
X137141227Y-89004782D01*
X136981452Y-88973000D01*
X136818548Y-88973000D01*
X136658773Y-89004782D01*
X136508269Y-89067123D01*
X136372819Y-89157628D01*
X136257628Y-89272819D01*
X136167123Y-89408269D01*
X136104782Y-89558773D01*
X136073000Y-89718548D01*
X136073000Y-89881452D01*
X136096507Y-89999625D01*
X135327000Y-90769132D01*
X135327000Y-90509311D01*
X135427181Y-90442372D01*
X135542372Y-90327181D01*
X135632877Y-90191731D01*
X135695218Y-90041227D01*
X135727000Y-89881452D01*
X135727000Y-89718548D01*
X135695218Y-89558773D01*
X135632877Y-89408269D01*
X135542372Y-89272819D01*
X135427181Y-89157628D01*
X135291731Y-89067123D01*
X135141227Y-89004782D01*
X134981452Y-88973000D01*
X134818548Y-88973000D01*
X134658773Y-89004782D01*
X134508269Y-89067123D01*
X134372819Y-89157628D01*
X134257628Y-89272819D01*
X134167123Y-89408269D01*
X134104782Y-89558773D01*
X134073000Y-89718548D01*
X133580639Y-89718548D01*
X133608279Y-89544234D01*
X133637688Y-89361655D01*
X133669467Y-89167384D01*
X133698997Y-88989551D01*
X133736374Y-88768028D01*
X133766849Y-88590235D01*
X133798242Y-88409616D01*
X133809488Y-88345814D01*
X136386713Y-88345814D01*
X136430344Y-88485556D01*
X136573114Y-88564008D01*
X136728445Y-88613100D01*
X136890369Y-88630945D01*
X137052664Y-88616858D01*
X137209091Y-88571379D01*
X137353641Y-88496256D01*
X137369656Y-88485556D01*
X137413287Y-88345814D01*
X136900000Y-87832527D01*
X136386713Y-88345814D01*
X133809488Y-88345814D01*
X133831429Y-88221342D01*
X133863692Y-88040870D01*
X133900692Y-87836855D01*
X133909257Y-87790369D01*
X136069055Y-87790369D01*
X136083142Y-87952664D01*
X136128621Y-88109091D01*
X136203744Y-88253641D01*
X136214444Y-88269656D01*
X136354186Y-88313287D01*
X136867473Y-87800000D01*
X136932527Y-87800000D01*
X137445814Y-88313287D01*
X137585556Y-88269656D01*
X137664008Y-88126886D01*
X137713100Y-87971555D01*
X137730945Y-87809631D01*
X137716858Y-87647336D01*
X137671379Y-87490909D01*
X137596256Y-87346359D01*
X137585556Y-87330344D01*
X137445814Y-87286713D01*
X136932527Y-87800000D01*
X136867473Y-87800000D01*
X136354186Y-87286713D01*
X136214444Y-87330344D01*
X136135992Y-87473114D01*
X136086900Y-87628445D01*
X136069055Y-87790369D01*
X133909257Y-87790369D01*
X133941833Y-87613582D01*
X133974534Y-87438692D01*
X134007660Y-87263752D01*
X134009494Y-87254186D01*
X136386713Y-87254186D01*
X136900000Y-87767473D01*
X137413287Y-87254186D01*
X137369656Y-87114444D01*
X137226886Y-87035992D01*
X137071555Y-86986900D01*
X136909631Y-86969055D01*
X136747336Y-86983142D01*
X136590909Y-87028621D01*
X136446359Y-87103744D01*
X136430344Y-87114444D01*
X136386713Y-87254186D01*
X134009494Y-87254186D01*
X134040954Y-87090123D01*
X134074770Y-86915968D01*
X134113529Y-86718953D01*
X134151107Y-86530525D01*
X134187465Y-86350545D01*
X134212771Y-86227000D01*
X136863227Y-86227000D01*
X136940987Y-86242467D01*
M02*
