M48
; DRILL file {KiCad 5.1.5} date Tue Mar 24 00:38:59 2020
; FORMAT={-:-/ absolute / inch / decimal}
; #@! TF.CreationDate,2020-03-24T00:38:59+03:00
; #@! TF.GenerationSoftware,Kicad,Pcbnew,5.1.5
FMAT,2
INCH
T1C0.0079
T2C0.0315
T3C0.0394
T4C0.0591
T5C0.1260
%
G90
G05
T1
X5.2441Y-3.7677
X5.2441Y-3.815
X5.2441Y-3.8622
X5.248Y-3.685
X5.2598Y-3.5906
X5.2598Y-4.1142
X5.2717Y-3.5
X5.2717Y-3.7283
X5.2874Y-3.9567
X5.2913Y-3.4016
X5.3425Y-3.7835
X5.3425Y-3.8465
X5.3425Y-3.9094
X5.3898Y-3.4016
X5.4055Y-3.8465
X5.4055Y-3.9094
X5.4094Y-3.6181
X5.4094Y-4.1654
X5.437Y-3.7835
X5.4449Y-3.4606
X5.4449Y-3.6181
X5.4528Y-4.1063
X5.4528Y-4.189
X5.4685Y-3.8465
X5.4685Y-3.9094
X5.4843Y-3.563
X5.4843Y-3.6181
X5.5039Y-3.5197
X5.5157Y-4.1063
X5.5157Y-4.189
X5.5197Y-3.563
X5.5197Y-3.6181
X5.5398Y-3.7382
X5.5413Y-3.9744
X5.5709Y-3.7165
X5.5787Y-3.563
X5.5866Y-4.0039
X5.5906Y-3.8346
X5.6063Y-3.6811
X5.6063Y-3.7126
X5.6339Y-3.563
X5.6457Y-3.7283
X5.6614Y-3.8031
X5.6614Y-3.874
X5.6614Y-3.9449
X5.6614Y-4.0157
X5.6614Y-4.0866
X5.6811Y-3.6102
X5.6811Y-3.6496
X5.685Y-3.7283
X5.7205Y-3.6102
X5.7205Y-3.6496
X5.7244Y-3.7283
X5.7323Y-3.8031
X5.7323Y-3.874
X5.7323Y-3.9449
X5.7323Y-4.0157
X5.7323Y-4.0866
X5.7913Y-3.7047
X5.815Y-3.9134
X5.815Y-3.9724
X5.8189Y-3.8386
X5.8819Y-3.9449
T2
X5.9291Y-3.4906
X5.9291Y-3.5906
X5.9291Y-3.6906
X5.2913Y-4.2244
X6.0827Y-4.2244
T3
X5.9567Y-4.3819
X5.9571Y-4.5819
T4
X5.8858Y-3.0906
X5.4843Y-3.0906
X5.8858Y-4.7598
X5.4843Y-4.7598
T5
X5.685Y-4.5374
X5.685Y-3.3169
T0
M30
